                                                                        S      1
1H,,1H;,1H ,1H ,1H ,12HDT_NURBS 1.0,32,38,7,307,16,1H ,0.10000000E+01,  G0000001
1,2HIN,1,0.33330000E-02,1H ,0.10000000E-05,0.10000000E+06,1H ,1H ,9,0,  G0000002
1H ;                                                                    G0000003
     126       1       0       0       0       0       0       000000000D0000001
     126       0       0     503       0                A Surfac       0D0000002
126,399,3,0,0,1,0,0.00000000E+00,0.00000000E+00,0.00000000E+00,  0000001P0000001
0.00000000E+00,0.50125350E-02,0.75187887E-02,0.10025008E-01,     0000001P0000002
0.12531284E-01,0.15037580E-01,0.17543881E-01,0.20050086E-01,     0000001P0000003
0.22556383E-01,0.25062650E-01,0.27568908E-01,0.30075137E-01,     0000001P0000004
0.32581383E-01,0.35087675E-01,0.37593936E-01,0.40100189E-01,     0000001P0000005
0.42606433E-01,0.45112702E-01,0.47618995E-01,0.50125248E-01,     0000001P0000006
0.52631480E-01,0.55137707E-01,0.57643964E-01,0.60150261E-01,     0000001P0000007
0.62656541E-01,0.65162828E-01,0.67669055E-01,0.70175332E-01,     0000001P0000008
0.72681586E-01,0.75187845E-01,0.77694037E-01,0.80200283E-01,     0000001P0000009
0.82706594E-01,0.85212893E-01,0.87719195E-01,0.90225432E-01,     0000001P0000010
0.92731731E-01,0.95238027E-01,0.97744283E-01,0.10025047E+00,     0000001P0000011
0.10275667E+00,0.10526294E+00,0.10776925E+00,0.11027560E+00,     0000001P0000012
0.11278187E+00,0.11528808E+00,0.11779434E+00,0.12030063E+00,     0000001P0000013
0.12280699E+00,0.12531320E+00,0.12781939E+00,0.13032557E+00,     0000001P0000014
0.13283185E+00,0.13533815E+00,0.13784447E+00,0.14035073E+00,     0000001P0000015
0.14285704E+00,0.14536330E+00,0.14786957E+00,0.15037579E+00,     0000001P0000016
0.15288202E+00,0.15538832E+00,0.15789463E+00,0.16040090E+00,     0000001P0000017
0.16290717E+00,0.16541345E+00,0.16791974E+00,0.17042597E+00,     0000001P0000018
0.17293222E+00,0.17543853E+00,0.17794488E+00,0.18045118E+00,     0000001P0000019
0.18295741E+00,0.18546364E+00,0.18796985E+00,0.19047615E+00,     0000001P0000020
0.19298243E+00,0.19548872E+00,0.19799504E+00,0.20050134E+00,     0000001P0000021
0.20300765E+00,0.20551383E+00,0.20802003E+00,0.21052630E+00,     0000001P0000022
0.21303261E+00,0.21553893E+00,0.21804514E+00,0.22055142E+00,     0000001P0000023
0.22305765E+00,0.22556394E+00,0.22807019E+00,0.23057651E+00,     0000001P0000024
0.23308281E+00,0.23558911E+00,0.23809534E+00,0.24060153E+00,     0000001P0000025
0.24310783E+00,0.24561408E+00,0.24812041E+00,0.25062666E+00,     0000001P0000026
0.25313291E+00,0.25563910E+00,0.25814531E+00,0.26065166E+00,     0000001P0000027
0.26315791E+00,0.26566416E+00,0.26817036E+00,0.27067672E+00,     0000001P0000028
0.27318300E+00,0.27568929E+00,0.27819556E+00,0.28070185E+00,     0000001P0000029
0.28320815E+00,0.28571437E+00,0.28822066E+00,0.29072696E+00,     0000001P0000030
0.29323332E+00,0.29573963E+00,0.29824590E+00,0.30075210E+00,     0000001P0000031
0.30325830E+00,0.30576449E+00,0.30827084E+00,0.31077720E+00,     0000001P0000032
0.31328350E+00,0.31578968E+00,0.31829589E+00,0.32080219E+00,     0000001P0000033
0.32330851E+00,0.32581481E+00,0.32832103E+00,0.33082733E+00,     0000001P0000034
0.33333362E+00,0.33583988E+00,0.33834607E+00,0.34085235E+00,     0000001P0000035
0.34335866E+00,0.34586495E+00,0.34837117E+00,0.35087747E+00,     0000001P0000036
0.35338378E+00,0.35589006E+00,0.35839634E+00,0.36090256E+00,     0000001P0000037
0.36340876E+00,0.36591498E+00,0.36842128E+00,0.37092757E+00,     0000001P0000038
0.37343380E+00,0.37594001E+00,0.37844625E+00,0.38095256E+00,     0000001P0000039
0.38345888E+00,0.38596516E+00,0.38847144E+00,0.39097766E+00,     0000001P0000040
0.39348400E+00,0.39599019E+00,0.39849650E+00,0.40100268E+00,     0000001P0000041
0.40350900E+00,0.40601523E+00,0.40852153E+00,0.41102777E+00,     0000001P0000042
0.41353404E+00,0.41604032E+00,0.41854659E+00,0.42105285E+00,     0000001P0000043
0.42355911E+00,0.42606542E+00,0.42857167E+00,0.43107798E+00,     0000001P0000044
0.43358424E+00,0.43609056E+00,0.43859681E+00,0.44110309E+00,     0000001P0000045
0.44360936E+00,0.44611561E+00,0.44862180E+00,0.45112800E+00,     0000001P0000046
0.45363429E+00,0.45614053E+00,0.45864686E+00,0.46115309E+00,     0000001P0000047
0.46365943E+00,0.46616563E+00,0.46867190E+00,0.47117811E+00,     0000001P0000048
0.47368436E+00,0.47619063E+00,0.47869689E+00,0.48120313E+00,     0000001P0000049
0.48370942E+00,0.48621575E+00,0.48872206E+00,0.49122823E+00,     0000001P0000050
0.49373443E+00,0.49624064E+00,0.49874694E+00,0.50125318E+00,     0000001P0000051
0.50375944E+00,0.50626570E+00,0.50877204E+00,0.51127835E+00,     0000001P0000052
0.51378465E+00,0.51629082E+00,0.51879710E+00,0.52130330E+00,     0000001P0000053
0.52380962E+00,0.52631589E+00,0.52882223E+00,0.53132847E+00,     0000001P0000054
0.53383465E+00,0.53634092E+00,0.53884723E+00,0.54135350E+00,     0000001P0000055
0.54385967E+00,0.54636590E+00,0.54887223E+00,0.55137860E+00,     0000001P0000056
0.55388483E+00,0.55639103E+00,0.55889723E+00,0.56140353E+00,     0000001P0000057
0.56390985E+00,0.56641617E+00,0.56892239E+00,0.57142869E+00,     0000001P0000058
0.57393490E+00,0.57644121E+00,0.57894745E+00,0.58145366E+00,     0000001P0000059
0.58395992E+00,0.58646616E+00,0.58897245E+00,0.59147876E+00,     0000001P0000060
0.59398501E+00,0.59649133E+00,0.59899755E+00,0.60150381E+00,     0000001P0000061
0.60401002E+00,0.60651628E+00,0.60902258E+00,0.61152888E+00,     0000001P0000062
0.61403516E+00,0.61654139E+00,0.61904765E+00,0.62155392E+00,     0000001P0000063
0.62406019E+00,0.62656638E+00,0.62907255E+00,0.63157875E+00,     0000001P0000064
0.63408504E+00,0.63659134E+00,0.63909768E+00,0.64160390E+00,     0000001P0000065
0.64411017E+00,0.64661644E+00,0.64912277E+00,0.65162898E+00,     0000001P0000066
0.65413526E+00,0.65664150E+00,0.65914783E+00,0.66165403E+00,     0000001P0000067
0.66416029E+00,0.66666645E+00,0.66917276E+00,0.67167899E+00,     0000001P0000068
0.67418531E+00,0.67669157E+00,0.67919781E+00,0.68170410E+00,     0000001P0000069
0.68421031E+00,0.68671662E+00,0.68922286E+00,0.69172917E+00,     0000001P0000070
0.69423548E+00,0.69674171E+00,0.69924799E+00,0.70175423E+00,     0000001P0000071
0.70426045E+00,0.70676667E+00,0.70927289E+00,0.71177921E+00,     0000001P0000072
0.71428541E+00,0.71679163E+00,0.71929795E+00,0.72180429E+00,     0000001P0000073
0.72431062E+00,0.72681685E+00,0.72932307E+00,0.73182934E+00,     0000001P0000074
0.73433558E+00,0.73684191E+00,0.73934825E+00,0.74185460E+00,     0000001P0000075
0.74436086E+00,0.74686705E+00,0.74937332E+00,0.75187960E+00,     0000001P0000076
0.75438598E+00,0.75689225E+00,0.75939861E+00,0.76190480E+00,     0000001P0000077
0.76441107E+00,0.76691734E+00,0.76942360E+00,0.77192989E+00,     0000001P0000078
0.77443613E+00,0.77694239E+00,0.77944865E+00,0.78195485E+00,     0000001P0000079
0.78446112E+00,0.78696732E+00,0.78947362E+00,0.79197997E+00,     0000001P0000080
0.79448629E+00,0.79699260E+00,0.79949885E+00,0.80200512E+00,     0000001P0000081
0.80451138E+00,0.80701762E+00,0.80952382E+00,0.81202999E+00,     0000001P0000082
0.81453625E+00,0.81704249E+00,0.81954882E+00,0.82205506E+00,     0000001P0000083
0.82456132E+00,0.82706754E+00,0.82957381E+00,0.83208010E+00,     0000001P0000084
0.83458636E+00,0.83709263E+00,0.83959886E+00,0.84210511E+00,     0000001P0000085
0.84461142E+00,0.84711774E+00,0.84962404E+00,0.85213026E+00,     0000001P0000086
0.85463648E+00,0.85714279E+00,0.85964905E+00,0.86215531E+00,     0000001P0000087
0.86466153E+00,0.86716783E+00,0.86967414E+00,0.87218044E+00,     0000001P0000088
0.87468672E+00,0.87719300E+00,0.87969923E+00,0.88220544E+00,     0000001P0000089
0.88471170E+00,0.88721800E+00,0.88972426E+00,0.89223051E+00,     0000001P0000090
0.89473677E+00,0.89724308E+00,0.89974935E+00,0.90225559E+00,     0000001P0000091
0.90476175E+00,0.90726801E+00,0.90977431E+00,0.91228066E+00,     0000001P0000092
0.91478695E+00,0.91729322E+00,0.91979938E+00,0.92230557E+00,     0000001P0000093
0.92481180E+00,0.92731807E+00,0.92982439E+00,0.93233064E+00,     0000001P0000094
0.93483692E+00,0.93734320E+00,0.93984946E+00,0.94235579E+00,     0000001P0000095
0.94486196E+00,0.94736818E+00,0.94987436E+00,0.95238064E+00,     0000001P0000096
0.95488693E+00,0.95739326E+00,0.95989955E+00,0.96240582E+00,     0000001P0000097
0.96491205E+00,0.96741832E+00,0.96992463E+00,0.97243089E+00,     0000001P0000098
0.97493723E+00,0.97744347E+00,0.97994975E+00,0.98245602E+00,     0000001P0000099
0.98496233E+00,0.98746865E+00,0.98997487E+00,0.99248113E+00,     0000001P0000100
0.99498743E+00,0.10000000E+01,0.10000000E+01,0.10000000E+01,     0000001P0000101
0.10000000E+01,0.10000000E+01,0.10000000E+01,0.10000000E+01,     0000001P0000102
0.10000000E+01,0.10000000E+01,0.10000000E+01,0.10000000E+01,     0000001P0000103
0.10000000E+01,0.10000000E+01,0.10000000E+01,0.10000000E+01,     0000001P0000104
0.10000000E+01,0.10000000E+01,0.10000000E+01,0.10000000E+01,     0000001P0000105
0.10000000E+01,0.10000000E+01,0.10000000E+01,0.10000000E+01,     0000001P0000106
0.10000000E+01,0.10000000E+01,0.10000000E+01,0.10000000E+01,     0000001P0000107
0.10000000E+01,0.10000000E+01,0.10000000E+01,0.10000000E+01,     0000001P0000108
0.10000000E+01,0.10000000E+01,0.10000000E+01,0.10000000E+01,     0000001P0000109
0.10000000E+01,0.10000000E+01,0.10000000E+01,0.10000000E+01,     0000001P0000110
0.10000000E+01,0.10000000E+01,0.10000000E+01,0.10000000E+01,     0000001P0000111
0.10000000E+01,0.10000000E+01,0.10000000E+01,0.10000000E+01,     0000001P0000112
0.10000000E+01,0.10000000E+01,0.10000000E+01,0.10000000E+01,     0000001P0000113
0.10000000E+01,0.10000000E+01,0.10000000E+01,0.10000000E+01,     0000001P0000114
0.10000000E+01,0.10000000E+01,0.10000000E+01,0.10000000E+01,     0000001P0000115
0.10000000E+01,0.10000000E+01,0.10000000E+01,0.10000000E+01,     0000001P0000116
0.10000000E+01,0.10000000E+01,0.10000000E+01,0.10000000E+01,     0000001P0000117
0.10000000E+01,0.10000000E+01,0.10000000E+01,0.10000000E+01,     0000001P0000118
0.10000000E+01,0.10000000E+01,0.10000000E+01,0.10000000E+01,     0000001P0000119
0.10000000E+01,0.10000000E+01,0.10000000E+01,0.10000000E+01,     0000001P0000120
0.10000000E+01,0.10000000E+01,0.10000000E+01,0.10000000E+01,     0000001P0000121
0.10000000E+01,0.10000000E+01,0.10000000E+01,0.10000000E+01,     0000001P0000122
0.10000000E+01,0.10000000E+01,0.10000000E+01,0.10000000E+01,     0000001P0000123
0.10000000E+01,0.10000000E+01,0.10000000E+01,0.10000000E+01,     0000001P0000124
0.10000000E+01,0.10000000E+01,0.10000000E+01,0.10000000E+01,     0000001P0000125
0.10000000E+01,0.10000000E+01,0.10000000E+01,0.10000000E+01,     0000001P0000126
0.10000000E+01,0.10000000E+01,0.10000000E+01,0.10000000E+01,     0000001P0000127
0.10000000E+01,0.10000000E+01,0.10000000E+01,0.10000000E+01,     0000001P0000128
0.10000000E+01,0.10000000E+01,0.10000000E+01,0.10000000E+01,     0000001P0000129
0.10000000E+01,0.10000000E+01,0.10000000E+01,0.10000000E+01,     0000001P0000130
0.10000000E+01,0.10000000E+01,0.10000000E+01,0.10000000E+01,     0000001P0000131
0.10000000E+01,0.10000000E+01,0.10000000E+01,0.10000000E+01,     0000001P0000132
0.10000000E+01,0.10000000E+01,0.10000000E+01,0.10000000E+01,     0000001P0000133
0.10000000E+01,0.10000000E+01,0.10000000E+01,0.10000000E+01,     0000001P0000134
0.10000000E+01,0.10000000E+01,0.10000000E+01,0.10000000E+01,     0000001P0000135
0.10000000E+01,0.10000000E+01,0.10000000E+01,0.10000000E+01,     0000001P0000136
0.10000000E+01,0.10000000E+01,0.10000000E+01,0.10000000E+01,     0000001P0000137
0.10000000E+01,0.10000000E+01,0.10000000E+01,0.10000000E+01,     0000001P0000138
0.10000000E+01,0.10000000E+01,0.10000000E+01,0.10000000E+01,     0000001P0000139
0.10000000E+01,0.10000000E+01,0.10000000E+01,0.10000000E+01,     0000001P0000140
0.10000000E+01,0.10000000E+01,0.10000000E+01,0.10000000E+01,     0000001P0000141
0.10000000E+01,0.10000000E+01,0.10000000E+01,0.10000000E+01,     0000001P0000142
0.10000000E+01,0.10000000E+01,0.10000000E+01,0.10000000E+01,     0000001P0000143
0.10000000E+01,0.10000000E+01,0.10000000E+01,0.10000000E+01,     0000001P0000144
0.10000000E+01,0.10000000E+01,0.10000000E+01,0.10000000E+01,     0000001P0000145
0.10000000E+01,0.10000000E+01,0.10000000E+01,0.10000000E+01,     0000001P0000146
0.10000000E+01,0.10000000E+01,0.10000000E+01,0.10000000E+01,     0000001P0000147
0.10000000E+01,0.10000000E+01,0.10000000E+01,0.10000000E+01,     0000001P0000148
0.10000000E+01,0.10000000E+01,0.10000000E+01,0.10000000E+01,     0000001P0000149
0.10000000E+01,0.10000000E+01,0.10000000E+01,0.10000000E+01,     0000001P0000150
0.10000000E+01,0.10000000E+01,0.10000000E+01,0.10000000E+01,     0000001P0000151
0.10000000E+01,0.10000000E+01,0.10000000E+01,0.10000000E+01,     0000001P0000152
0.10000000E+01,0.10000000E+01,0.10000000E+01,0.10000000E+01,     0000001P0000153
0.10000000E+01,0.10000000E+01,0.10000000E+01,0.10000000E+01,     0000001P0000154
0.10000000E+01,0.10000000E+01,0.10000000E+01,0.10000000E+01,     0000001P0000155
0.10000000E+01,0.10000000E+01,0.10000000E+01,0.10000000E+01,     0000001P0000156
0.10000000E+01,0.10000000E+01,0.10000000E+01,0.10000000E+01,     0000001P0000157
0.10000000E+01,0.10000000E+01,0.10000000E+01,0.10000000E+01,     0000001P0000158
0.10000000E+01,0.10000000E+01,0.10000000E+01,0.10000000E+01,     0000001P0000159
0.10000000E+01,0.10000000E+01,0.10000000E+01,0.10000000E+01,     0000001P0000160
0.10000000E+01,0.10000000E+01,0.10000000E+01,0.10000000E+01,     0000001P0000161
0.10000000E+01,0.10000000E+01,0.10000000E+01,0.10000000E+01,     0000001P0000162
0.10000000E+01,0.10000000E+01,0.10000000E+01,0.10000000E+01,     0000001P0000163
0.10000000E+01,0.10000000E+01,0.10000000E+01,0.10000000E+01,     0000001P0000164
0.10000000E+01,0.10000000E+01,0.10000000E+01,0.10000000E+01,     0000001P0000165
0.10000000E+01,0.10000000E+01,0.10000000E+01,0.10000000E+01,     0000001P0000166
0.10000000E+01,0.10000000E+01,0.10000000E+01,0.10000000E+01,     0000001P0000167
0.10000000E+01,0.10000000E+01,0.10000000E+01,0.10000000E+01,     0000001P0000168
0.10000000E+01,0.10000000E+01,0.10000000E+01,0.10000000E+01,     0000001P0000169
0.10000000E+01,0.10000000E+01,0.10000000E+01,0.10000000E+01,     0000001P0000170
0.10000000E+01,0.10000000E+01,0.10000000E+01,0.10000000E+01,     0000001P0000171
0.10000000E+01,0.10000000E+01,0.10000000E+01,0.10000000E+01,     0000001P0000172
0.10000000E+01,0.10000000E+01,0.10000000E+01,0.10000000E+01,     0000001P0000173
0.10000000E+01,0.10000000E+01,0.10000000E+01,0.10000000E+01,     0000001P0000174
0.10000000E+01,0.10000000E+01,0.10000000E+01,0.10000000E+01,     0000001P0000175
0.10000000E+01,0.10000000E+01,0.10000000E+01,0.10000000E+01,     0000001P0000176
0.10000000E+01,0.10000000E+01,0.10000000E+01,0.10000000E+01,     0000001P0000177
0.10000000E+01,0.10000000E+01,0.10000000E+01,0.10000000E+01,     0000001P0000178
0.10000000E+01,0.10000000E+01,0.10000000E+01,0.10000000E+01,     0000001P0000179
0.10000000E+01,0.10000000E+01,0.10000000E+01,0.10000000E+01,     0000001P0000180
0.10000000E+01,0.10000000E+01,0.10000000E+01,0.10000000E+01,     0000001P0000181
0.10000000E+01,0.10000000E+01,0.10000000E+01,0.10000000E+01,     0000001P0000182
0.10000000E+01,0.10000000E+01,0.10000000E+01,0.10000000E+01,     0000001P0000183
0.10000000E+01,0.10000000E+01,0.10000000E+01,0.10000000E+01,     0000001P0000184
0.10000000E+01,0.10000000E+01,0.10000000E+01,0.10000000E+01,     0000001P0000185
0.10000000E+01,0.10000000E+01,0.10000000E+01,0.10000000E+01,     0000001P0000186
0.10000000E+01,0.10000000E+01,0.10000000E+01,0.10000000E+01,     0000001P0000187
0.10000000E+01,0.10000000E+01,0.10000000E+01,0.10000000E+01,     0000001P0000188
0.10000000E+01,0.10000000E+01,0.10000000E+01,0.10000000E+01,     0000001P0000189
0.10000000E+01,0.10000000E+01,0.10000000E+01,0.10000000E+01,     0000001P0000190
0.10000000E+01,0.10000000E+01,0.10000000E+01,0.10000000E+01,     0000001P0000191
0.10000000E+01,0.10000000E+01,0.10000000E+01,0.10000000E+01,     0000001P0000192
0.10000000E+01,0.10000000E+01,0.10000000E+01,0.10000000E+01,     0000001P0000193
0.10000000E+01,0.10000000E+01,0.10000000E+01,0.10000000E+01,     0000001P0000194
0.10000000E+01,0.10000000E+01,0.10000000E+01,0.10000000E+01,     0000001P0000195
0.10000000E+01,0.10000000E+01,0.10000000E+01,0.10000000E+01,     0000001P0000196
0.10000000E+01,0.10000000E+01,0.10000000E+01,0.10000000E+01,     0000001P0000197
0.10000000E+01,0.10000000E+01,0.10000000E+01,0.10000000E+01,     0000001P0000198
0.10000000E+01,0.10000000E+01,0.10000000E+01,0.10000000E+01,     0000001P0000199
0.10000000E+01,0.10000000E+01,0.10000000E+01,0.10000000E+01,     0000001P0000200
0.10000000E+01,0.10000000E+01,0.10000000E+01,0.10000000E+01,     0000001P0000201
0.10000000E+01,0.19075519E+03,0.19650858E+02,0.00000000E+00,     0000001P0000202
0.19082335E+03,0.19609885E+02,0.00000000E+00,0.19092568E+03,     0000001P0000203
0.19548549E+02,0.00000000E+00,0.19106222E+03,0.19466954E+02,     0000001P0000204
0.00000000E+00,0.19116467E+03,0.19405838E+02,0.00000000E+00,     0000001P0000205
0.19126717E+03,0.19344811E+02,0.00000000E+00,0.19136973E+03,     0000001P0000206
0.19283858E+02,0.00000000E+00,0.19147231E+03,0.19222968E+02,     0000001P0000207
0.00000000E+00,0.19157495E+03,0.19162149E+02,0.00000000E+00,     0000001P0000208
0.19167760E+03,0.19101364E+02,0.00000000E+00,0.19178028E+03,     0000001P0000209
0.19040642E+02,0.00000000E+00,0.19188299E+03,0.18979951E+02,     0000001P0000210
0.00000000E+00,0.19198572E+03,0.18919298E+02,0.00000000E+00,     0000001P0000211
0.19208848E+03,0.18858708E+02,0.00000000E+00,0.19219128E+03,     0000001P0000212
0.18798169E+02,0.00000000E+00,0.19229411E+03,0.18737688E+02,     0000001P0000213
0.00000000E+00,0.19239698E+03,0.18677286E+02,0.00000000E+00,     0000001P0000214
0.19249990E+03,0.18616954E+02,0.00000000E+00,0.19260287E+03,     0000001P0000215
0.18556712E+02,0.00000000E+00,0.19270589E+03,0.18496561E+02,     0000001P0000216
0.00000000E+00,0.19280898E+03,0.18436516E+02,0.00000000E+00,     0000001P0000217
0.19291212E+03,0.18376568E+02,0.00000000E+00,0.19301532E+03,     0000001P0000218
0.18316736E+02,0.00000000E+00,0.19311861E+03,0.18257036E+02,     0000001P0000219
0.00000000E+00,0.19322196E+03,0.18197447E+02,0.00000000E+00,     0000001P0000220
0.19332539E+03,0.18138007E+02,0.00000000E+00,0.19342891E+03,     0000001P0000221
0.18078704E+02,0.00000000E+00,0.19353250E+03,0.18019543E+02,     0000001P0000222
0.00000000E+00,0.19363619E+03,0.17960538E+02,0.00000000E+00,     0000001P0000223
0.19373997E+03,0.17901711E+02,0.00000000E+00,0.19384384E+03,     0000001P0000224
0.17843036E+02,0.00000000E+00,0.19394781E+03,0.17784546E+02,     0000001P0000225
0.00000000E+00,0.19405189E+03,0.17726245E+02,0.00000000E+00,     0000001P0000226
0.19415608E+03,0.17668128E+02,0.00000000E+00,0.19426039E+03,     0000001P0000227
0.17610226E+02,0.00000000E+00,0.19436480E+03,0.17552526E+02,     0000001P0000228
0.00000000E+00,0.19446934E+03,0.17495047E+02,0.00000000E+00,     0000001P0000229
0.19457400E+03,0.17437792E+02,0.00000000E+00,0.19467879E+03,     0000001P0000230
0.17380778E+02,0.00000000E+00,0.19478371E+03,0.17324000E+02,     0000001P0000231
0.00000000E+00,0.19488876E+03,0.17267460E+02,0.00000000E+00,     0000001P0000232
0.19499394E+03,0.17211167E+02,0.00000000E+00,0.19509925E+03,     0000001P0000233
0.17155127E+02,0.00000000E+00,0.19520471E+03,0.17099341E+02,     0000001P0000234
0.00000000E+00,0.19531029E+03,0.17043812E+02,0.00000000E+00,     0000001P0000235
0.19541602E+03,0.16988547E+02,0.00000000E+00,0.19552187E+03,     0000001P0000236
0.16933534E+02,0.00000000E+00,0.19562787E+03,0.16878784E+02,     0000001P0000237
0.00000000E+00,0.19573400E+03,0.16824304E+02,0.00000000E+00,     0000001P0000238
0.19584026E+03,0.16770078E+02,0.00000000E+00,0.19594666E+03,     0000001P0000239
0.16716123E+02,0.00000000E+00,0.19605319E+03,0.16662425E+02,     0000001P0000240
0.00000000E+00,0.19615985E+03,0.16608994E+02,0.00000000E+00,     0000001P0000241
0.19626664E+03,0.16555828E+02,0.00000000E+00,0.19637357E+03,     0000001P0000242
0.16502932E+02,0.00000000E+00,0.19648063E+03,0.16450292E+02,     0000001P0000243
0.00000000E+00,0.19658782E+03,0.16397926E+02,0.00000000E+00,     0000001P0000244
0.19669514E+03,0.16345819E+02,0.00000000E+00,0.19680259E+03,     0000001P0000245
0.16293984E+02,0.00000000E+00,0.19691016E+03,0.16242416E+02,     0000001P0000246
0.00000000E+00,0.19701788E+03,0.16191135E+02,0.00000000E+00,     0000001P0000247
0.19712573E+03,0.16140141E+02,0.00000000E+00,0.19723371E+03,     0000001P0000248
0.16089439E+02,0.00000000E+00,0.19734185E+03,0.16039049E+02,     0000001P0000249
0.00000000E+00,0.19745012E+03,0.15988962E+02,0.00000000E+00,     0000001P0000250
0.19755854E+03,0.15939189E+02,0.00000000E+00,0.19766712E+03,     0000001P0000251
0.15889760E+02,0.00000000E+00,0.19777585E+03,0.15840672E+02,     0000001P0000252
0.00000000E+00,0.19788474E+03,0.15791940E+02,0.00000000E+00,     0000001P0000253
0.19799380E+03,0.15743581E+02,0.00000000E+00,0.19810303E+03,     0000001P0000254
0.15695616E+02,0.00000000E+00,0.19821243E+03,0.15648044E+02,     0000001P0000255
0.00000000E+00,0.19832202E+03,0.15600890E+02,0.00000000E+00,     0000001P0000256
0.19843179E+03,0.15554177E+02,0.00000000E+00,0.19854175E+03,     0000001P0000257
0.15507911E+02,0.00000000E+00,0.19865191E+03,0.15462134E+02,     0000001P0000258
0.00000000E+00,0.19876228E+03,0.15416845E+02,0.00000000E+00,     0000001P0000259
0.19887286E+03,0.15372071E+02,0.00000000E+00,0.19898365E+03,     0000001P0000260
0.15327830E+02,0.00000000E+00,0.19909466E+03,0.15284134E+02,     0000001P0000261
0.00000000E+00,0.19920589E+03,0.15241008E+02,0.00000000E+00,     0000001P0000262
0.19931734E+03,0.15198453E+02,0.00000000E+00,0.19942902E+03,     0000001P0000263
0.15156502E+02,0.00000000E+00,0.19954092E+03,0.15115153E+02,     0000001P0000264
0.00000000E+00,0.19965306E+03,0.15074438E+02,0.00000000E+00,     0000001P0000265
0.19976543E+03,0.15034376E+02,0.00000000E+00,0.19987803E+03,     0000001P0000266
0.14994961E+02,0.00000000E+00,0.19999087E+03,0.14956233E+02,     0000001P0000267
0.00000000E+00,0.20010394E+03,0.14918193E+02,0.00000000E+00,     0000001P0000268
0.20021724E+03,0.14880869E+02,0.00000000E+00,0.20033079E+03,     0000001P0000269
0.14844264E+02,0.00000000E+00,0.20044457E+03,0.14808405E+02,     0000001P0000270
0.00000000E+00,0.20055859E+03,0.14773298E+02,0.00000000E+00,     0000001P0000271
0.20067284E+03,0.14738967E+02,0.00000000E+00,0.20078733E+03,     0000001P0000272
0.14705424E+02,0.00000000E+00,0.20090204E+03,0.14672683E+02,     0000001P0000273
0.00000000E+00,0.20101699E+03,0.14640762E+02,0.00000000E+00,     0000001P0000274
0.20113217E+03,0.14609677E+02,0.00000000E+00,0.20124758E+03,     0000001P0000275
0.14579455E+02,0.00000000E+00,0.20136320E+03,0.14550081E+02,     0000001P0000276
0.00000000E+00,0.20147904E+03,0.14521563E+02,0.00000000E+00,     0000001P0000277
0.20159509E+03,0.14493888E+02,0.00000000E+00,0.20171132E+03,     0000001P0000278
0.14467038E+02,0.00000000E+00,0.20182775E+03,0.14441013E+02,     0000001P0000279
0.00000000E+00,0.20194435E+03,0.14415811E+02,0.00000000E+00,     0000001P0000280
0.20206114E+03,0.14391441E+02,0.00000000E+00,0.20217809E+03,     0000001P0000281
0.14367913E+02,0.00000000E+00,0.20229522E+03,0.14345257E+02,     0000001P0000282
0.00000000E+00,0.20241251E+03,0.14323460E+02,0.00000000E+00,     0000001P0000283
0.20252997E+03,0.14302574E+02,0.00000000E+00,0.20264757E+03,     0000001P0000284
0.14282544E+02,0.00000000E+00,0.20276535E+03,0.14263565E+02,     0000001P0000285
0.00000000E+00,0.20288321E+03,0.14245056E+02,0.00000000E+00,     0000001P0000286
0.20300149E+03,0.14229368E+02,0.00000000E+00,0.20312010E+03,     0000001P0000287
0.14216544E+02,0.00000000E+00,0.20323888E+03,0.14205421E+02,     0000001P0000288
0.00000000E+00,0.20335774E+03,0.14195216E+02,0.00000000E+00,     0000001P0000289
0.20347660E+03,0.14184939E+02,0.00000000E+00,0.20359539E+03,     0000001P0000290
0.14173900E+02,0.00000000E+00,0.20371412E+03,0.14162253E+02,     0000001P0000291
0.00000000E+00,0.20383280E+03,0.14150134E+02,0.00000000E+00,     0000001P0000292
0.20395144E+03,0.14137658E+02,0.00000000E+00,0.20407006E+03,     0000001P0000293
0.14124974E+02,0.00000000E+00,0.20418867E+03,0.14112163E+02,     0000001P0000294
0.00000000E+00,0.20430726E+03,0.14099219E+02,0.00000000E+00,     0000001P0000295
0.20442584E+03,0.14086114E+02,0.00000000E+00,0.20454439E+03,     0000001P0000296
0.14072830E+02,0.00000000E+00,0.20466293E+03,0.14059352E+02,     0000001P0000297
0.00000000E+00,0.20478144E+03,0.14045666E+02,0.00000000E+00,     0000001P0000298
0.20489992E+03,0.14031746E+02,0.00000000E+00,0.20501838E+03,     0000001P0000299
0.14017581E+02,0.00000000E+00,0.20513680E+03,0.14003153E+02,     0000001P0000300
0.00000000E+00,0.20525519E+03,0.13988438E+02,0.00000000E+00,     0000001P0000301
0.20537354E+03,0.13973434E+02,0.00000000E+00,0.20549185E+03,     0000001P0000302
0.13958161E+02,0.00000000E+00,0.20561013E+03,0.13942638E+02,     0000001P0000303
0.00000000E+00,0.20572839E+03,0.13926891E+02,0.00000000E+00,     0000001P0000304
0.20584662E+03,0.13910943E+02,0.00000000E+00,0.20596482E+03,     0000001P0000305
0.13894811E+02,0.00000000E+00,0.20608300E+03,0.13878520E+02,     0000001P0000306
0.00000000E+00,0.20620116E+03,0.13862094E+02,0.00000000E+00,     0000001P0000307
0.20631931E+03,0.13845552E+02,0.00000000E+00,0.20643744E+03,     0000001P0000308
0.13828912E+02,0.00000000E+00,0.20655556E+03,0.13812197E+02,     0000001P0000309
0.00000000E+00,0.20667367E+03,0.13795438E+02,0.00000000E+00,     0000001P0000310
0.20679178E+03,0.13778641E+02,0.00000000E+00,0.20690989E+03,     0000001P0000311
0.13761840E+02,0.00000000E+00,0.20702800E+03,0.13745056E+02,     0000001P0000312
0.00000000E+00,0.20714611E+03,0.13728299E+02,0.00000000E+00,     0000001P0000313
0.20726424E+03,0.13711611E+02,0.00000000E+00,0.20738237E+03,     0000001P0000314
0.13694985E+02,0.00000000E+00,0.20750052E+03,0.13678474E+02,     0000001P0000315
0.00000000E+00,0.20761868E+03,0.13662074E+02,0.00000000E+00,     0000001P0000316
0.20773687E+03,0.13645827E+02,0.00000000E+00,0.20785508E+03,     0000001P0000317
0.13629737E+02,0.00000000E+00,0.20797331E+03,0.13613836E+02,     0000001P0000318
0.00000000E+00,0.20809158E+03,0.13598149E+02,0.00000000E+00,     0000001P0000319
0.20820987E+03,0.13582684E+02,0.00000000E+00,0.20832819E+03,     0000001P0000320
0.13567482E+02,0.00000000E+00,0.20844655E+03,0.13552539E+02,     0000001P0000321
0.00000000E+00,0.20856495E+03,0.13537909E+02,0.00000000E+00,     0000001P0000322
0.20868338E+03,0.13523583E+02,0.00000000E+00,0.20880185E+03,     0000001P0000323
0.13509604E+02,0.00000000E+00,0.20892037E+03,0.13495985E+02,     0000001P0000324
0.00000000E+00,0.20903893E+03,0.13482748E+02,0.00000000E+00,     0000001P0000325
0.20915754E+03,0.13469917E+02,0.00000000E+00,0.20927619E+03,     0000001P0000326
0.13457516E+02,0.00000000E+00,0.20939489E+03,0.13445564E+02,     0000001P0000327
0.00000000E+00,0.20951363E+03,0.13434081E+02,0.00000000E+00,     0000001P0000328
0.20963242E+03,0.13423096E+02,0.00000000E+00,0.20975126E+03,     0000001P0000329
0.13412613E+02,0.00000000E+00,0.20987014E+03,0.13402573E+02,     0000001P0000330
0.00000000E+00,0.20998904E+03,0.13392926E+02,0.00000000E+00,     0000001P0000331
0.21010798E+03,0.13383632E+02,0.00000000E+00,0.21022694E+03,     0000001P0000332
0.13374624E+02,0.00000000E+00,0.21034592E+03,0.13365865E+02,     0000001P0000333
0.00000000E+00,0.21046490E+03,0.13357294E+02,0.00000000E+00,     0000001P0000334
0.21058390E+03,0.13348867E+02,0.00000000E+00,0.21070291E+03,     0000001P0000335
0.13340532E+02,0.00000000E+00,0.21082192E+03,0.13332236E+02,     0000001P0000336
0.00000000E+00,0.21094092E+03,0.13323930E+02,0.00000000E+00,     0000001P0000337
0.21105992E+03,0.13315564E+02,0.00000000E+00,0.21117892E+03,     0000001P0000338
0.13307088E+02,0.00000000E+00,0.21129791E+03,0.13298446E+02,     0000001P0000339
0.00000000E+00,0.21141688E+03,0.13289672E+02,0.00000000E+00,     0000001P0000340
0.21153585E+03,0.13280756E+02,0.00000000E+00,0.21165480E+03,     0000001P0000341
0.13271724E+02,0.00000000E+00,0.21177375E+03,0.13262582E+02,     0000001P0000342
0.00000000E+00,0.21189268E+03,0.13253342E+02,0.00000000E+00,     0000001P0000343
0.21201162E+03,0.13244014E+02,0.00000000E+00,0.21213054E+03,     0000001P0000344
0.13234613E+02,0.00000000E+00,0.21224946E+03,0.13225149E+02,     0000001P0000345
0.00000000E+00,0.21236838E+03,0.13215634E+02,0.00000000E+00,     0000001P0000346
0.21248730E+03,0.13206079E+02,0.00000000E+00,0.21260621E+03,     0000001P0000347
0.13196519E+02,0.00000000E+00,0.21272512E+03,0.13186955E+02,     0000001P0000348
0.00000000E+00,0.21284404E+03,0.13177418E+02,0.00000000E+00,     0000001P0000349
0.21296295E+03,0.13167920E+02,0.00000000E+00,0.21308188E+03,     0000001P0000350
0.13158485E+02,0.00000000E+00,0.21320081E+03,0.13149126E+02,     0000001P0000351
0.00000000E+00,0.21331974E+03,0.13139869E+02,0.00000000E+00,     0000001P0000352
0.21343869E+03,0.13130726E+02,0.00000000E+00,0.21355765E+03,     0000001P0000353
0.13121723E+02,0.00000000E+00,0.21367662E+03,0.13112870E+02,     0000001P0000354
0.00000000E+00,0.21379560E+03,0.13104185E+02,0.00000000E+00,     0000001P0000355
0.21391459E+03,0.13095657E+02,0.00000000E+00,0.21403360E+03,     0000001P0000356
0.13087274E+02,0.00000000E+00,0.21415261E+03,0.13079037E+02,     0000001P0000357
0.00000000E+00,0.21427163E+03,0.13070940E+02,0.00000000E+00,     0000001P0000358
0.21439066E+03,0.13062968E+02,0.00000000E+00,0.21450970E+03,     0000001P0000359
0.13055128E+02,0.00000000E+00,0.21462875E+03,0.13047397E+02,     0000001P0000360
0.00000000E+00,0.21474780E+03,0.13039733E+02,0.00000000E+00,     0000001P0000361
0.21486685E+03,0.13032117E+02,0.00000000E+00,0.21498591E+03,     0000001P0000362
0.13024507E+02,0.00000000E+00,0.21510496E+03,0.13016882E+02,     0000001P0000363
0.00000000E+00,0.21522401E+03,0.13009195E+02,0.00000000E+00,     0000001P0000364
0.21534305E+03,0.13001432E+02,0.00000000E+00,0.21546209E+03,     0000001P0000365
0.12993544E+02,0.00000000E+00,0.21558112E+03,0.12985510E+02,     0000001P0000366
0.00000000E+00,0.21570013E+03,0.12977294E+02,0.00000000E+00,     0000001P0000367
0.21581913E+03,0.12968875E+02,0.00000000E+00,0.21593812E+03,     0000001P0000368
0.12960259E+02,0.00000000E+00,0.21605709E+03,0.12951438E+02,     0000001P0000369
0.00000000E+00,0.21617604E+03,0.12942416E+02,0.00000000E+00,     0000001P0000370
0.21629499E+03,0.12933190E+02,0.00000000E+00,0.21641391E+03,     0000001P0000371
0.12923756E+02,0.00000000E+00,0.21653282E+03,0.12914120E+02,     0000001P0000372
0.00000000E+00,0.21665171E+03,0.12904313E+02,0.00000000E+00,     0000001P0000373
0.21677060E+03,0.12894373E+02,0.00000000E+00,0.21688947E+03,     0000001P0000374
0.12884311E+02,0.00000000E+00,0.21700833E+03,0.12874177E+02,     0000001P0000375
0.00000000E+00,0.21712719E+03,0.12863991E+02,0.00000000E+00,     0000001P0000376
0.21724605E+03,0.12853781E+02,0.00000000E+00,0.21736491E+03,     0000001P0000377
0.12843582E+02,0.00000000E+00,0.21748378E+03,0.12833423E+02,     0000001P0000378
0.00000000E+00,0.21760265E+03,0.12823325E+02,0.00000000E+00,     0000001P0000379
0.21772152E+03,0.12813271E+02,0.00000000E+00,0.21784040E+03,     0000001P0000380
0.12803228E+02,0.00000000E+00,0.21795927E+03,0.12793190E+02,     0000001P0000381
0.00000000E+00,0.21807814E+03,0.12783119E+02,0.00000000E+00,     0000001P0000382
0.21819701E+03,0.12773011E+02,0.00000000E+00,0.21831587E+03,     0000001P0000383
0.12762866E+02,0.00000000E+00,0.21843474E+03,0.12752700E+02,     0000001P0000384
0.00000000E+00,0.21855360E+03,0.12742534E+02,0.00000000E+00,     0000001P0000385
0.21867247E+03,0.12732380E+02,0.00000000E+00,0.21879133E+03,     0000001P0000386
0.12722256E+02,0.00000000E+00,0.21891020E+03,0.12712169E+02,     0000001P0000387
0.00000000E+00,0.21902908E+03,0.12702145E+02,0.00000000E+00,     0000001P0000388
0.21914796E+03,0.12692199E+02,0.00000000E+00,0.21926684E+03,     0000001P0000389
0.12682294E+02,0.00000000E+00,0.21938573E+03,0.12672411E+02,     0000001P0000390
0.00000000E+00,0.21950461E+03,0.12662504E+02,0.00000000E+00,     0000001P0000391
0.21962349E+03,0.12652551E+02,0.00000000E+00,0.21974237E+03,     0000001P0000392
0.12642515E+02,0.00000000E+00,0.21986124E+03,0.12632379E+02,     0000001P0000393
0.00000000E+00,0.21998010E+03,0.12622194E+02,0.00000000E+00,     0000001P0000394
0.22009896E+03,0.12611973E+02,0.00000000E+00,0.22021782E+03,     0000001P0000395
0.12601758E+02,0.00000000E+00,0.22033668E+03,0.12591576E+02,     0000001P0000396
0.00000000E+00,0.22045555E+03,0.12581449E+02,0.00000000E+00,     0000001P0000397
0.22057442E+03,0.12571411E+02,0.00000000E+00,0.22069331E+03,     0000001P0000398
0.12561496E+02,0.00000000E+00,0.22081220E+03,0.12551641E+02,     0000001P0000399
0.00000000E+00,0.22093109E+03,0.12541804E+02,0.00000000E+00,     0000001P0000400
0.22104997E+03,0.12531941E+02,0.00000000E+00,0.22116886E+03,     0000001P0000401
0.12521989E+02,0.00000000E+00,0.22128773E+03,0.12511933E+02,     0000001P0000402
0.00000000E+00,0.22140659E+03,0.12501803E+02,0.00000000E+00,     0000001P0000403
0.22152546E+03,0.12491617E+02,0.00000000E+00,0.22164432E+03,     0000001P0000404
0.12481411E+02,0.00000000E+00,0.22176318E+03,0.12471216E+02,     0000001P0000405
0.00000000E+00,0.22188204E+03,0.12461043E+02,0.00000000E+00,     0000001P0000406
0.22200091E+03,0.12450942E+02,0.00000000E+00,0.22211978E+03,     0000001P0000407
0.12440905E+02,0.00000000E+00,0.22223866E+03,0.12430911E+02,     0000001P0000408
0.00000000E+00,0.22235754E+03,0.12420936E+02,0.00000000E+00,     0000001P0000409
0.22247642E+03,0.12410964E+02,0.00000000E+00,0.22259530E+03,     0000001P0000410
0.12400975E+02,0.00000000E+00,0.22271418E+03,0.12390948E+02,     0000001P0000411
0.00000000E+00,0.22283305E+03,0.12380890E+02,0.00000000E+00,     0000001P0000412
0.22295192E+03,0.12370781E+02,0.00000000E+00,0.22307078E+03,     0000001P0000413
0.12360612E+02,0.00000000E+00,0.22318964E+03,0.12350388E+02,     0000001P0000414
0.00000000E+00,0.22330849E+03,0.12340077E+02,0.00000000E+00,     0000001P0000415
0.22342733E+03,0.12329728E+02,0.00000000E+00,0.22354619E+03,     0000001P0000416
0.12319485E+02,0.00000000E+00,0.22366507E+03,0.12309488E+02,     0000001P0000417
0.00000000E+00,0.22378398E+03,0.12299901E+02,0.00000000E+00,     0000001P0000418
0.22390294E+03,0.12290810E+02,0.00000000E+00,0.22402190E+03,     0000001P0000419
0.12281871E+02,0.00000000E+00,0.22414084E+03,0.12272735E+02,     0000001P0000420
0.00000000E+00,0.22425975E+03,0.12263087E+02,0.00000000E+00,     0000001P0000421
0.22437859E+03,0.12252580E+02,0.00000000E+00,0.22449731E+03,     0000001P0000422
0.12240883E+02,0.00000000E+00,0.22461588E+03,0.12227644E+02,     0000001P0000423
0.00000000E+00,0.22473432E+03,0.12213341E+02,0.00000000E+00,     0000001P0000424
0.22485269E+03,0.12198475E+02,0.00000000E+00,0.22497105E+03,     0000001P0000425
0.12183548E+02,0.00000000E+00,0.22508946E+03,0.12169059E+02,     0000001P0000426
0.00000000E+00,0.22520799E+03,0.12155509E+02,0.00000000E+00,     0000001P0000427
0.22532668E+03,0.12143415E+02,0.00000000E+00,0.22544555E+03,     0000001P0000428
0.12133202E+02,0.00000000E+00,0.22556452E+03,0.12124355E+02,     0000001P0000429
0.00000000E+00,0.22568355E+03,0.12116431E+02,0.00000000E+00,     0000001P0000430
0.22580262E+03,0.12108956E+02,0.00000000E+00,0.22592168E+03,     0000001P0000431
0.12101497E+02,0.00000000E+00,0.22604071E+03,0.12093509E+02,     0000001P0000432
0.00000000E+00,0.22615971E+03,0.12085023E+02,0.00000000E+00,     0000001P0000433
0.22627868E+03,0.12076278E+02,0.00000000E+00,0.22639765E+03,     0000001P0000434
0.12067460E+02,0.00000000E+00,0.22651664E+03,0.12058798E+02,     0000001P0000435
0.00000000E+00,0.22663563E+03,0.12050280E+02,0.00000000E+00,     0000001P0000436
0.22675463E+03,0.12041847E+02,0.00000000E+00,0.22687363E+03,     0000001P0000437
0.12033471E+02,0.00000000E+00,0.22699263E+03,0.12025096E+02,     0000001P0000438
0.00000000E+00,0.22711164E+03,0.12016685E+02,0.00000000E+00,     0000001P0000439
0.22723063E+03,0.12008197E+02,0.00000000E+00,0.22734963E+03,     0000001P0000440
0.11999637E+02,0.00000000E+00,0.22746861E+03,0.11991045E+02,     0000001P0000441
0.00000000E+00,0.22758760E+03,0.11982439E+02,0.00000000E+00,     0000001P0000442
0.22770659E+03,0.11973850E+02,0.00000000E+00,0.22782558E+03,     0000001P0000443
0.11965281E+02,0.00000000E+00,0.22794456E+03,0.11956739E+02,     0000001P0000444
0.00000000E+00,0.22806355E+03,0.11948210E+02,0.00000000E+00,     0000001P0000445
0.22818255E+03,0.11939702E+02,0.00000000E+00,0.22830154E+03,     0000001P0000446
0.11931205E+02,0.00000000E+00,0.22842054E+03,0.11922720E+02,     0000001P0000447
0.00000000E+00,0.22853953E+03,0.11914235E+02,0.00000000E+00,     0000001P0000448
0.22865852E+03,0.11905720E+02,0.00000000E+00,0.22877751E+03,     0000001P0000449
0.11897175E+02,0.00000000E+00,0.22889650E+03,0.11888565E+02,     0000001P0000450
0.00000000E+00,0.22901549E+03,0.11879942E+02,0.00000000E+00,     0000001P0000451
0.22913447E+03,0.11871340E+02,0.00000000E+00,0.22925346E+03,     0000001P0000452
0.11862799E+02,0.00000000E+00,0.22937246E+03,0.11854353E+02,     0000001P0000453
0.00000000E+00,0.22949147E+03,0.11846050E+02,0.00000000E+00,     0000001P0000454
0.22961049E+03,0.11837919E+02,0.00000000E+00,0.22972953E+03,     0000001P0000455
0.11830010E+02,0.00000000E+00,0.22984858E+03,0.11822352E+02,     0000001P0000456
0.00000000E+00,0.22996765E+03,0.11814996E+02,0.00000000E+00,     0000001P0000457
0.23008674E+03,0.11807976E+02,0.00000000E+00,0.23020585E+03,     0000001P0000458
0.11801337E+02,0.00000000E+00,0.23032499E+03,0.11795116E+02,     0000001P0000459
0.00000000E+00,0.23044415E+03,0.11789364E+02,0.00000000E+00,     0000001P0000460
0.23056333E+03,0.11783991E+02,0.00000000E+00,0.23068251E+03,     0000001P0000461
0.11778863E+02,0.00000000E+00,0.23080171E+03,0.11773853E+02,     0000001P0000462
0.00000000E+00,0.23092090E+03,0.11768846E+02,0.00000000E+00,     0000001P0000463
0.23104009E+03,0.11763694E+02,0.00000000E+00,0.23115927E+03,     0000001P0000464
0.11758371E+02,0.00000000E+00,0.23127844E+03,0.11752984E+02,     0000001P0000465
0.00000000E+00,0.23139762E+03,0.11747625E+02,0.00000000E+00,     0000001P0000466
0.23151680E+03,0.11742376E+02,0.00000000E+00,0.23163598E+03,     0000001P0000467
0.11737203E+02,0.00000000E+00,0.23175517E+03,0.11732079E+02,     0000001P0000468
0.00000000E+00,0.23187436E+03,0.11726965E+02,0.00000000E+00,     0000001P0000469
0.23199355E+03,0.11721833E+02,0.00000000E+00,0.23211273E+03,     0000001P0000470
0.11716656E+02,0.00000000E+00,0.23223191E+03,0.11711396E+02,     0000001P0000471
0.00000000E+00,0.23235109E+03,0.11706022E+02,0.00000000E+00,     0000001P0000472
0.23247026E+03,0.11700603E+02,0.00000000E+00,0.23258944E+03,     0000001P0000473
0.11695197E+02,0.00000000E+00,0.23270862E+03,0.11689893E+02,     0000001P0000474
0.00000000E+00,0.23282780E+03,0.11684678E+02,0.00000000E+00,     0000001P0000475
0.23294699E+03,0.11679511E+02,0.00000000E+00,0.23306618E+03,     0000001P0000476
0.11674374E+02,0.00000000E+00,0.23318536E+03,0.11669229E+02,     0000001P0000477
0.00000000E+00,0.23330454E+03,0.11664052E+02,0.00000000E+00,     0000001P0000478
0.23342372E+03,0.11658831E+02,0.00000000E+00,0.23354290E+03,     0000001P0000479
0.11653566E+02,0.00000000E+00,0.23366208E+03,0.11648236E+02,     0000001P0000480
0.00000000E+00,0.23378126E+03,0.11642862E+02,0.00000000E+00,     0000001P0000481
0.23390044E+03,0.11637457E+02,0.00000000E+00,0.23401961E+03,     0000001P0000482
0.11632052E+02,0.00000000E+00,0.23413879E+03,0.11626666E+02,     0000001P0000483
0.00000000E+00,0.23425797E+03,0.11621321E+02,0.00000000E+00,     0000001P0000484
0.23437715E+03,0.11616048E+02,0.00000000E+00,0.23449633E+03,     0000001P0000485
0.11610844E+02,0.00000000E+00,0.23461551E+03,0.11605684E+02,     0000001P0000486
0.00000000E+00,0.23473470E+03,0.11600538E+02,0.00000000E+00,     0000001P0000487
0.23485388E+03,0.11595375E+02,0.00000000E+00,0.23497307E+03,     0000001P0000488
0.11590170E+02,0.00000000E+00,0.23509225E+03,0.11584894E+02,     0000001P0000489
0.00000000E+00,0.23521143E+03,0.11579523E+02,0.00000000E+00,     0000001P0000490
0.23533060E+03,0.11573999E+02,0.00000000E+00,0.23544977E+03,     0000001P0000491
0.11568470E+02,0.00000000E+00,0.23556895E+03,0.11563259E+02,     0000001P0000492
0.00000000E+00,0.23568816E+03,0.11558638E+02,0.00000000E+00,     0000001P0000493
0.23580740E+03,0.11554930E+02,0.00000000E+00,0.23592667E+03,     0000001P0000494
0.11552203E+02,0.00000000E+00,0.23604596E+03,0.11550480E+02,     0000001P0000495
0.00000000E+00,0.23616526E+03,0.11549802E+02,0.00000000E+00,     0000001P0000496
0.23628456E+03,0.11550158E+02,0.00000000E+00,0.23640385E+03,     0000001P0000497
0.11550981E+02,0.00000000E+00,0.23652315E+03,0.11551916E+02,     0000001P0000498
0.00000000E+00,0.23664245E+03,0.11551959E+02,0.00000000E+00,     0000001P0000499
0.23680149E+03,0.11555117E+02,0.00000000E+00,0.23692068E+03,     0000001P0000500
0.11560712E+02,0.00000000E+00,0.23700005E+03,0.11565844E+02,     0000001P0000501
0.00000000E+00,0.00000000E+00,0.10000000E+01,0.00000000E+00,     0000001P0000502
0.00000000E+00,0.00000000E+00;                                   0000001P0000503
S0000001G0000003D0000002P0000503                                        T0000001
