                                                                        S      1
1H,,1H;,1H ,1H ,1H ,12HDT_NURBS 1.0,32,38,7,307,16,1H ,0.10000000E+01,  G0000001
1,2HIN,1,0.33330000E-02,1H ,0.10000000E-05,0.10000000E+06,1H ,1H ,9,0,  G0000002
1H ;                                                                    G0000003
     126       1       0       0       0       0       0       000000000D0000001
     126       0       0     503       0                A Surfac       0D0000002
126,399,3,0,0,1,0,0.00000000E+00,0.00000000E+00,0.00000000E+00,  0000001P0000001
0.00000000E+00,0.50125114E-02,0.75187789E-02,0.10025079E-01,     0000001P0000002
0.12531331E-01,0.15037563E-01,0.17543814E-01,0.20050036E-01,     0000001P0000003
0.22556337E-01,0.25062601E-01,0.27568848E-01,0.30075086E-01,     0000001P0000004
0.32581333E-01,0.35087605E-01,0.37593867E-01,0.40100135E-01,     0000001P0000005
0.42606382E-01,0.45112626E-01,0.47618832E-01,0.50125091E-01,     0000001P0000006
0.52631365E-01,0.55137666E-01,0.57643921E-01,0.60150184E-01,     0000001P0000007
0.62656447E-01,0.65162693E-01,0.67668915E-01,0.70175165E-01,     0000001P0000008
0.72681428E-01,0.75187693E-01,0.77693946E-01,0.80200250E-01,     0000001P0000009
0.82706526E-01,0.85212767E-01,0.87719038E-01,0.90225318E-01,     0000001P0000010
0.92731609E-01,0.95237829E-01,0.97744057E-01,0.10025036E+00,     0000001P0000011
0.10275665E+00,0.10526295E+00,0.10776917E+00,0.11027538E+00,     0000001P0000012
0.11278161E+00,0.11528791E+00,0.11779423E+00,0.12030051E+00,     0000001P0000013
0.12280677E+00,0.12531300E+00,0.12781930E+00,0.13032558E+00,     0000001P0000014
0.13283187E+00,0.13533810E+00,0.13784436E+00,0.14035060E+00,     0000001P0000015
0.14285691E+00,0.14536313E+00,0.14786944E+00,0.15037571E+00,     0000001P0000016
0.15288202E+00,0.15538823E+00,0.15789443E+00,0.16040065E+00,     0000001P0000017
0.16290691E+00,0.16541324E+00,0.16791950E+00,0.17042575E+00,     0000001P0000018
0.17293197E+00,0.17543830E+00,0.17794463E+00,0.18045087E+00,     0000001P0000019
0.18295711E+00,0.18546332E+00,0.18796959E+00,0.19047585E+00,     0000001P0000020
0.19298214E+00,0.19548844E+00,0.19799465E+00,0.20050094E+00,     0000001P0000021
0.20300723E+00,0.20551357E+00,0.20801981E+00,0.21052603E+00,     0000001P0000022
0.21303223E+00,0.21553846E+00,0.21804476E+00,0.22055102E+00,     0000001P0000023
0.22305730E+00,0.22556358E+00,0.22806989E+00,0.23057612E+00,     0000001P0000024
0.23308232E+00,0.23558855E+00,0.23809490E+00,0.24060124E+00,     0000001P0000025
0.24310747E+00,0.24561367E+00,0.24811988E+00,0.25062618E+00,     0000001P0000026
0.25313246E+00,0.25563871E+00,0.25814495E+00,0.26065119E+00,     0000001P0000027
0.26315742E+00,0.26566375E+00,0.26817007E+00,0.27067636E+00,     0000001P0000028
0.27318260E+00,0.27568885E+00,0.27819518E+00,0.28070144E+00,     0000001P0000029
0.28320779E+00,0.28571409E+00,0.28822040E+00,0.29072668E+00,     0000001P0000030
0.29323289E+00,0.29573917E+00,0.29824539E+00,0.30075169E+00,     0000001P0000031
0.30325796E+00,0.30576422E+00,0.30827049E+00,0.31077670E+00,     0000001P0000032
0.31328298E+00,0.31578922E+00,0.31829550E+00,0.32080184E+00,     0000001P0000033
0.32330814E+00,0.32581447E+00,0.32832071E+00,0.33082701E+00,     0000001P0000034
0.33333328E+00,0.33583958E+00,0.33834583E+00,0.34085207E+00,     0000001P0000035
0.34335835E+00,0.34586466E+00,0.34837102E+00,0.35087726E+00,     0000001P0000036
0.35338358E+00,0.35588980E+00,0.35839613E+00,0.36090241E+00,     0000001P0000037
0.36340872E+00,0.36591508E+00,0.36842138E+00,0.37092773E+00,     0000001P0000038
0.37343398E+00,0.37594031E+00,0.37844661E+00,0.38095299E+00,     0000001P0000039
0.38345927E+00,0.38596561E+00,0.38847185E+00,0.39097821E+00,     0000001P0000040
0.39348443E+00,0.39599069E+00,0.39849692E+00,0.40100327E+00,     0000001P0000041
0.40350954E+00,0.40601581E+00,0.40852202E+00,0.41102828E+00,     0000001P0000042
0.41353454E+00,0.41604080E+00,0.41854710E+00,0.42105333E+00,     0000001P0000043
0.42355963E+00,0.42606591E+00,0.42857218E+00,0.43107844E+00,     0000001P0000044
0.43358471E+00,0.43609098E+00,0.43859718E+00,0.44110339E+00,     0000001P0000045
0.44360961E+00,0.44611586E+00,0.44862213E+00,0.45112843E+00,     0000001P0000046
0.45363475E+00,0.45614100E+00,0.45864727E+00,0.46115346E+00,     0000001P0000047
0.46365968E+00,0.46616592E+00,0.46867219E+00,0.47117845E+00,     0000001P0000048
0.47368469E+00,0.47619095E+00,0.47869725E+00,0.48120354E+00,     0000001P0000049
0.48370985E+00,0.48621610E+00,0.48872229E+00,0.49122855E+00,     0000001P0000050
0.49373479E+00,0.49624105E+00,0.49874724E+00,0.50125349E+00,     0000001P0000051
0.50375982E+00,0.50626607E+00,0.50877233E+00,0.51127854E+00,     0000001P0000052
0.51378485E+00,0.51629108E+00,0.51879732E+00,0.52130354E+00,     0000001P0000053
0.52380979E+00,0.52631611E+00,0.52882241E+00,0.53132869E+00,     0000001P0000054
0.53383498E+00,0.53634125E+00,0.53884751E+00,0.54135377E+00,     0000001P0000055
0.54386004E+00,0.54636633E+00,0.54887257E+00,0.55137878E+00,     0000001P0000056
0.55388498E+00,0.55639123E+00,0.55889754E+00,0.56140388E+00,     0000001P0000057
0.56391016E+00,0.56641638E+00,0.56892262E+00,0.57142889E+00,     0000001P0000058
0.57393513E+00,0.57644139E+00,0.57894756E+00,0.58145385E+00,     0000001P0000059
0.58396009E+00,0.58646642E+00,0.58897270E+00,0.59147894E+00,     0000001P0000060
0.59398517E+00,0.59649142E+00,0.59899772E+00,0.60150398E+00,     0000001P0000061
0.60401023E+00,0.60651652E+00,0.60902286E+00,0.61152913E+00,     0000001P0000062
0.61403532E+00,0.61654152E+00,0.61904780E+00,0.62155413E+00,     0000001P0000063
0.62406040E+00,0.62656667E+00,0.62907291E+00,0.63157919E+00,     0000001P0000064
0.63408542E+00,0.63659161E+00,0.63909783E+00,0.64160408E+00,     0000001P0000065
0.64411034E+00,0.64661662E+00,0.64912286E+00,0.65162912E+00,     0000001P0000066
0.65413543E+00,0.65664177E+00,0.65914808E+00,0.66165432E+00,     0000001P0000067
0.66416064E+00,0.66666696E+00,0.66917329E+00,0.67167957E+00,     0000001P0000068
0.67418581E+00,0.67669208E+00,0.67919834E+00,0.68170457E+00,     0000001P0000069
0.68421079E+00,0.68671704E+00,0.68922328E+00,0.69172957E+00,     0000001P0000070
0.69423581E+00,0.69674214E+00,0.69924839E+00,0.70175466E+00,     0000001P0000071
0.70426094E+00,0.70676724E+00,0.70927354E+00,0.71177980E+00,     0000001P0000072
0.71428600E+00,0.71679228E+00,0.71929856E+00,0.72180485E+00,     0000001P0000073
0.72431113E+00,0.72681739E+00,0.72932369E+00,0.73182991E+00,     0000001P0000074
0.73433619E+00,0.73684245E+00,0.73934869E+00,0.74185494E+00,     0000001P0000075
0.74436120E+00,0.74686752E+00,0.74937371E+00,0.75188000E+00,     0000001P0000076
0.75438620E+00,0.75689250E+00,0.75939869E+00,0.76190496E+00,     0000001P0000077
0.76441121E+00,0.76691749E+00,0.76942376E+00,0.77193002E+00,     0000001P0000078
0.77443626E+00,0.77694250E+00,0.77944882E+00,0.78195511E+00,     0000001P0000079
0.78446137E+00,0.78696759E+00,0.78947388E+00,0.79198018E+00,     0000001P0000080
0.79448650E+00,0.79699277E+00,0.79949908E+00,0.80200528E+00,     0000001P0000081
0.80451153E+00,0.80701779E+00,0.80952404E+00,0.81203029E+00,     0000001P0000082
0.81453651E+00,0.81704285E+00,0.81954911E+00,0.82205536E+00,     0000001P0000083
0.82456160E+00,0.82706790E+00,0.82957423E+00,0.83208048E+00,     0000001P0000084
0.83458675E+00,0.83709300E+00,0.83959929E+00,0.84210558E+00,     0000001P0000085
0.84461178E+00,0.84711798E+00,0.84962417E+00,0.85213046E+00,     0000001P0000086
0.85463675E+00,0.85714303E+00,0.85964932E+00,0.86215561E+00,     0000001P0000087
0.86466188E+00,0.86716818E+00,0.86967445E+00,0.87218071E+00,     0000001P0000088
0.87468695E+00,0.87719316E+00,0.87969936E+00,0.88220557E+00,     0000001P0000089
0.88471191E+00,0.88721826E+00,0.88972452E+00,0.89223073E+00,     0000001P0000090
0.89473698E+00,0.89724334E+00,0.89974960E+00,0.90225583E+00,     0000001P0000091
0.90476204E+00,0.90726833E+00,0.90977461E+00,0.91228091E+00,     0000001P0000092
0.91478715E+00,0.91729345E+00,0.91979969E+00,0.92230593E+00,     0000001P0000093
0.92481214E+00,0.92731839E+00,0.92982469E+00,0.93233098E+00,     0000001P0000094
0.93483729E+00,0.93734354E+00,0.93984981E+00,0.94235600E+00,     0000001P0000095
0.94486227E+00,0.94736850E+00,0.94987480E+00,0.95238108E+00,     0000001P0000096
0.95488738E+00,0.95739364E+00,0.95989986E+00,0.96240609E+00,     0000001P0000097
0.96491239E+00,0.96741873E+00,0.96992493E+00,0.97243113E+00,     0000001P0000098
0.97493736E+00,0.97744370E+00,0.97994993E+00,0.98245616E+00,     0000001P0000099
0.98496239E+00,0.98746871E+00,0.98997495E+00,0.99248120E+00,     0000001P0000100
0.99498742E+00,0.10000000E+01,0.10000000E+01,0.10000000E+01,     0000001P0000101
0.10000000E+01,0.10000000E+01,0.10000000E+01,0.10000000E+01,     0000001P0000102
0.10000000E+01,0.10000000E+01,0.10000000E+01,0.10000000E+01,     0000001P0000103
0.10000000E+01,0.10000000E+01,0.10000000E+01,0.10000000E+01,     0000001P0000104
0.10000000E+01,0.10000000E+01,0.10000000E+01,0.10000000E+01,     0000001P0000105
0.10000000E+01,0.10000000E+01,0.10000000E+01,0.10000000E+01,     0000001P0000106
0.10000000E+01,0.10000000E+01,0.10000000E+01,0.10000000E+01,     0000001P0000107
0.10000000E+01,0.10000000E+01,0.10000000E+01,0.10000000E+01,     0000001P0000108
0.10000000E+01,0.10000000E+01,0.10000000E+01,0.10000000E+01,     0000001P0000109
0.10000000E+01,0.10000000E+01,0.10000000E+01,0.10000000E+01,     0000001P0000110
0.10000000E+01,0.10000000E+01,0.10000000E+01,0.10000000E+01,     0000001P0000111
0.10000000E+01,0.10000000E+01,0.10000000E+01,0.10000000E+01,     0000001P0000112
0.10000000E+01,0.10000000E+01,0.10000000E+01,0.10000000E+01,     0000001P0000113
0.10000000E+01,0.10000000E+01,0.10000000E+01,0.10000000E+01,     0000001P0000114
0.10000000E+01,0.10000000E+01,0.10000000E+01,0.10000000E+01,     0000001P0000115
0.10000000E+01,0.10000000E+01,0.10000000E+01,0.10000000E+01,     0000001P0000116
0.10000000E+01,0.10000000E+01,0.10000000E+01,0.10000000E+01,     0000001P0000117
0.10000000E+01,0.10000000E+01,0.10000000E+01,0.10000000E+01,     0000001P0000118
0.10000000E+01,0.10000000E+01,0.10000000E+01,0.10000000E+01,     0000001P0000119
0.10000000E+01,0.10000000E+01,0.10000000E+01,0.10000000E+01,     0000001P0000120
0.10000000E+01,0.10000000E+01,0.10000000E+01,0.10000000E+01,     0000001P0000121
0.10000000E+01,0.10000000E+01,0.10000000E+01,0.10000000E+01,     0000001P0000122
0.10000000E+01,0.10000000E+01,0.10000000E+01,0.10000000E+01,     0000001P0000123
0.10000000E+01,0.10000000E+01,0.10000000E+01,0.10000000E+01,     0000001P0000124
0.10000000E+01,0.10000000E+01,0.10000000E+01,0.10000000E+01,     0000001P0000125
0.10000000E+01,0.10000000E+01,0.10000000E+01,0.10000000E+01,     0000001P0000126
0.10000000E+01,0.10000000E+01,0.10000000E+01,0.10000000E+01,     0000001P0000127
0.10000000E+01,0.10000000E+01,0.10000000E+01,0.10000000E+01,     0000001P0000128
0.10000000E+01,0.10000000E+01,0.10000000E+01,0.10000000E+01,     0000001P0000129
0.10000000E+01,0.10000000E+01,0.10000000E+01,0.10000000E+01,     0000001P0000130
0.10000000E+01,0.10000000E+01,0.10000000E+01,0.10000000E+01,     0000001P0000131
0.10000000E+01,0.10000000E+01,0.10000000E+01,0.10000000E+01,     0000001P0000132
0.10000000E+01,0.10000000E+01,0.10000000E+01,0.10000000E+01,     0000001P0000133
0.10000000E+01,0.10000000E+01,0.10000000E+01,0.10000000E+01,     0000001P0000134
0.10000000E+01,0.10000000E+01,0.10000000E+01,0.10000000E+01,     0000001P0000135
0.10000000E+01,0.10000000E+01,0.10000000E+01,0.10000000E+01,     0000001P0000136
0.10000000E+01,0.10000000E+01,0.10000000E+01,0.10000000E+01,     0000001P0000137
0.10000000E+01,0.10000000E+01,0.10000000E+01,0.10000000E+01,     0000001P0000138
0.10000000E+01,0.10000000E+01,0.10000000E+01,0.10000000E+01,     0000001P0000139
0.10000000E+01,0.10000000E+01,0.10000000E+01,0.10000000E+01,     0000001P0000140
0.10000000E+01,0.10000000E+01,0.10000000E+01,0.10000000E+01,     0000001P0000141
0.10000000E+01,0.10000000E+01,0.10000000E+01,0.10000000E+01,     0000001P0000142
0.10000000E+01,0.10000000E+01,0.10000000E+01,0.10000000E+01,     0000001P0000143
0.10000000E+01,0.10000000E+01,0.10000000E+01,0.10000000E+01,     0000001P0000144
0.10000000E+01,0.10000000E+01,0.10000000E+01,0.10000000E+01,     0000001P0000145
0.10000000E+01,0.10000000E+01,0.10000000E+01,0.10000000E+01,     0000001P0000146
0.10000000E+01,0.10000000E+01,0.10000000E+01,0.10000000E+01,     0000001P0000147
0.10000000E+01,0.10000000E+01,0.10000000E+01,0.10000000E+01,     0000001P0000148
0.10000000E+01,0.10000000E+01,0.10000000E+01,0.10000000E+01,     0000001P0000149
0.10000000E+01,0.10000000E+01,0.10000000E+01,0.10000000E+01,     0000001P0000150
0.10000000E+01,0.10000000E+01,0.10000000E+01,0.10000000E+01,     0000001P0000151
0.10000000E+01,0.10000000E+01,0.10000000E+01,0.10000000E+01,     0000001P0000152
0.10000000E+01,0.10000000E+01,0.10000000E+01,0.10000000E+01,     0000001P0000153
0.10000000E+01,0.10000000E+01,0.10000000E+01,0.10000000E+01,     0000001P0000154
0.10000000E+01,0.10000000E+01,0.10000000E+01,0.10000000E+01,     0000001P0000155
0.10000000E+01,0.10000000E+01,0.10000000E+01,0.10000000E+01,     0000001P0000156
0.10000000E+01,0.10000000E+01,0.10000000E+01,0.10000000E+01,     0000001P0000157
0.10000000E+01,0.10000000E+01,0.10000000E+01,0.10000000E+01,     0000001P0000158
0.10000000E+01,0.10000000E+01,0.10000000E+01,0.10000000E+01,     0000001P0000159
0.10000000E+01,0.10000000E+01,0.10000000E+01,0.10000000E+01,     0000001P0000160
0.10000000E+01,0.10000000E+01,0.10000000E+01,0.10000000E+01,     0000001P0000161
0.10000000E+01,0.10000000E+01,0.10000000E+01,0.10000000E+01,     0000001P0000162
0.10000000E+01,0.10000000E+01,0.10000000E+01,0.10000000E+01,     0000001P0000163
0.10000000E+01,0.10000000E+01,0.10000000E+01,0.10000000E+01,     0000001P0000164
0.10000000E+01,0.10000000E+01,0.10000000E+01,0.10000000E+01,     0000001P0000165
0.10000000E+01,0.10000000E+01,0.10000000E+01,0.10000000E+01,     0000001P0000166
0.10000000E+01,0.10000000E+01,0.10000000E+01,0.10000000E+01,     0000001P0000167
0.10000000E+01,0.10000000E+01,0.10000000E+01,0.10000000E+01,     0000001P0000168
0.10000000E+01,0.10000000E+01,0.10000000E+01,0.10000000E+01,     0000001P0000169
0.10000000E+01,0.10000000E+01,0.10000000E+01,0.10000000E+01,     0000001P0000170
0.10000000E+01,0.10000000E+01,0.10000000E+01,0.10000000E+01,     0000001P0000171
0.10000000E+01,0.10000000E+01,0.10000000E+01,0.10000000E+01,     0000001P0000172
0.10000000E+01,0.10000000E+01,0.10000000E+01,0.10000000E+01,     0000001P0000173
0.10000000E+01,0.10000000E+01,0.10000000E+01,0.10000000E+01,     0000001P0000174
0.10000000E+01,0.10000000E+01,0.10000000E+01,0.10000000E+01,     0000001P0000175
0.10000000E+01,0.10000000E+01,0.10000000E+01,0.10000000E+01,     0000001P0000176
0.10000000E+01,0.10000000E+01,0.10000000E+01,0.10000000E+01,     0000001P0000177
0.10000000E+01,0.10000000E+01,0.10000000E+01,0.10000000E+01,     0000001P0000178
0.10000000E+01,0.10000000E+01,0.10000000E+01,0.10000000E+01,     0000001P0000179
0.10000000E+01,0.10000000E+01,0.10000000E+01,0.10000000E+01,     0000001P0000180
0.10000000E+01,0.10000000E+01,0.10000000E+01,0.10000000E+01,     0000001P0000181
0.10000000E+01,0.10000000E+01,0.10000000E+01,0.10000000E+01,     0000001P0000182
0.10000000E+01,0.10000000E+01,0.10000000E+01,0.10000000E+01,     0000001P0000183
0.10000000E+01,0.10000000E+01,0.10000000E+01,0.10000000E+01,     0000001P0000184
0.10000000E+01,0.10000000E+01,0.10000000E+01,0.10000000E+01,     0000001P0000185
0.10000000E+01,0.10000000E+01,0.10000000E+01,0.10000000E+01,     0000001P0000186
0.10000000E+01,0.10000000E+01,0.10000000E+01,0.10000000E+01,     0000001P0000187
0.10000000E+01,0.10000000E+01,0.10000000E+01,0.10000000E+01,     0000001P0000188
0.10000000E+01,0.10000000E+01,0.10000000E+01,0.10000000E+01,     0000001P0000189
0.10000000E+01,0.10000000E+01,0.10000000E+01,0.10000000E+01,     0000001P0000190
0.10000000E+01,0.10000000E+01,0.10000000E+01,0.10000000E+01,     0000001P0000191
0.10000000E+01,0.10000000E+01,0.10000000E+01,0.10000000E+01,     0000001P0000192
0.10000000E+01,0.10000000E+01,0.10000000E+01,0.10000000E+01,     0000001P0000193
0.10000000E+01,0.10000000E+01,0.10000000E+01,0.10000000E+01,     0000001P0000194
0.10000000E+01,0.10000000E+01,0.10000000E+01,0.10000000E+01,     0000001P0000195
0.10000000E+01,0.10000000E+01,0.10000000E+01,0.10000000E+01,     0000001P0000196
0.10000000E+01,0.10000000E+01,0.10000000E+01,0.10000000E+01,     0000001P0000197
0.10000000E+01,0.10000000E+01,0.10000000E+01,0.10000000E+01,     0000001P0000198
0.10000000E+01,0.10000000E+01,0.10000000E+01,0.10000000E+01,     0000001P0000199
0.10000000E+01,0.10000000E+01,0.10000000E+01,0.10000000E+01,     0000001P0000200
0.10000000E+01,0.10000000E+01,0.10000000E+01,0.10000000E+01,     0000001P0000201
0.10000000E+01,0.18775247E+03,0.15993926E+02,0.00000000E+00,     0000001P0000202
0.18781596E+03,0.15933148E+02,0.00000000E+00,0.18791110E+03,     0000001P0000203
0.15841880E+02,0.00000000E+00,0.18803778E+03,0.15720017E+02,     0000001P0000204
0.00000000E+00,0.18813270E+03,0.15628527E+02,0.00000000E+00,     0000001P0000205
0.18822756E+03,0.15536976E+02,0.00000000E+00,0.18832237E+03,     0000001P0000206
0.15445363E+02,0.00000000E+00,0.18841711E+03,0.15353686E+02,     0000001P0000207
0.00000000E+00,0.18851182E+03,0.15261979E+02,0.00000000E+00,     0000001P0000208
0.18860648E+03,0.15170220E+02,0.00000000E+00,0.18870113E+03,     0000001P0000209
0.15078447E+02,0.00000000E+00,0.18879575E+03,0.14986644E+02,     0000001P0000210
0.00000000E+00,0.18889035E+03,0.14894825E+02,0.00000000E+00,     0000001P0000211
0.18898497E+03,0.14803023E+02,0.00000000E+00,0.18907959E+03,     0000001P0000212
0.14711217E+02,0.00000000E+00,0.18917422E+03,0.14619430E+02,     0000001P0000213
0.00000000E+00,0.18926888E+03,0.14527671E+02,0.00000000E+00,     0000001P0000214
0.18936358E+03,0.14435949E+02,0.00000000E+00,0.18945830E+03,     0000001P0000215
0.14344255E+02,0.00000000E+00,0.18955309E+03,0.14252629E+02,     0000001P0000216
0.00000000E+00,0.18964792E+03,0.14161046E+02,0.00000000E+00,     0000001P0000217
0.18974283E+03,0.14069541E+02,0.00000000E+00,0.18983781E+03,     0000001P0000218
0.13978112E+02,0.00000000E+00,0.18993288E+03,0.13886767E+02,     0000001P0000219
0.00000000E+00,0.19002803E+03,0.13795515E+02,0.00000000E+00,     0000001P0000220
0.19012330E+03,0.13704392E+02,0.00000000E+00,0.19021868E+03,     0000001P0000221
0.13613381E+02,0.00000000E+00,0.19031419E+03,0.13522501E+02,     0000001P0000222
0.00000000E+00,0.19040984E+03,0.13431778E+02,0.00000000E+00,     0000001P0000223
0.19050565E+03,0.13341216E+02,0.00000000E+00,0.19060161E+03,     0000001P0000224
0.13250817E+02,0.00000000E+00,0.19069775E+03,0.13160611E+02,     0000001P0000225
0.00000000E+00,0.19079408E+03,0.13070599E+02,0.00000000E+00,     0000001P0000226
0.19089061E+03,0.12980801E+02,0.00000000E+00,0.19098733E+03,     0000001P0000227
0.12891218E+02,0.00000000E+00,0.19108427E+03,0.12801867E+02,     0000001P0000228
0.00000000E+00,0.19118145E+03,0.12712777E+02,0.00000000E+00,     0000001P0000229
0.19127886E+03,0.12623940E+02,0.00000000E+00,0.19137651E+03,     0000001P0000230
0.12535374E+02,0.00000000E+00,0.19147443E+03,0.12447097E+02,     0000001P0000231
0.00000000E+00,0.19157262E+03,0.12359118E+02,0.00000000E+00,     0000001P0000232
0.19167109E+03,0.12271464E+02,0.00000000E+00,0.19176985E+03,     0000001P0000233
0.12184121E+02,0.00000000E+00,0.19186891E+03,0.12097129E+02,     0000001P0000234
0.00000000E+00,0.19196827E+03,0.12010486E+02,0.00000000E+00,     0000001P0000235
0.19206796E+03,0.11924212E+02,0.00000000E+00,0.19216797E+03,     0000001P0000236
0.11838321E+02,0.00000000E+00,0.19226834E+03,0.11752837E+02,     0000001P0000237
0.00000000E+00,0.19236905E+03,0.11667754E+02,0.00000000E+00,     0000001P0000238
0.19247011E+03,0.11583092E+02,0.00000000E+00,0.19257155E+03,     0000001P0000239
0.11498884E+02,0.00000000E+00,0.19267335E+03,0.11415119E+02,     0000001P0000240
0.00000000E+00,0.19277555E+03,0.11331836E+02,0.00000000E+00,     0000001P0000241
0.19287815E+03,0.11249042E+02,0.00000000E+00,0.19298115E+03,     0000001P0000242
0.11166749E+02,0.00000000E+00,0.19308455E+03,0.11084972E+02,     0000001P0000243
0.00000000E+00,0.19318841E+03,0.11003757E+02,0.00000000E+00,     0000001P0000244
0.19329267E+03,0.10923069E+02,0.00000000E+00,0.19339739E+03,     0000001P0000245
0.10842979E+02,0.00000000E+00,0.19350254E+03,0.10763450E+02,     0000001P0000246
0.00000000E+00,0.19360815E+03,0.10684546E+02,0.00000000E+00,     0000001P0000247
0.19371422E+03,0.10606241E+02,0.00000000E+00,0.19382074E+03,     0000001P0000248
0.10528565E+02,0.00000000E+00,0.19392772E+03,0.10451524E+02,     0000001P0000249
0.00000000E+00,0.19403517E+03,0.10375140E+02,0.00000000E+00,     0000001P0000250
0.19414310E+03,0.10299423E+02,0.00000000E+00,0.19425149E+03,     0000001P0000251
0.10224380E+02,0.00000000E+00,0.19436038E+03,0.10150047E+02,     0000001P0000252
0.00000000E+00,0.19446972E+03,0.10076401E+02,0.00000000E+00,     0000001P0000253
0.19457956E+03,0.10003482E+02,0.00000000E+00,0.19468988E+03,     0000001P0000254
0.99312950E+01,0.00000000E+00,0.19480068E+03,0.98598538E+01,     0000001P0000255
0.00000000E+00,0.19491197E+03,0.97891665E+01,0.00000000E+00,     0000001P0000256
0.19502372E+03,0.97192337E+01,0.00000000E+00,0.19513598E+03,     0000001P0000257
0.96501028E+01,0.00000000E+00,0.19524871E+03,0.95817506E+01,     0000001P0000258
0.00000000E+00,0.19536194E+03,0.95142093E+01,0.00000000E+00,     0000001P0000259
0.19547564E+03,0.94474872E+01,0.00000000E+00,0.19558982E+03,     0000001P0000260
0.93815796E+01,0.00000000E+00,0.19570448E+03,0.93165056E+01,     0000001P0000261
0.00000000E+00,0.19581960E+03,0.92522475E+01,0.00000000E+00,     0000001P0000262
0.19593519E+03,0.91888510E+01,0.00000000E+00,0.19605124E+03,     0000001P0000263
0.91262801E+01,0.00000000E+00,0.19616774E+03,0.90645686E+01,     0000001P0000264
0.00000000E+00,0.19628468E+03,0.90037055E+01,0.00000000E+00,     0000001P0000265
0.19640207E+03,0.89437062E+01,0.00000000E+00,0.19651990E+03,     0000001P0000266
0.88845717E+01,0.00000000E+00,0.19663816E+03,0.88262938E+01,     0000001P0000267
0.00000000E+00,0.19675684E+03,0.87688816E+01,0.00000000E+00,     0000001P0000268
0.19687593E+03,0.87123168E+01,0.00000000E+00,0.19699542E+03,     0000001P0000269
0.86566124E+01,0.00000000E+00,0.19711530E+03,0.86017631E+01,     0000001P0000270
0.00000000E+00,0.19723558E+03,0.85477665E+01,0.00000000E+00,     0000001P0000271
0.19735622E+03,0.84946111E+01,0.00000000E+00,0.19747724E+03,     0000001P0000272
0.84423127E+01,0.00000000E+00,0.19759862E+03,0.83908538E+01,     0000001P0000273
0.00000000E+00,0.19772035E+03,0.83402304E+01,0.00000000E+00,     0000001P0000274
0.19784242E+03,0.82904382E+01,0.00000000E+00,0.19796482E+03,     0000001P0000275
0.82414606E+01,0.00000000E+00,0.19808755E+03,0.81933107E+01,     0000001P0000276
0.00000000E+00,0.19821060E+03,0.81459724E+01,0.00000000E+00,     0000001P0000277
0.19833395E+03,0.80994417E+01,0.00000000E+00,0.19845759E+03,     0000001P0000278
0.80536991E+01,0.00000000E+00,0.19858153E+03,0.80087409E+01,     0000001P0000279
0.00000000E+00,0.19870573E+03,0.79645470E+01,0.00000000E+00,     0000001P0000280
0.19883021E+03,0.79211006E+01,0.00000000E+00,0.19895493E+03,     0000001P0000281
0.78783885E+01,0.00000000E+00,0.19907991E+03,0.78364079E+01,     0000001P0000282
0.00000000E+00,0.19920512E+03,0.77951212E+01,0.00000000E+00,     0000001P0000283
0.19933055E+03,0.77545301E+01,0.00000000E+00,0.19945620E+03,     0000001P0000284
0.77146263E+01,0.00000000E+00,0.19958206E+03,0.76753787E+01,     0000001P0000285
0.00000000E+00,0.19970813E+03,0.76367926E+01,0.00000000E+00,     0000001P0000286
0.19983438E+03,0.75988368E+01,0.00000000E+00,0.19996083E+03,     0000001P0000287
0.75615141E+01,0.00000000E+00,0.20008745E+03,0.75247908E+01,     0000001P0000288
0.00000000E+00,0.20021424E+03,0.74886591E+01,0.00000000E+00,     0000001P0000289
0.20034119E+03,0.74531029E+01,0.00000000E+00,0.20046829E+03,     0000001P0000290
0.74180896E+01,0.00000000E+00,0.20059554E+03,0.73836261E+01,     0000001P0000291
0.00000000E+00,0.20072293E+03,0.73496650E+01,0.00000000E+00,     0000001P0000292
0.20085044E+03,0.73161934E+01,0.00000000E+00,0.20097808E+03,     0000001P0000293
0.72831920E+01,0.00000000E+00,0.20110583E+03,0.72506278E+01,     0000001P0000294
0.00000000E+00,0.20123370E+03,0.72185230E+01,0.00000000E+00,     0000001P0000295
0.20136168E+03,0.71868696E+01,0.00000000E+00,0.20148977E+03,     0000001P0000296
0.71556822E+01,0.00000000E+00,0.20161798E+03,0.71249624E+01,     0000001P0000297
0.00000000E+00,0.20174631E+03,0.70947329E+01,0.00000000E+00,     0000001P0000298
0.20187475E+03,0.70650220E+01,0.00000000E+00,0.20200336E+03,     0000001P0000299
0.70360046E+01,0.00000000E+00,0.20213216E+03,0.70078773E+01,     0000001P0000300
0.00000000E+00,0.20226120E+03,0.69808539E+01,0.00000000E+00,     0000001P0000301
0.20239051E+03,0.69551702E+01,0.00000000E+00,0.20252013E+03,     0000001P0000302
0.69310814E+01,0.00000000E+00,0.20265007E+03,0.69087491E+01,     0000001P0000303
0.00000000E+00,0.20278026E+03,0.68879689E+01,0.00000000E+00,     0000001P0000304
0.20291065E+03,0.68685045E+01,0.00000000E+00,0.20304121E+03,     0000001P0000305
0.68501382E+01,0.00000000E+00,0.20317188E+03,0.68326442E+01,     0000001P0000306
0.00000000E+00,0.20330263E+03,0.68157483E+01,0.00000000E+00,     0000001P0000307
0.20343361E+03,0.68006890E+01,0.00000000E+00,0.20356480E+03,     0000001P0000308
0.67875650E+01,0.00000000E+00,0.20369619E+03,0.67766505E+01,     0000001P0000309
0.00000000E+00,0.20382776E+03,0.67681967E+01,0.00000000E+00,     0000001P0000310
0.20395949E+03,0.67624581E+01,0.00000000E+00,0.20409131E+03,     0000001P0000311
0.67597422E+01,0.00000000E+00,0.20422316E+03,0.67602280E+01,     0000001P0000312
0.00000000E+00,0.20435496E+03,0.67639640E+01,0.00000000E+00,     0000001P0000313
0.20448662E+03,0.67710003E+01,0.00000000E+00,0.20461807E+03,     0000001P0000314
0.67813956E+01,0.00000000E+00,0.20474920E+03,0.67951728E+01,     0000001P0000315
0.00000000E+00,0.20487992E+03,0.68124134E+01,0.00000000E+00,     0000001P0000316
0.20501016E+03,0.68329653E+01,0.00000000E+00,0.20513991E+03,     0000001P0000317
0.68563627E+01,0.00000000E+00,0.20526920E+03,0.68821865E+01,     0000001P0000318
0.00000000E+00,0.20539807E+03,0.69100339E+01,0.00000000E+00,     0000001P0000319
0.20552658E+03,0.69394855E+01,0.00000000E+00,0.20565479E+03,     0000001P0000320
0.69701677E+01,0.00000000E+00,0.20578281E+03,0.70016758E+01,     0000001P0000321
0.00000000E+00,0.20591072E+03,0.70336080E+01,0.00000000E+00,     0000001P0000322
0.20603854E+03,0.70659119E+01,0.00000000E+00,0.20616626E+03,     0000001P0000323
0.70985877E+01,0.00000000E+00,0.20629390E+03,0.71315923E+01,     0000001P0000324
0.00000000E+00,0.20642145E+03,0.71649357E+01,0.00000000E+00,     0000001P0000325
0.20654892E+03,0.71985777E+01,0.00000000E+00,0.20667631E+03,     0000001P0000326
0.72325103E+01,0.00000000E+00,0.20680363E+03,0.72667211E+01,     0000001P0000327
0.00000000E+00,0.20693089E+03,0.73011783E+01,0.00000000E+00,     0000001P0000328
0.20705807E+03,0.73358747E+01,0.00000000E+00,0.20718520E+03,     0000001P0000329
0.73707892E+01,0.00000000E+00,0.20731228E+03,0.74059083E+01,     0000001P0000330
0.00000000E+00,0.20743930E+03,0.74412117E+01,0.00000000E+00,     0000001P0000331
0.20756628E+03,0.74766689E+01,0.00000000E+00,0.20769321E+03,     0000001P0000332
0.75122813E+01,0.00000000E+00,0.20782010E+03,0.75480274E+01,     0000001P0000333
0.00000000E+00,0.20794697E+03,0.75838802E+01,0.00000000E+00,     0000001P0000334
0.20807381E+03,0.76198207E+01,0.00000000E+00,0.20820063E+03,     0000001P0000335
0.76558427E+01,0.00000000E+00,0.20832743E+03,0.76919273E+01,     0000001P0000336
0.00000000E+00,0.20845422E+03,0.77280393E+01,0.00000000E+00,     0000001P0000337
0.20858101E+03,0.77641873E+01,0.00000000E+00,0.20870779E+03,     0000001P0000338
0.78003311E+01,0.00000000E+00,0.20883458E+03,0.78364673E+01,     0000001P0000339
0.00000000E+00,0.20896137E+03,0.78725611E+01,0.00000000E+00,     0000001P0000340
0.20908818E+03,0.79086191E+01,0.00000000E+00,0.20921501E+03,     0000001P0000341
0.79446001E+01,0.00000000E+00,0.20934186E+03,0.79804997E+01,     0000001P0000342
0.00000000E+00,0.20946875E+03,0.80162918E+01,0.00000000E+00,     0000001P0000343
0.20959566E+03,0.80519832E+01,0.00000000E+00,0.20972257E+03,     0000001P0000344
0.80876865E+01,0.00000000E+00,0.20984944E+03,0.81235236E+01,     0000001P0000345
0.00000000E+00,0.20997625E+03,0.81595861E+01,0.00000000E+00,     0000001P0000346
0.21010300E+03,0.81958513E+01,0.00000000E+00,0.21022971E+03,     0000001P0000347
0.82322607E+01,0.00000000E+00,0.21035639E+03,0.82687698E+01,     0000001P0000348
0.00000000E+00,0.21048305E+03,0.83053220E+01,0.00000000E+00,     0000001P0000349
0.21060972E+03,0.83418751E+01,0.00000000E+00,0.21073640E+03,     0000001P0000350
0.83783738E+01,0.00000000E+00,0.21086311E+03,0.84147765E+01,     0000001P0000351
0.00000000E+00,0.21098986E+03,0.84510301E+01,0.00000000E+00,     0000001P0000352
0.21111667E+03,0.84870799E+01,0.00000000E+00,0.21124356E+03,     0000001P0000353
0.85228772E+01,0.00000000E+00,0.21137052E+03,0.85583859E+01,     0000001P0000354
0.00000000E+00,0.21149757E+03,0.85935917E+01,0.00000000E+00,     0000001P0000355
0.21162466E+03,0.86286266E+01,0.00000000E+00,0.21175178E+03,     0000001P0000356
0.86635730E+01,0.00000000E+00,0.21187890E+03,0.86985187E+01,     0000001P0000357
0.00000000E+00,0.21200599E+03,0.87335774E+01,0.00000000E+00,     0000001P0000358
0.21213306E+03,0.87686980E+01,0.00000000E+00,0.21226012E+03,     0000001P0000359
0.88038559E+01,0.00000000E+00,0.21238719E+03,0.88389980E+01,     0000001P0000360
0.00000000E+00,0.21251426E+03,0.88741167E+01,0.00000000E+00,     0000001P0000361
0.21264136E+03,0.89091529E+01,0.00000000E+00,0.21276848E+03,     0000001P0000362
0.89440769E+01,0.00000000E+00,0.21289565E+03,0.89788497E+01,     0000001P0000363
0.00000000E+00,0.21302287E+03,0.90134406E+01,0.00000000E+00,     0000001P0000364
0.21315015E+03,0.90477964E+01,0.00000000E+00,0.21327750E+03,     0000001P0000365
0.90819013E+01,0.00000000E+00,0.21340492E+03,0.91157067E+01,     0000001P0000366
0.00000000E+00,0.21353244E+03,0.91491736E+01,0.00000000E+00,     0000001P0000367
0.21366005E+03,0.91822787E+01,0.00000000E+00,0.21378777E+03,     0000001P0000368
0.92149672E+01,0.00000000E+00,0.21391560E+03,0.92472136E+01,     0000001P0000369
0.00000000E+00,0.21404355E+03,0.92789793E+01,0.00000000E+00,     0000001P0000370
0.21417164E+03,0.93102082E+01,0.00000000E+00,0.21429984E+03,     0000001P0000371
0.93409419E+01,0.00000000E+00,0.21442810E+03,0.93714335E+01,     0000001P0000372
0.00000000E+00,0.21455637E+03,0.94018763E+01,0.00000000E+00,     0000001P0000373
0.21468459E+03,0.94325523E+01,0.00000000E+00,0.21481276E+03,     0000001P0000374
0.94634075E+01,0.00000000E+00,0.21494094E+03,0.94942452E+01,     0000001P0000375
0.00000000E+00,0.21506915E+03,0.95249531E+01,0.00000000E+00,     0000001P0000376
0.21519743E+03,0.95553604E+01,0.00000000E+00,0.21532581E+03,     0000001P0000377
0.95853379E+01,0.00000000E+00,0.21545433E+03,0.96147244E+01,     0000001P0000378
0.00000000E+00,0.21558302E+03,0.96433824E+01,0.00000000E+00,     0000001P0000379
0.21571190E+03,0.96711353E+01,0.00000000E+00,0.21584098E+03,     0000001P0000380
0.96979453E+01,0.00000000E+00,0.21597022E+03,0.97239773E+01,     0000001P0000381
0.00000000E+00,0.21609959E+03,0.97493639E+01,0.00000000E+00,     0000001P0000382
0.21622906E+03,0.97742439E+01,0.00000000E+00,0.21635860E+03,     0000001P0000383
0.97987316E+01,0.00000000E+00,0.21648822E+03,0.98228098E+01,     0000001P0000384
0.00000000E+00,0.21661791E+03,0.98465254E+01,0.00000000E+00,     0000001P0000385
0.21674766E+03,0.98698759E+01,0.00000000E+00,0.21687747E+03,     0000001P0000386
0.98928891E+01,0.00000000E+00,0.21700733E+03,0.99155791E+01,     0000001P0000387
0.00000000E+00,0.21713726E+03,0.99379623E+01,0.00000000E+00,     0000001P0000388
0.21726723E+03,0.99600525E+01,0.00000000E+00,0.21739725E+03,     0000001P0000389
0.99818860E+01,0.00000000E+00,0.21752730E+03,0.10003456E+02,     0000001P0000390
0.00000000E+00,0.21765740E+03,0.10024796E+02,0.00000000E+00,     0000001P0000391
0.21778753E+03,0.10045917E+02,0.00000000E+00,0.21791769E+03,     0000001P0000392
0.10066851E+02,0.00000000E+00,0.21804786E+03,0.10087772E+02,     0000001P0000393
0.00000000E+00,0.21817800E+03,0.10108794E+02,0.00000000E+00,     0000001P0000394
0.21830811E+03,0.10130099E+02,0.00000000E+00,0.21843820E+03,     0000001P0000395
0.10151475E+02,0.00000000E+00,0.21856832E+03,0.10172675E+02,     0000001P0000396
0.00000000E+00,0.21869850E+03,0.10193473E+02,0.00000000E+00,     0000001P0000397
0.21882879E+03,0.10213626E+02,0.00000000E+00,0.21895921E+03,     0000001P0000398
0.10232906E+02,0.00000000E+00,0.21908980E+03,0.10251065E+02,     0000001P0000399
0.00000000E+00,0.21922056E+03,0.10267909E+02,0.00000000E+00,     0000001P0000400
0.21935147E+03,0.10283508E+02,0.00000000E+00,0.21948252E+03,     0000001P0000401
0.10297919E+02,0.00000000E+00,0.21961369E+03,0.10311180E+02,     0000001P0000402
0.00000000E+00,0.21974496E+03,0.10323451E+02,0.00000000E+00,     0000001P0000403
0.21987629E+03,0.10334984E+02,0.00000000E+00,0.22000766E+03,     0000001P0000404
0.10346021E+02,0.00000000E+00,0.22013905E+03,0.10356804E+02,     0000001P0000405
0.00000000E+00,0.22027045E+03,0.10367574E+02,0.00000000E+00,     0000001P0000406
0.22040182E+03,0.10378581E+02,0.00000000E+00,0.22053315E+03,     0000001P0000407
0.10390061E+02,0.00000000E+00,0.22066442E+03,0.10402259E+02,     0000001P0000408
0.00000000E+00,0.22079560E+03,0.10415404E+02,0.00000000E+00,     0000001P0000409
0.22092665E+03,0.10429820E+02,0.00000000E+00,0.22105758E+03,     0000001P0000410
0.10445275E+02,0.00000000E+00,0.22118847E+03,0.10461072E+02,     0000001P0000411
0.00000000E+00,0.22131939E+03,0.10476594E+02,0.00000000E+00,     0000001P0000412
0.22145037E+03,0.10491585E+02,0.00000000E+00,0.22158143E+03,     0000001P0000413
0.10505856E+02,0.00000000E+00,0.22171260E+03,0.10519184E+02,     0000001P0000414
0.00000000E+00,0.22184387E+03,0.10531377E+02,0.00000000E+00,     0000001P0000415
0.22197526E+03,0.10542197E+02,0.00000000E+00,0.22210677E+03,     0000001P0000416
0.10551472E+02,0.00000000E+00,0.22223837E+03,0.10559356E+02,     0000001P0000417
0.00000000E+00,0.22237005E+03,0.10565991E+02,0.00000000E+00,     0000001P0000418
0.22250177E+03,0.10571517E+02,0.00000000E+00,0.22263352E+03,     0000001P0000419
0.10576133E+02,0.00000000E+00,0.22276530E+03,0.10580059E+02,     0000001P0000420
0.00000000E+00,0.22289709E+03,0.10583508E+02,0.00000000E+00,     0000001P0000421
0.22302889E+03,0.10586695E+02,0.00000000E+00,0.22316069E+03,     0000001P0000422
0.10589833E+02,0.00000000E+00,0.22329248E+03,0.10593137E+02,     0000001P0000423
0.00000000E+00,0.22342426E+03,0.10596818E+02,0.00000000E+00,     0000001P0000424
0.22355603E+03,0.10601111E+02,0.00000000E+00,0.22368778E+03,     0000001P0000425
0.10606002E+02,0.00000000E+00,0.22381950E+03,0.10611368E+02,     0000001P0000426
0.00000000E+00,0.22395121E+03,0.10617118E+02,0.00000000E+00,     0000001P0000427
0.22408291E+03,0.10623120E+02,0.00000000E+00,0.22421460E+03,     0000001P0000428
0.10629242E+02,0.00000000E+00,0.22434630E+03,0.10635347E+02,     0000001P0000429
0.00000000E+00,0.22447800E+03,0.10641310E+02,0.00000000E+00,     0000001P0000430
0.22460971E+03,0.10646987E+02,0.00000000E+00,0.22474144E+03,     0000001P0000431
0.10652322E+02,0.00000000E+00,0.22487318E+03,0.10657255E+02,     0000001P0000432
0.00000000E+00,0.22500494E+03,0.10661730E+02,0.00000000E+00,     0000001P0000433
0.22513672E+03,0.10665698E+02,0.00000000E+00,0.22526851E+03,     0000001P0000434
0.10669081E+02,0.00000000E+00,0.22540032E+03,0.10671903E+02,     0000001P0000435
0.00000000E+00,0.22553213E+03,0.10674420E+02,0.00000000E+00,     0000001P0000436
0.22566394E+03,0.10676865E+02,0.00000000E+00,0.22579575E+03,     0000001P0000437
0.10679451E+02,0.00000000E+00,0.22592755E+03,0.10682426E+02,     0000001P0000438
0.00000000E+00,0.22605934E+03,0.10685998E+02,0.00000000E+00,     0000001P0000439
0.22619111E+03,0.10690444E+02,0.00000000E+00,0.22632284E+03,     0000001P0000440
0.10695593E+02,0.00000000E+00,0.22645456E+03,0.10701179E+02,     0000001P0000441
0.00000000E+00,0.22658627E+03,0.10706972E+02,0.00000000E+00,     0000001P0000442
0.22671797E+03,0.10712815E+02,0.00000000E+00,0.22684969E+03,     0000001P0000443
0.10718550E+02,0.00000000E+00,0.22698141E+03,0.10724025E+02,     0000001P0000444
0.00000000E+00,0.22711314E+03,0.10729085E+02,0.00000000E+00,     0000001P0000445
0.22724490E+03,0.10733578E+02,0.00000000E+00,0.22737668E+03,     0000001P0000446
0.10737635E+02,0.00000000E+00,0.22750846E+03,0.10741391E+02,     0000001P0000447
0.00000000E+00,0.22764025E+03,0.10745015E+02,0.00000000E+00,     0000001P0000448
0.22777204E+03,0.10748486E+02,0.00000000E+00,0.22790383E+03,     0000001P0000449
0.10751673E+02,0.00000000E+00,0.22803564E+03,0.10754452E+02,     0000001P0000450
0.00000000E+00,0.22816746E+03,0.10756710E+02,0.00000000E+00,     0000001P0000451
0.22829929E+03,0.10758321E+02,0.00000000E+00,0.22843112E+03,     0000001P0000452
0.10759165E+02,0.00000000E+00,0.22856296E+03,0.10759128E+02,     0000001P0000453
0.00000000E+00,0.22869479E+03,0.10758562E+02,0.00000000E+00,     0000001P0000454
0.22882662E+03,0.10757835E+02,0.00000000E+00,0.22895846E+03,     0000001P0000455
0.10757235E+02,0.00000000E+00,0.22909029E+03,0.10756696E+02,     0000001P0000456
0.00000000E+00,0.22922212E+03,0.10756196E+02,0.00000000E+00,     0000001P0000457
0.22935396E+03,0.10755703E+02,0.00000000E+00,0.22948579E+03,     0000001P0000458
0.10755194E+02,0.00000000E+00,0.22961763E+03,0.10754609E+02,     0000001P0000459
0.00000000E+00,0.22974947E+03,0.10754084E+02,0.00000000E+00,     0000001P0000460
0.22988130E+03,0.10753827E+02,0.00000000E+00,0.23001314E+03,     0000001P0000461
0.10754044E+02,0.00000000E+00,0.23014497E+03,0.10754939E+02,     0000001P0000462
0.00000000E+00,0.23027680E+03,0.10756710E+02,0.00000000E+00,     0000001P0000463
0.23040860E+03,0.10759564E+02,0.00000000E+00,0.23054039E+03,     0000001P0000464
0.10763101E+02,0.00000000E+00,0.23067217E+03,0.10766863E+02,     0000001P0000465
0.00000000E+00,0.23080395E+03,0.10770414E+02,0.00000000E+00,     0000001P0000466
0.23093576E+03,0.10773315E+02,0.00000000E+00,0.23106759E+03,     0000001P0000467
0.10775138E+02,0.00000000E+00,0.23119943E+03,0.10775377E+02,     0000001P0000468
0.00000000E+00,0.23133126E+03,0.10774548E+02,0.00000000E+00,     0000001P0000469
0.23146309E+03,0.10773373E+02,0.00000000E+00,0.23159492E+03,     0000001P0000470
0.10772196E+02,0.00000000E+00,0.23172675E+03,0.10771063E+02,     0000001P0000471
0.00000000E+00,0.23185859E+03,0.10770080E+02,0.00000000E+00,     0000001P0000472
0.23199042E+03,0.10769348E+02,0.00000000E+00,0.23212225E+03,     0000001P0000473
0.10768962E+02,0.00000000E+00,0.23225409E+03,0.10769027E+02,     0000001P0000474
0.00000000E+00,0.23238593E+03,0.10769593E+02,0.00000000E+00,     0000001P0000475
0.23251776E+03,0.10770574E+02,0.00000000E+00,0.23264959E+03,     0000001P0000476
0.10771944E+02,0.00000000E+00,0.23278141E+03,0.10773539E+02,     0000001P0000477
0.00000000E+00,0.23291324E+03,0.10775152E+02,0.00000000E+00,     0000001P0000478
0.23304506E+03,0.10776598E+02,0.00000000E+00,0.23317689E+03,     0000001P0000479
0.10777673E+02,0.00000000E+00,0.23330873E+03,0.10778171E+02,     0000001P0000480
0.00000000E+00,0.23344057E+03,0.10777959E+02,0.00000000E+00,     0000001P0000481
0.23357240E+03,0.10777226E+02,0.00000000E+00,0.23370424E+03,     0000001P0000482
0.10776145E+02,0.00000000E+00,0.23383606E+03,0.10774863E+02,     0000001P0000483
0.00000000E+00,0.23396789E+03,0.10773537E+02,0.00000000E+00,     0000001P0000484
0.23409972E+03,0.10772319E+02,0.00000000E+00,0.23423155E+03,     0000001P0000485
0.10771356E+02,0.00000000E+00,0.23436339E+03,0.10770813E+02,     0000001P0000486
0.00000000E+00,0.23449522E+03,0.10770801E+02,0.00000000E+00,     0000001P0000487
0.23462706E+03,0.10771307E+02,0.00000000E+00,0.23475889E+03,     0000001P0000488
0.10772379E+02,0.00000000E+00,0.23489072E+03,0.10773907E+02,     0000001P0000489
0.00000000E+00,0.23502254E+03,0.10775557E+02,0.00000000E+00,     0000001P0000490
0.23515437E+03,0.10777019E+02,0.00000000E+00,0.23528621E+03,     0000001P0000491
0.10777995E+02,0.00000000E+00,0.23541804E+03,0.10778111E+02,     0000001P0000492
0.00000000E+00,0.23554987E+03,0.10777462E+02,0.00000000E+00,     0000001P0000493
0.23568170E+03,0.10776445E+02,0.00000000E+00,0.23581354E+03,     0000001P0000494
0.10775423E+02,0.00000000E+00,0.23594537E+03,0.10774515E+02,     0000001P0000495
0.00000000E+00,0.23607720E+03,0.10773648E+02,0.00000000E+00,     0000001P0000496
0.23620903E+03,0.10772794E+02,0.00000000E+00,0.23634086E+03,     0000001P0000497
0.10771905E+02,0.00000000E+00,0.23647270E+03,0.10770975E+02,     0000001P0000498
0.00000000E+00,0.23660453E+03,0.10769858E+02,0.00000000E+00,     0000001P0000499
0.23678030E+03,0.10768608E+02,0.00000000E+00,0.23691214E+03,     0000001P0000500
0.10768213E+02,0.00000000E+00,0.23700003E+03,0.10768150E+02,     0000001P0000501
0.00000000E+00,0.00000000E+00,0.10000000E+01,0.00000000E+00,     0000001P0000502
0.00000000E+00,0.00000000E+00;                                   0000001P0000503
S0000001G0000003D0000002P0000503                                        T0000001
