ISO-10303-21;
HEADER;
FILE_DESCRIPTION(('Open CASCADE Model'),'2;1');
FILE_NAME('Open CASCADE Shape Model','2026-03-17T11:29:13',('Author'),(
    'Open CASCADE'),'Open CASCADE STEP processor 7.8','Open CASCADE 7.8'
  ,'Unknown');
FILE_SCHEMA(('AUTOMOTIVE_DESIGN { 1 0 10303 214 1 1 1 1 }'));
ENDSEC;
DATA;
#1 = APPLICATION_PROTOCOL_DEFINITION('international standard',
  'automotive_design',2000,#2);
#2 = APPLICATION_CONTEXT(
  'core data for automotive mechanical design processes');
#3 = SHAPE_DEFINITION_REPRESENTATION(#4,#10);
#4 = PRODUCT_DEFINITION_SHAPE('','',#5);
#5 = PRODUCT_DEFINITION('design','',#6,#9);
#6 = PRODUCT_DEFINITION_FORMATION('','',#7);
#7 = PRODUCT('Open CASCADE STEP translator 7.8 5',
  'Open CASCADE STEP translator 7.8 5','',(#8));
#8 = PRODUCT_CONTEXT('',#2,'mechanical');
#9 = PRODUCT_DEFINITION_CONTEXT('part definition',#2,'design');
#10 = SHAPE_REPRESENTATION('',(#11,#15,#19),#23);
#11 = AXIS2_PLACEMENT_3D('',#12,#13,#14);
#12 = CARTESIAN_POINT('',(0.,0.,0.));
#13 = DIRECTION('',(0.,0.,1.));
#14 = DIRECTION('',(1.,0.,-0.));
#15 = AXIS2_PLACEMENT_3D('',#16,#17,#18);
#16 = CARTESIAN_POINT('',(0.,0.,0.));
#17 = DIRECTION('',(0.,0.,1.));
#18 = DIRECTION('',(1.,0.,-0.));
#19 = AXIS2_PLACEMENT_3D('',#20,#21,#22);
#20 = CARTESIAN_POINT('',(0.,0.,0.));
#21 = DIRECTION('',(0.,0.,1.));
#22 = DIRECTION('',(1.,0.,-0.));
#23 = ( GEOMETRIC_REPRESENTATION_CONTEXT(3) 
GLOBAL_UNCERTAINTY_ASSIGNED_CONTEXT((#27)) GLOBAL_UNIT_ASSIGNED_CONTEXT(
(#24,#25,#26)) REPRESENTATION_CONTEXT('Context #1',
  '3D Context with UNIT and UNCERTAINTY') );
#24 = ( LENGTH_UNIT() NAMED_UNIT(*) SI_UNIT(.MILLI.,.METRE.) );
#25 = ( NAMED_UNIT(*) PLANE_ANGLE_UNIT() SI_UNIT($,.RADIAN.) );
#26 = ( NAMED_UNIT(*) SI_UNIT($,.STERADIAN.) SOLID_ANGLE_UNIT() );
#27 = UNCERTAINTY_MEASURE_WITH_UNIT(LENGTH_MEASURE(1.E-07),#24,
  'distance_accuracy_value','confusion accuracy');
#28 = PRODUCT_RELATED_PRODUCT_CATEGORY('part',$,(#7));
#29 = SHAPE_DEFINITION_REPRESENTATION(#30,#36);
#30 = PRODUCT_DEFINITION_SHAPE('','',#31);
#31 = PRODUCT_DEFINITION('design','',#32,#35);
#32 = PRODUCT_DEFINITION_FORMATION('','',#33);
#33 = PRODUCT('Open CASCADE STEP translator 7.8 5.1',
  'Open CASCADE STEP translator 7.8 5.1','',(#34));
#34 = PRODUCT_CONTEXT('',#2,'mechanical');
#35 = PRODUCT_DEFINITION_CONTEXT('part definition',#2,'design');
#36 = GEOMETRICALLY_BOUNDED_WIREFRAME_SHAPE_REPRESENTATION('',(#11,#37),
  #242);
#37 = GEOMETRIC_CURVE_SET('',(#38));
#38 = TRIMMED_CURVE('',#39,(#240,PARAMETER_VALUE(0.)),(#241,
    PARAMETER_VALUE(1.)),.T.,.PARAMETER.);
#39 = B_SPLINE_CURVE_WITH_KNOTS('',3,(#40,#41,#42,#43,#44,#45,#46,#47,
    #48,#49,#50,#51,#52,#53,#54,#55,#56,#57,#58,#59,#60,#61,#62,#63,#64,
    #65,#66,#67,#68,#69,#70,#71,#72,#73,#74,#75,#76,#77,#78,#79,#80,#81,
    #82,#83,#84,#85,#86,#87,#88,#89,#90,#91,#92,#93,#94,#95,#96,#97,#98,
    #99,#100,#101,#102,#103,#104,#105,#106,#107,#108,#109,#110,#111,#112
    ,#113,#114,#115,#116,#117,#118,#119,#120,#121,#122,#123,#124,#125,
    #126,#127,#128,#129,#130,#131,#132,#133,#134,#135,#136,#137,#138,
    #139,#140,#141,#142,#143,#144,#145,#146,#147,#148,#149,#150,#151,
    #152,#153,#154,#155,#156,#157,#158,#159,#160,#161,#162,#163,#164,
    #165,#166,#167,#168,#169,#170,#171,#172,#173,#174,#175,#176,#177,
    #178,#179,#180,#181,#182,#183,#184,#185,#186,#187,#188,#189,#190,
    #191,#192,#193,#194,#195,#196,#197,#198,#199,#200,#201,#202,#203,
    #204,#205,#206,#207,#208,#209,#210,#211,#212,#213,#214,#215,#216,
    #217,#218,#219,#220,#221,#222,#223,#224,#225,#226,#227,#228,#229,
    #230,#231,#232,#233,#234,#235,#236,#237,#238,#239),.UNSPECIFIED.,.F.
  ,.F.,(4,1,1,1,1,1,1,1,1,1,1,1,1,1,1,1,1,1,1,1,1,1,1,1,1,1,1,1,1,1,1,1,
    1,1,1,1,1,1,1,1,1,1,1,1,1,1,1,1,1,1,1,1,1,1,1,1,1,1,1,1,1,1,1,1,1,1,
    1,1,1,1,1,1,1,1,1,1,1,1,1,1,1,1,1,1,1,1,1,1,1,1,1,1,1,1,1,1,1,1,1,1,
    1,1,1,1,1,1,1,1,1,1,1,1,1,1,1,1,1,1,1,1,1,1,1,1,1,1,1,1,1,1,1,1,1,1,
    1,1,1,1,1,1,1,1,1,1,1,1,1,1,1,1,1,1,1,1,1,1,1,1,1,1,1,1,1,1,1,1,1,1,
    1,1,1,1,1,1,1,1,1,1,1,1,1,1,1,1,1,1,1,1,1,1,1,1,1,1,1,1,1,4),(0.,
    1.005030239845E-02,1.507545353598E-02,2.010060467727E-02,
    2.512575575921E-02,3.015090685334E-02,3.517605789064E-02,
    4.020120892227E-02,4.522635990729E-02,5.025151087154E-02,
    5.527666183446E-02,6.030181271282E-02,6.532696363411E-02,
    7.035211448404E-02,7.537726528789E-02,8.040241606757E-02,
    8.542756682515E-02,9.045271753142E-02,9.547786821125E-02,
    0.100503018888,0.105528169525,0.110553320093,0.115578470568,
    0.120603622065,0.125628772158,0.130653913126,0.135679029196,
    0.14070410981,0.145729164509,0.150754213793,0.155779274821,
    0.160804350143,0.165829435986,0.170854526757,0.175879617102,
    0.180904703617,0.18592978703,0.190954868394,0.19597994952,
    0.201005031485,0.206030114952,0.211055199384,0.21608028339,
    0.221105365411,0.226130444598,0.231155522385,0.236180621913,
    0.241205743886,0.246230891054,0.251255866125,0.256280589036,
    0.261305299865,0.266329988322,0.271354796242,0.276379610298,
    0.281404598083,0.286429720718,0.291454847032,0.296479992399,
    0.301505133223,0.306530271342,0.311555409746,0.316580550057,
    0.321605691901,0.326630835395,0.331655980228,0.336681126484,
    0.341706273898,0.346731422466,0.351756572028,0.356781722416,
    0.361806873568,0.366832025413,0.371857177797,0.376882330625,
    0.381907483779,0.386932637144,0.391957790624,0.396982944163,
    0.402008097705,0.407033251223,0.412058404705,0.417083558181,
    0.422108711581,0.427133864763,0.432159016982,0.437184166485,
    0.442209308556,0.447234436054,0.452259541802,0.457284626962,
    0.462309704383,0.467334786966,0.472359882824,0.477384990271,
    0.482410112247,0.487435248556,0.492460396282,0.497485545073,
    0.502510690956,0.507535833242,0.512560976117,0.517586119417,
    0.522611263553,0.527636407986,0.532661552432,0.537686696632,
    0.542711840323,0.547736983698,0.552762126734,0.55778726971,
    0.562812412498,0.567837555268,0.572862698158,0.577887841496,
    0.582912985495,0.587938130139,0.592963275263,0.59798841994,
    0.603013563401,0.608038704672,0.613063843684,0.618088983087,
    0.623114126462,0.628139275515,0.633164427412,0.638189578287,
    0.643214728186,0.648239878566,0.653265030883,0.658290184033,
    0.66331533674,0.668340487788,0.673365635898,0.678390779908,
    0.68341591948,0.688441056857,0.693466194415,0.698491333949,
    0.70351647544,0.708541618602,0.713566763507,0.718591909791,
    0.723617057464,0.728642206314,0.733667356259,0.738692507084,
    0.743717658722,0.748742810982,0.753767963779,0.758793116936,
    0.763818270335,0.768843423838,0.773868577316,0.778893730629,
    0.783918883648,0.788944036235,0.793969188237,0.798994339578,
    0.804019490666,0.809044641999,0.814069794,0.81909494661,
    0.824120099723,0.829145252605,0.834170403188,0.839195548768,
    0.844220688749,0.849245824566,0.854270958158,0.859296090002,
    0.86432122037,0.869346350285,0.874371480644,0.879396611891,
    0.884421743874,0.889446876666,0.894472010339,0.89949714492,
    0.904522280386,0.909547416856,0.914572554105,0.919597692379,
    0.924622831378,0.929647971248,0.934673111928,0.939698253356,
    0.94472339558,0.949748538534,0.954773682167,0.95979882646,
    0.964823971269,0.969849116731,0.974874262722,0.979899409198,
    0.984924556292,0.989949703822,1.),.UNSPECIFIED.);
#40 = CARTESIAN_POINT('',(6.273800762E+03,306.1648944,0.));
#41 = CARTESIAN_POINT('',(6.274704399621E+03,306.46881118136,0.));
#42 = CARTESIAN_POINT('',(6.276058350672E+03,306.92916857525,0.));
#43 = CARTESIAN_POINT('',(6.277860293244E+03,307.55264397111,0.));
#44 = CARTESIAN_POINT('',(6.279210220122E+03,308.02465003902,0.));
#45 = CARTESIAN_POINT('',(6.280558392327E+03,308.50164480093,0.));
#46 = CARTESIAN_POINT('',(6.281904971704E+03,308.98311807861,0.));
#47 = CARTESIAN_POINT('',(6.283249747728E+03,309.46960477343,0.));
#48 = CARTESIAN_POINT('',(6.284592945801E+03,309.96043250889,0.));
#49 = CARTESIAN_POINT('',(6.285934190908E+03,310.45657188074,0.));
#50 = CARTESIAN_POINT('',(6.287273841786E+03,310.95699918494,0.));
#51 = CARTESIAN_POINT('',(6.288611549277E+03,311.46260010495,0.));
#52 = CARTESIAN_POINT('',(6.289947482258E+03,311.97286942361,0.));
#53 = CARTESIAN_POINT('',(6.291281564449E+03,312.48796016471,0.));
#54 = CARTESIAN_POINT('',(6.292613667447E+03,313.00814651266,0.));
#55 = CARTESIAN_POINT('',(6.293944006142E+03,313.5328289899,0.));
#56 = CARTESIAN_POINT('',(6.295272252263E+03,314.06278801141,0.));
#57 = CARTESIAN_POINT('',(6.296598528452E+03,314.5976557982,0.));
#58 = CARTESIAN_POINT('',(6.297922892131E+03,315.13724256823,0.));
#59 = CARTESIAN_POINT('',(6.299245134047E+03,315.68200942984,0.));
#60 = CARTESIAN_POINT('',(6.300565236167E+03,316.23193937586,0.));
#61 = CARTESIAN_POINT('',(6.301883407379E+03,316.78648186352,0.));
#62 = CARTESIAN_POINT('',(6.303199364658E+03,317.34625989248,0.));
#63 = CARTESIAN_POINT('',(6.304513082766E+03,317.91127128402,0.));
#64 = CARTESIAN_POINT('',(6.30582465597E+03,318.48124645528,0.));
#65 = CARTESIAN_POINT('',(6.307134074577E+03,319.05614038521,0.));
#66 = CARTESIAN_POINT('',(6.308444944598E+03,319.62772657636,0.));
#67 = CARTESIAN_POINT('',(6.309761048456E+03,320.18720615809,0.));
#68 = CARTESIAN_POINT('',(6.311085719189E+03,320.72621718354,0.));
#69 = CARTESIAN_POINT('',(6.312422370356E+03,321.23493216387,0.));
#70 = CARTESIAN_POINT('',(6.313771118007E+03,321.71060274956,0.));
#71 = CARTESIAN_POINT('',(6.315129978668E+03,322.15648404542,0.));
#72 = CARTESIAN_POINT('',(6.316497691834E+03,322.57439539728,0.));
#73 = CARTESIAN_POINT('',(6.317873051222E+03,322.966357575,0.));
#74 = CARTESIAN_POINT('',(6.319254949263E+03,323.33457811512,0.));
#75 = CARTESIAN_POINT('',(6.32064299706E+03,323.67892082874,0.));
#76 = CARTESIAN_POINT('',(6.322037075587E+03,323.99798832175,0.));
#77 = CARTESIAN_POINT('',(6.323436779857E+03,324.2914106529,0.));
#78 = CARTESIAN_POINT('',(6.324841838653E+03,324.55803316641,0.));
#79 = CARTESIAN_POINT('',(6.326251709927E+03,324.79789977161,0.));
#80 = CARTESIAN_POINT('',(6.327665883837E+03,325.01093560257,0.));
#81 = CARTESIAN_POINT('',(6.329083810031E+03,325.19735455652,0.));
#82 = CARTESIAN_POINT('',(6.33050495065E+03,325.35741655618,0.));
#83 = CARTESIAN_POINT('',(6.3319287871E+03,325.49138910691,0.));
#84 = CARTESIAN_POINT('',(6.333354878458E+03,325.59880394199,0.));
#85 = CARTESIAN_POINT('',(6.334782761231E+03,325.67891298106,0.));
#86 = CARTESIAN_POINT('',(6.336211930214E+03,325.73173964931,0.));
#87 = CARTESIAN_POINT('',(6.337641887064E+03,325.75468512958,0.));
#88 = CARTESIAN_POINT('',(6.339071946278E+03,325.75624436693,0.));
#89 = CARTESIAN_POINT('',(6.340502031371E+03,325.75341727337,0.));
#90 = CARTESIAN_POINT('',(6.341931854154E+03,325.74538927719,0.));
#91 = CARTESIAN_POINT('',(6.343362323174E+03,325.72310362374,0.));
#92 = CARTESIAN_POINT('',(6.344787321631E+03,325.58934673021,0.));
#93 = CARTESIAN_POINT('',(6.346203043781E+03,325.38946605612,0.));
#94 = CARTESIAN_POINT('',(6.347624590884E+03,325.22711361241,0.));
#95 = CARTESIAN_POINT('',(6.349054001507E+03,325.16605510182,0.));
#96 = CARTESIAN_POINT('',(6.35048355094E+03,325.13501225249,0.));
#97 = CARTESIAN_POINT('',(6.351913494386E+03,325.11178051018,0.));
#98 = CARTESIAN_POINT('',(6.35334358602E+03,325.11618916521,0.));
#99 = CARTESIAN_POINT('',(6.35477359138E+03,325.10162133074,0.));
#100 = CARTESIAN_POINT('',(6.356203522126E+03,325.08159058895,0.));
#101 = CARTESIAN_POINT('',(6.357633180381E+03,325.04653976779,0.));
#102 = CARTESIAN_POINT('',(6.359062467341E+03,324.99903052052,0.));
#103 = CARTESIAN_POINT('',(6.360491303482E+03,324.93945720891,0.));
#104 = CARTESIAN_POINT('',(6.36191963075E+03,324.86877546869,0.));
#105 = CARTESIAN_POINT('',(6.363347395943E+03,324.78753633939,0.));
#106 = CARTESIAN_POINT('',(6.36477456502E+03,324.69645691536,0.));
#107 = CARTESIAN_POINT('',(6.36620115142E+03,324.5966784739,0.));
#108 = CARTESIAN_POINT('',(6.367627118792E+03,324.48842095022,0.));
#109 = CARTESIAN_POINT('',(6.369052502952E+03,324.37275948597,0.));
#110 = CARTESIAN_POINT('',(6.370477340117E+03,324.25055026095,0.));
#111 = CARTESIAN_POINT('',(6.37190164107E+03,324.12224902583,0.));
#112 = CARTESIAN_POINT('',(6.373325454611E+03,323.98865760643,0.));
#113 = CARTESIAN_POINT('',(6.374748848342E+03,323.85067080202,0.));
#114 = CARTESIAN_POINT('',(6.376171867443E+03,323.70887672469,0.));
#115 = CARTESIAN_POINT('',(6.377594582131E+03,323.56406511264,0.));
#116 = CARTESIAN_POINT('',(6.379017071395E+03,323.4170581831,0.));
#117 = CARTESIAN_POINT('',(6.380439391153E+03,323.2684217076,0.));
#118 = CARTESIAN_POINT('',(6.381861609262E+03,323.11881684872,0.));
#119 = CARTESIAN_POINT('',(6.383283783795E+03,322.96879852151,0.));
#120 = CARTESIAN_POINT('',(6.384705938644E+03,322.81859365991,0.));
#121 = CARTESIAN_POINT('',(6.386128132953E+03,322.66876283992,0.));
#122 = CARTESIAN_POINT('',(6.387550402117E+03,322.51964300947,0.));
#123 = CARTESIAN_POINT('',(6.388972802803E+03,322.37178363395,0.));
#124 = CARTESIAN_POINT('',(6.390395246806E+03,322.22434231685,0.));
#125 = CARTESIAN_POINT('',(6.391817534301E+03,322.07539691691,0.));
#126 = CARTESIAN_POINT('',(6.393239607005E+03,321.92441443418,0.));
#127 = CARTESIAN_POINT('',(6.394661277124E+03,321.76967660138,0.));
#128 = CARTESIAN_POINT('',(6.396082175616E+03,321.60797296212,0.));
#129 = CARTESIAN_POINT('',(6.397501694445E+03,321.43447048964,0.));
#130 = CARTESIAN_POINT('',(6.39891886059E+03,321.24252079638,0.));
#131 = CARTESIAN_POINT('',(6.400332488438E+03,321.02584105762,0.));
#132 = CARTESIAN_POINT('',(6.401741349812E+03,320.78001060126,0.));
#133 = CARTESIAN_POINT('',(6.403145016072E+03,320.50616130899,0.));
#134 = CARTESIAN_POINT('',(6.404543585445E+03,320.20744179535,0.));
#135 = CARTESIAN_POINT('',(6.405937202171E+03,319.88644461584,0.));
#136 = CARTESIAN_POINT('',(6.407326057762E+03,319.54547493927,0.));
#137 = CARTESIAN_POINT('',(6.408710891476E+03,319.18860413811,0.));
#138 = CARTESIAN_POINT('',(6.410093686656E+03,318.8239711908,0.));
#139 = CARTESIAN_POINT('',(6.411476169814E+03,318.45815149658,0.));
#140 = CARTESIAN_POINT('',(6.412860663117E+03,318.09996809489,0.));
#141 = CARTESIAN_POINT('',(6.41424802926E+03,317.75307371891,0.));
#142 = CARTESIAN_POINT('',(6.415637885051E+03,317.41630368849,0.));
#143 = CARTESIAN_POINT('',(6.417030201022E+03,317.08985526546,0.));
#144 = CARTESIAN_POINT('',(6.418424686037E+03,316.77280558376,0.));
#145 = CARTESIAN_POINT('',(6.419821315092E+03,316.46533681892,0.));
#146 = CARTESIAN_POINT('',(6.421219945152E+03,316.16710560655,0.));
#147 = CARTESIAN_POINT('',(6.422620539571E+03,315.87823690311,0.));
#148 = CARTESIAN_POINT('',(6.424023105062E+03,315.59909187431,0.));
#149 = CARTESIAN_POINT('',(6.425427622316E+03,315.32993859615,0.));
#150 = CARTESIAN_POINT('',(6.42683402521E+03,315.07081724098,0.));
#151 = CARTESIAN_POINT('',(6.428242285206E+03,314.8219844321,0.));
#152 = CARTESIAN_POINT('',(6.429652321734E+03,314.58342664366,0.));
#153 = CARTESIAN_POINT('',(6.431064051747E+03,314.35510099585,0.));
#154 = CARTESIAN_POINT('',(6.432477445634E+03,314.13731094928,0.));
#155 = CARTESIAN_POINT('',(6.433892380485E+03,313.92977447427,0.));
#156 = CARTESIAN_POINT('',(6.435308729677E+03,313.73212473295,0.));
#157 = CARTESIAN_POINT('',(6.436726390828E+03,313.54411864946,0.));
#158 = CARTESIAN_POINT('',(6.438145251671E+03,313.36540217102,0.));
#159 = CARTESIAN_POINT('',(6.439565188038E+03,313.19544210748,0.));
#160 = CARTESIAN_POINT('',(6.440986240296E+03,313.03505879722,0.));
#161 = CARTESIAN_POINT('',(6.44240844702E+03,312.88524870405,0.));
#162 = CARTESIAN_POINT('',(6.443831804698E+03,312.74676095815,0.));
#163 = CARTESIAN_POINT('',(6.445256392527E+03,312.62151350309,0.));
#164 = CARTESIAN_POINT('',(6.446682024173E+03,312.50886468815,0.));
#165 = CARTESIAN_POINT('',(6.448108248917E+03,312.40411607039,0.));
#166 = CARTESIAN_POINT('',(6.44953467614E+03,312.30219982276,0.));
#167 = CARTESIAN_POINT('',(6.450960955889E+03,312.19818867215,0.));
#168 = CARTESIAN_POINT('',(6.452386685136E+03,312.08682638182,0.));
#169 = CARTESIAN_POINT('',(6.453811825043E+03,311.96820779241,0.));
#170 = CARTESIAN_POINT('',(6.455236643571E+03,311.84582181308,0.));
#171 = CARTESIAN_POINT('',(6.456661312492E+03,311.72171026857,0.));
#172 = CARTESIAN_POINT('',(6.458086055676E+03,311.59845068663,0.));
#173 = CARTESIAN_POINT('',(6.459511086954E+03,311.47855158978,0.));
#174 = CARTESIAN_POINT('',(6.460936593419E+03,311.36440512085,0.));
#175 = CARTESIAN_POINT('',(6.462362757415E+03,311.2587422077,0.));
#176 = CARTESIAN_POINT('',(6.463789688243E+03,311.16390291772,0.));
#177 = CARTESIAN_POINT('',(6.465217453905E+03,311.08252164124,0.));
#178 = CARTESIAN_POINT('',(6.4666459164E+03,311.01453717398,0.));
#179 = CARTESIAN_POINT('',(6.46807490034E+03,310.95862374019,0.));
#180 = CARTESIAN_POINT('',(6.469504293057E+03,310.91441562752,0.));
#181 = CARTESIAN_POINT('',(6.47093397093E+03,310.88076085444,0.));
#182 = CARTESIAN_POINT('',(6.472363844687E+03,310.85690070985,0.));
#183 = CARTESIAN_POINT('',(6.47379383878E+03,310.84201976009,0.));
#184 = CARTESIAN_POINT('',(6.475223893209E+03,310.83531025176,0.));
#185 = CARTESIAN_POINT('',(6.476653962298E+03,310.83582504191,0.));
#186 = CARTESIAN_POINT('',(6.478084013069E+03,310.84288219061,0.));
#187 = CARTESIAN_POINT('',(6.479514025123E+03,310.85545540099,0.));
#188 = CARTESIAN_POINT('',(6.480943985344E+03,310.87290887785,0.));
#189 = CARTESIAN_POINT('',(6.482373891425E+03,310.89429796057,0.));
#190 = CARTESIAN_POINT('',(6.483803746849E+03,310.91881559787,0.));
#191 = CARTESIAN_POINT('',(6.485233561281E+03,310.94560010019,0.));
#192 = CARTESIAN_POINT('',(6.486663345908E+03,310.9739205183,0.));
#193 = CARTESIAN_POINT('',(6.488093117655E+03,311.00287844627,0.));
#194 = CARTESIAN_POINT('',(6.489522893683E+03,311.03162542808,0.));
#195 = CARTESIAN_POINT('',(6.490952689015E+03,311.05940392545,0.));
#196 = CARTESIAN_POINT('',(6.492382519628E+03,311.08531665762,0.));
#197 = CARTESIAN_POINT('',(6.493812395846E+03,311.10860357597,0.));
#198 = CARTESIAN_POINT('',(6.495242325204E+03,311.12838576087,0.));
#199 = CARTESIAN_POINT('',(6.496672307837E+03,311.14394373939,0.));
#200 = CARTESIAN_POINT('',(6.498102340319E+03,311.15401827065,0.));
#201 = CARTESIAN_POINT('',(6.499532399181E+03,311.15887478569,0.));
#202 = CARTESIAN_POINT('',(6.500962465456E+03,311.15934578933,0.));
#203 = CARTESIAN_POINT('',(6.50239252804E+03,311.15634517753,0.));
#204 = CARTESIAN_POINT('',(6.503822582725E+03,311.15081300835,0.));
#205 = CARTESIAN_POINT('',(6.50525262888E+03,311.14356240985,0.));
#206 = CARTESIAN_POINT('',(6.506682683131E+03,311.13801505108,0.));
#207 = CARTESIAN_POINT('',(6.50811275457E+03,311.13866385811,0.));
#208 = CARTESIAN_POINT('',(6.509542785881E+03,311.15047414953,0.));
#209 = CARTESIAN_POINT('',(6.510972645642E+03,311.1756946555,0.));
#210 = CARTESIAN_POINT('',(6.512402193609E+03,311.21480151815,0.));
#211 = CARTESIAN_POINT('',(6.513831272149E+03,311.26843025517,0.));
#212 = CARTESIAN_POINT('',(6.515259703905E+03,311.3372161482,0.));
#213 = CARTESIAN_POINT('',(6.51668728478E+03,311.42184842568,0.));
#214 = CARTESIAN_POINT('',(6.518113865407E+03,311.52191305389,0.));
#215 = CARTESIAN_POINT('',(6.519539300734E+03,311.63713925994,0.));
#216 = CARTESIAN_POINT('',(6.52096345966E+03,311.76719042123,0.));
#217 = CARTESIAN_POINT('',(6.522386197232E+03,311.91195665253,0.));
#218 = CARTESIAN_POINT('',(6.523807414753E+03,312.07094853301,0.));
#219 = CARTESIAN_POINT('',(6.525226986438E+03,312.24400892577,0.));
#220 = CARTESIAN_POINT('',(6.526644858341E+03,312.43048459253,0.));
#221 = CARTESIAN_POINT('',(6.528060871677E+03,312.63057427184,0.));
#222 = CARTESIAN_POINT('',(6.529475067761E+03,312.84312002313,0.));
#223 = CARTESIAN_POINT('',(6.530887277177E+03,313.06849298634,0.));
#224 = CARTESIAN_POINT('',(6.532297492102E+03,313.30600978801,0.));
#225 = CARTESIAN_POINT('',(6.533705723776E+03,313.55501914132,0.));
#226 = CARTESIAN_POINT('',(6.53511180824E+03,313.81587784824,0.));
#227 = CARTESIAN_POINT('',(6.536515831028E+03,314.08760278936,0.));
#228 = CARTESIAN_POINT('',(6.53791776656E+03,314.36990238151,0.));
#229 = CARTESIAN_POINT('',(6.539317516667E+03,314.66284306583,0.));
#230 = CARTESIAN_POINT('',(6.540715164183E+03,314.96564647108,0.));
#231 = CARTESIAN_POINT('',(6.542110755269E+03,315.27779572217,0.));
#232 = CARTESIAN_POINT('',(6.543504106762E+03,315.5997896242,0.));
#233 = CARTESIAN_POINT('',(6.544895452334E+03,315.93034052046,0.));
#234 = CARTESIAN_POINT('',(6.5462846279E+03,316.26989304195,0.));
#235 = CARTESIAN_POINT('',(6.547671844094E+03,316.61736495392,0.));
#236 = CARTESIAN_POINT('',(6.549056831682E+03,316.97361237883,0.));
#237 = CARTESIAN_POINT('',(6.550901080752E+03,317.45784137652,0.));
#238 = CARTESIAN_POINT('',(6.552281175459E+03,317.83266056339,0.));
#239 = CARTESIAN_POINT('',(6.5532E+03,318.086994,0.));
#240 = CARTESIAN_POINT('',(6.273800762E+03,306.1648944,0.));
#241 = CARTESIAN_POINT('',(6.5532E+03,318.086994,0.));
#242 = ( GEOMETRIC_REPRESENTATION_CONTEXT(3) 
GLOBAL_UNCERTAINTY_ASSIGNED_CONTEXT((#246)) GLOBAL_UNIT_ASSIGNED_CONTEXT
((#243,#244,#245)) REPRESENTATION_CONTEXT('Context #1',
  '3D Context with UNIT and UNCERTAINTY') );
#243 = ( LENGTH_UNIT() NAMED_UNIT(*) SI_UNIT(.MILLI.,.METRE.) );
#244 = ( NAMED_UNIT(*) PLANE_ANGLE_UNIT() SI_UNIT($,.RADIAN.) );
#245 = ( NAMED_UNIT(*) SI_UNIT($,.STERADIAN.) SOLID_ANGLE_UNIT() );
#246 = UNCERTAINTY_MEASURE_WITH_UNIT(LENGTH_MEASURE(1.E-07),#243,
  'distance_accuracy_value','confusion accuracy');
#247 = CONTEXT_DEPENDENT_SHAPE_REPRESENTATION(#248,#250);
#248 = ( REPRESENTATION_RELATIONSHIP('','',#36,#10) 
REPRESENTATION_RELATIONSHIP_WITH_TRANSFORMATION(#249) 
SHAPE_REPRESENTATION_RELATIONSHIP() );
#249 = ITEM_DEFINED_TRANSFORMATION('','',#11,#15);
#250 = PRODUCT_DEFINITION_SHAPE('Placement','Placement of an item',#251
  );
#251 = NEXT_ASSEMBLY_USAGE_OCCURRENCE('39','','',#5,#31,$);
#252 = PRODUCT_RELATED_PRODUCT_CATEGORY('part',$,(#33));
#253 = SHAPE_DEFINITION_REPRESENTATION(#254,#260);
#254 = PRODUCT_DEFINITION_SHAPE('','',#255);
#255 = PRODUCT_DEFINITION('design','',#256,#259);
#256 = PRODUCT_DEFINITION_FORMATION('','',#257);
#257 = PRODUCT('Open CASCADE STEP translator 7.8 5.2',
  'Open CASCADE STEP translator 7.8 5.2','',(#258));
#258 = PRODUCT_CONTEXT('',#2,'mechanical');
#259 = PRODUCT_DEFINITION_CONTEXT('part definition',#2,'design');
#260 = GEOMETRICALLY_BOUNDED_WIREFRAME_SHAPE_REPRESENTATION('',(#11,#261
    ),#466);
#261 = GEOMETRIC_CURVE_SET('',(#262));
#262 = TRIMMED_CURVE('',#263,(#464,PARAMETER_VALUE(0.)),(#465,
    PARAMETER_VALUE(1.)),.T.,.PARAMETER.);
#263 = B_SPLINE_CURVE_WITH_KNOTS('',3,(#264,#265,#266,#267,#268,#269,
    #270,#271,#272,#273,#274,#275,#276,#277,#278,#279,#280,#281,#282,
    #283,#284,#285,#286,#287,#288,#289,#290,#291,#292,#293,#294,#295,
    #296,#297,#298,#299,#300,#301,#302,#303,#304,#305,#306,#307,#308,
    #309,#310,#311,#312,#313,#314,#315,#316,#317,#318,#319,#320,#321,
    #322,#323,#324,#325,#326,#327,#328,#329,#330,#331,#332,#333,#334,
    #335,#336,#337,#338,#339,#340,#341,#342,#343,#344,#345,#346,#347,
    #348,#349,#350,#351,#352,#353,#354,#355,#356,#357,#358,#359,#360,
    #361,#362,#363,#364,#365,#366,#367,#368,#369,#370,#371,#372,#373,
    #374,#375,#376,#377,#378,#379,#380,#381,#382,#383,#384,#385,#386,
    #387,#388,#389,#390,#391,#392,#393,#394,#395,#396,#397,#398,#399,
    #400,#401,#402,#403,#404,#405,#406,#407,#408,#409,#410,#411,#412,
    #413,#414,#415,#416,#417,#418,#419,#420,#421,#422,#423,#424,#425,
    #426,#427,#428,#429,#430,#431,#432,#433,#434,#435,#436,#437,#438,
    #439,#440,#441,#442,#443,#444,#445,#446,#447,#448,#449,#450,#451,
    #452,#453,#454,#455,#456,#457,#458,#459,#460,#461,#462,#463),
  .UNSPECIFIED.,.F.,.F.,(4,1,1,1,1,1,1,1,1,1,1,1,1,1,1,1,1,1,1,1,1,1,1,1
    ,1,1,1,1,1,1,1,1,1,1,1,1,1,1,1,1,1,1,1,1,1,1,1,1,1,1,1,1,1,1,1,1,1,1
    ,1,1,1,1,1,1,1,1,1,1,1,1,1,1,1,1,1,1,1,1,1,1,1,1,1,1,1,1,1,1,1,1,1,1
    ,1,1,1,1,1,1,1,1,1,1,1,1,1,1,1,1,1,1,1,1,1,1,1,1,1,1,1,1,1,1,1,1,1,1
    ,1,1,1,1,1,1,1,1,1,1,1,1,1,1,1,1,1,1,1,1,1,1,1,1,1,1,1,1,1,1,1,1,1,1
    ,1,1,1,1,1,1,1,1,1,1,1,1,1,1,1,1,1,1,1,1,1,1,1,1,1,1,1,1,1,1,1,1,1,1
    ,1,1,1,4),(0.,1.005029619872E-02,1.507544383371E-02,
    2.010059119159E-02,2.51257382455E-02,3.015088496652E-02,
    3.517603137213E-02,4.020117747134E-02,4.522632330248E-02,
    5.025146887439E-02,5.527661422009E-02,6.030175926894E-02,
    6.532690416233E-02,7.035204878901E-02,7.537719326574E-02,
    8.040233743428E-02,8.542748150534E-02,9.045262549313E-02,
    9.54777693919E-02,0.100502913107,0.10552805688,0.110553199032,
    0.115578329548,0.120603432798,0.1256284877,0.130653491098,
    0.135678492325,0.140703544256,0.145728665642,0.150753803646,
    0.155778907334,0.160803974802,0.165829031056,0.170854102561,
    0.175879190051,0.180904288645,0.185929391941,0.190954494366,
    0.195979593986,0.20100469059,0.206029783745,0.211054873258,
    0.216079956629,0.221105041292,0.226130124591,0.231155232252,
    0.23618035322,0.24120548067,0.246230610322,0.251255750724,
    0.256280904636,0.261306046439,0.26633118771,0.271356336552,
    0.276381500674,0.281406665312,0.286431830008,0.291456994783,
    0.296482159496,0.301507323944,0.306532487992,0.311557651445,
    0.316582814145,0.321607975896,0.326633136612,0.33165829605,
    0.336683454128,0.341708610551,0.34673376556,0.351758918067,
    0.356784067677,0.361809138684,0.366833936476,0.371858372571,
    0.376882868688,0.381907595426,0.386932680615,0.391957787011,
    0.396982918687,0.402008015354,0.407033077554,0.41205814169,
    0.41708323772,0.422108361966,0.427133499738,0.43215863939,
    0.437183773405,0.442208897107,0.447234014668,0.452259133371,
    0.457284262343,0.462309404563,0.467334557062,0.472359716517,
    0.477384879605,0.482410044198,0.487435208661,0.492460373047,
    0.497485537377,0.50251070101,0.507535861353,0.512561015663,
    0.517586162671,0.522611304599,0.527636444771,0.532661585214,
    0.537686726028,0.54271186687,0.547737007719,0.552762148576,
    0.557787289362,0.562812430067,0.567837570588,0.57286271056,
    0.577887849935,0.582912988893,0.587938127904,0.592963267752,
    0.597988409376,0.603013552762,0.608038698942,0.61306384919,
    0.618089004949,0.623114165486,0.628139328857,0.633164493005,
    0.63818965627,0.643214819369,0.64823998269,0.653265145759,
    0.658290305149,0.663315457401,0.668340604116,0.673365748776,
    0.678390895719,0.683416045547,0.688441197905,0.693466352632,
    0.698491509427,0.703516668046,0.708541828306,0.713566989864,
    0.718592152603,0.723617316151,0.72864248037,0.733667644964,
    0.738692809726,0.743717974397,0.748743138752,0.753768302542,
    0.758793465537,0.763818627469,0.76884378814,0.773868947275,
    0.778894104689,0.78391926012,0.788944413211,0.793969562025,
    0.798994702523,0.804019828722,0.809044936987,0.814070031629,
    0.819095119479,0.824120206915,0.829145295227,0.834170387239,
    0.839195485182,0.844220590368,0.849245702061,0.854270819504,
    0.859295941379,0.864321067167,0.869346196692,0.87437132946,
    0.879396465442,0.884421604102,0.889446744694,0.894471885924,
    0.899497027014,0.904522168264,0.909547309408,0.914572450219,
    0.919597591069,0.924622732438,0.92964787499,0.934673018727,
    0.939698163818,0.944723309824,0.949748457156,0.95477360576,
    0.959798755781,0.964823907114,0.969849059655,0.974874213477,
    0.979899368718,0.984924525131,0.989949682602,1.),.UNSPECIFIED.);
#264 = CARTESIAN_POINT('',(6.273802032E+03,374.4167264,0.));
#265 = CARTESIAN_POINT('',(6.274757819229E+03,374.45389640951,0.));
#266 = CARTESIAN_POINT('',(6.276192004508E+03,374.4967945854,0.));
#267 = CARTESIAN_POINT('',(6.278104800962E+03,374.52743544824,0.));
#268 = CARTESIAN_POINT('',(6.279539549507E+03,374.53713176713,0.));
#269 = CARTESIAN_POINT('',(6.28097432646E+03,374.53340661286,0.));
#270 = CARTESIAN_POINT('',(6.282409004256E+03,374.51610668121,0.));
#271 = CARTESIAN_POINT('',(6.283843452069E+03,374.48512716517,0.));
#272 = CARTESIAN_POINT('',(6.285277536402E+03,374.44036931407,0.));
#273 = CARTESIAN_POINT('',(6.286711119351E+03,374.38169994276,0.));
#274 = CARTESIAN_POINT('',(6.288144060848E+03,374.30902989622,0.));
#275 = CARTESIAN_POINT('',(6.289576222331E+03,374.22233104896,0.));
#276 = CARTESIAN_POINT('',(6.291007455041E+03,374.12145218885,0.));
#277 = CARTESIAN_POINT('',(6.292437616819E+03,374.00637624994,0.));
#278 = CARTESIAN_POINT('',(6.293866547883E+03,373.87691637952,0.));
#279 = CARTESIAN_POINT('',(6.295294126912E+03,373.73330543844,0.));
#280 = CARTESIAN_POINT('',(6.29672015659E+03,373.57504778028,0.));
#281 = CARTESIAN_POINT('',(6.29814453156E+03,373.40252976989,0.));
#282 = CARTESIAN_POINT('',(6.29956704647E+03,373.21529028104,0.));
#283 = CARTESIAN_POINT('',(6.300987605505E+03,373.0137524895,0.));
#284 = CARTESIAN_POINT('',(6.302406023007E+03,372.79765104933,0.));
#285 = CARTESIAN_POINT('',(6.30382214256E+03,372.56697005793,0.));
#286 = CARTESIAN_POINT('',(6.305235807599E+03,372.32171079986,0.));
#287 = CARTESIAN_POINT('',(6.306646942481E+03,372.06230539916,0.));
#288 = CARTESIAN_POINT('',(6.308054635473E+03,371.78466467856,0.));
#289 = CARTESIAN_POINT('',(6.309456481797E+03,371.47867507202,0.));
#290 = CARTESIAN_POINT('',(6.310850231063E+03,371.13737478125,0.));
#291 = CARTESIAN_POINT('',(6.312232108961E+03,370.75051897269,0.));
#292 = CARTESIAN_POINT('',(6.313601064782E+03,370.32060255299,0.));
#293 = CARTESIAN_POINT('',(6.314962980314E+03,369.86925819288,0.));
#294 = CARTESIAN_POINT('',(6.316323371838E+03,369.41336880119,0.));
#295 = CARTESIAN_POINT('',(6.317688270015E+03,368.97091952196,0.));
#296 = CARTESIAN_POINT('',(6.319063314692E+03,368.56079023546,0.));
#297 = CARTESIAN_POINT('',(6.320448353662E+03,368.18592528239,0.));
#298 = CARTESIAN_POINT('',(6.321841234894E+03,367.8414488003,0.));
#299 = CARTESIAN_POINT('',(6.323240970011E+03,367.5260201359,0.));
#300 = CARTESIAN_POINT('',(6.324646219068E+03,367.23622929836,0.));
#301 = CARTESIAN_POINT('',(6.326056236057E+03,366.9706116269,0.));
#302 = CARTESIAN_POINT('',(6.327470623357E+03,366.72932309423,0.));
#303 = CARTESIAN_POINT('',(6.328889103338E+03,366.51336081783,0.));
#304 = CARTESIAN_POINT('',(6.330311293476E+03,366.32335506297,0.));
#305 = CARTESIAN_POINT('',(6.331736755992E+03,366.15966843146,0.));
#306 = CARTESIAN_POINT('',(6.333165097463E+03,366.02333048236,0.));
#307 = CARTESIAN_POINT('',(6.334595838666E+03,365.91497674833,0.));
#308 = CARTESIAN_POINT('',(6.336028506501E+03,365.83591997826,0.));
#309 = CARTESIAN_POINT('',(6.33746249216E+03,365.78649606442,0.));
#310 = CARTESIAN_POINT('',(6.338897166519E+03,365.76450223279,0.));
#311 = CARTESIAN_POINT('',(6.340331937626E+03,365.76832949763,0.));
#312 = CARTESIAN_POINT('',(6.341766691224E+03,365.77798261973,0.));
#313 = CARTESIAN_POINT('',(6.343201067933E+03,365.81482737298,0.));
#314 = CARTESIAN_POINT('',(6.344634648141E+03,365.87333214267,0.));
#315 = CARTESIAN_POINT('',(6.346068144836E+03,365.93326866654,0.));
#316 = CARTESIAN_POINT('',(6.347501852604E+03,365.9890962613,0.));
#317 = CARTESIAN_POINT('',(6.348936331697E+03,366.02054032977,0.));
#318 = CARTESIAN_POINT('',(6.350371010989E+03,366.03607155884,0.));
#319 = CARTESIAN_POINT('',(6.351805640532E+03,366.05578207668,0.));
#320 = CARTESIAN_POINT('',(6.353240303669E+03,366.07298348962,0.));
#321 = CARTESIAN_POINT('',(6.354674921E+03,366.09366364149,0.));
#322 = CARTESIAN_POINT('',(6.356109541359E+03,366.11406638289,0.));
#323 = CARTESIAN_POINT('',(6.357544163763E+03,366.13434803609,0.));
#324 = CARTESIAN_POINT('',(6.358978806677E+03,366.15313215239,0.));
#325 = CARTESIAN_POINT('',(6.360413476468E+03,366.16977545571,0.));
#326 = CARTESIAN_POINT('',(6.361848182015E+03,366.18303846961,0.));
#327 = CARTESIAN_POINT('',(6.363282919645E+03,366.19228184249,0.));
#328 = CARTESIAN_POINT('',(6.364717682227E+03,366.19639875302,0.));
#329 = CARTESIAN_POINT('',(6.366152450192E+03,366.19443162262,0.));
#330 = CARTESIAN_POINT('',(6.367587193352E+03,366.18558911013,0.));
#331 = CARTESIAN_POINT('',(6.369021868153E+03,366.16893858396,0.));
#332 = CARTESIAN_POINT('',(6.370456416828E+03,366.14349041246,0.));
#333 = CARTESIAN_POINT('',(6.371890753975E+03,366.10818838594,0.));
#334 = CARTESIAN_POINT('',(6.373324829245E+03,366.06312376985,0.));
#335 = CARTESIAN_POINT('',(6.37475838389E+03,366.00434396668,0.));
#336 = CARTESIAN_POINT('',(6.376191652131E+03,365.93900771878,0.));
#337 = CARTESIAN_POINT('',(6.377626037283E+03,365.9052928055,0.));
#338 = CARTESIAN_POINT('',(6.379061563165E+03,365.93988438171,0.));
#339 = CARTESIAN_POINT('',(6.380488730912E+03,366.09688795246,0.));
#340 = CARTESIAN_POINT('',(6.381907438963E+03,366.31045566455,0.));
#341 = CARTESIAN_POINT('',(6.383334775277E+03,366.45960497908,0.));
#342 = CARTESIAN_POINT('',(6.384763999204E+03,366.5847998533,0.));
#343 = CARTESIAN_POINT('',(6.386193877324E+03,366.70311469465,0.));
#344 = CARTESIAN_POINT('',(6.387622327659E+03,366.83821152235,0.));
#345 = CARTESIAN_POINT('',(6.389047165695E+03,367.00797539318,0.));
#346 = CARTESIAN_POINT('',(6.390467028612E+03,367.21497341795,0.));
#347 = CARTESIAN_POINT('',(6.391882395243E+03,367.45041434279,0.));
#348 = CARTESIAN_POINT('',(6.393293967608E+03,367.70752027377,0.));
#349 = CARTESIAN_POINT('',(6.394702380162E+03,367.98132852136,0.));
#350 = CARTESIAN_POINT('',(6.396108134468E+03,368.2684751759,0.));
#351 = CARTESIAN_POINT('',(6.397510533169E+03,368.57164484104,0.));
#352 = CARTESIAN_POINT('',(6.398908753858E+03,368.89356775612,0.));
#353 = CARTESIAN_POINT('',(6.400302009688E+03,369.23640047113,0.));
#354 = CARTESIAN_POINT('',(6.401689325431E+03,369.60253529379,0.));
#355 = CARTESIAN_POINT('',(6.40307103285E+03,369.98922577116,0.));
#356 = CARTESIAN_POINT('',(6.404448069492E+03,370.39218266577,0.));
#357 = CARTESIAN_POINT('',(6.405821510303E+03,370.80719913928,0.));
#358 = CARTESIAN_POINT('',(6.407192381748E+03,371.23060610673,0.));
#359 = CARTESIAN_POINT('',(6.40856184067E+03,371.65854748832,0.));
#360 = CARTESIAN_POINT('',(6.409931345876E+03,372.08634073646,0.));
#361 = CARTESIAN_POINT('',(6.411301024525E+03,372.51357983821,0.));
#362 = CARTESIAN_POINT('',(6.412669895833E+03,372.94340225769,0.));
#363 = CARTESIAN_POINT('',(6.414037834955E+03,373.37617892807,0.));
#364 = CARTESIAN_POINT('',(6.415405726837E+03,373.80910212678,0.));
#365 = CARTESIAN_POINT('',(6.416774662983E+03,374.23871970692,0.));
#366 = CARTESIAN_POINT('',(6.418145943258E+03,374.6608187901,0.));
#367 = CARTESIAN_POINT('',(6.419520786261E+03,375.07119692034,0.));
#368 = CARTESIAN_POINT('',(6.4208999165E+03,375.466951667,0.));
#369 = CARTESIAN_POINT('',(6.422283490003E+03,375.8468794318,0.));
#370 = CARTESIAN_POINT('',(6.423671151362E+03,376.21158261454,0.));
#371 = CARTESIAN_POINT('',(6.425062679993E+03,376.56124413669,0.));
#372 = CARTESIAN_POINT('',(6.426457986355E+03,376.89551372631,0.));
#373 = CARTESIAN_POINT('',(6.427856847172E+03,377.21457718997,0.));
#374 = CARTESIAN_POINT('',(6.429259088216E+03,377.51844436938,0.));
#375 = CARTESIAN_POINT('',(6.430664593367E+03,377.80683820346,0.));
#376 = CARTESIAN_POINT('',(6.432073159925E+03,378.07988412739,0.));
#377 = CARTESIAN_POINT('',(6.433484622415E+03,378.3375446895,0.));
#378 = CARTESIAN_POINT('',(6.43489884957E+03,378.5795745626,0.));
#379 = CARTESIAN_POINT('',(6.436315691548E+03,378.80579870258,0.));
#380 = CARTESIAN_POINT('',(6.437735009748E+03,379.0159341399,0.));
#381 = CARTESIAN_POINT('',(6.439156637436E+03,379.20982900382,0.));
#382 = CARTESIAN_POINT('',(6.440580369125E+03,379.3876159055,0.));
#383 = CARTESIAN_POINT('',(6.442005991352E+03,379.54952436694,0.));
#384 = CARTESIAN_POINT('',(6.443433215018E+03,379.6966267346,0.));
#385 = CARTESIAN_POINT('',(6.444861858885E+03,379.8292304228,0.));
#386 = CARTESIAN_POINT('',(6.446291708146E+03,379.94808241086,0.));
#387 = CARTESIAN_POINT('',(6.447722425798E+03,380.05587815497,0.));
#388 = CARTESIAN_POINT('',(6.449153683389E+03,380.15618581946,0.));
#389 = CARTESIAN_POINT('',(6.450585254322E+03,380.25188344852,0.));
#390 = CARTESIAN_POINT('',(6.452016893884E+03,380.34653134268,0.));
#391 = CARTESIAN_POINT('',(6.453448427194E+03,380.44281052746,0.));
#392 = CARTESIAN_POINT('',(6.454879552153E+03,380.54501376403,0.));
#393 = CARTESIAN_POINT('',(6.456310315783E+03,380.65210321052,0.));
#394 = CARTESIAN_POINT('',(6.457741077436E+03,380.75921156188,0.));
#395 = CARTESIAN_POINT('',(6.459172171229E+03,380.86182375982,0.));
#396 = CARTESIAN_POINT('',(6.460603853675E+03,380.95600435275,0.));
#397 = CARTESIAN_POINT('',(6.462036387166E+03,381.03640563186,0.));
#398 = CARTESIAN_POINT('',(6.463469698889E+03,381.10143086152,0.));
#399 = CARTESIAN_POINT('',(6.464903571484E+03,381.15249163856,0.));
#400 = CARTESIAN_POINT('',(6.466337845614E+03,381.19056107965,0.));
#401 = CARTESIAN_POINT('',(6.467772380939E+03,381.21687198051,0.));
#402 = CARTESIAN_POINT('',(6.469207070898E+03,381.23248481988,0.));
#403 = CARTESIAN_POINT('',(6.470641831175E+03,381.23843710779,0.));
#404 = CARTESIAN_POINT('',(6.472076600421E+03,381.2360707616,0.));
#405 = CARTESIAN_POINT('',(6.473511335906E+03,381.22615272297,0.));
#406 = CARTESIAN_POINT('',(6.474946015008E+03,381.21015007326,0.));
#407 = CARTESIAN_POINT('',(6.476380625382E+03,381.18891390671,0.));
#408 = CARTESIAN_POINT('',(6.477815170504E+03,381.16370321263,0.));
#409 = CARTESIAN_POINT('',(6.479249659907E+03,381.1355246243,0.));
#410 = CARTESIAN_POINT('',(6.480684111771E+03,381.10551533066,0.));
#411 = CARTESIAN_POINT('',(6.482118549944E+03,381.07486463009,0.));
#412 = CARTESIAN_POINT('',(6.483552995235E+03,381.04454474614,0.));
#413 = CARTESIAN_POINT('',(6.484987472209E+03,381.01574900238,0.));
#414 = CARTESIAN_POINT('',(6.48642199885E+03,380.98951554963,0.));
#415 = CARTESIAN_POINT('',(6.487856589413E+03,380.96700429023,0.));
#416 = CARTESIAN_POINT('',(6.489291247868E+03,380.94925997715,0.));
#417 = CARTESIAN_POINT('',(6.490725968995E+03,380.93750205906,0.));
#418 = CARTESIAN_POINT('',(6.492160731717E+03,380.93272124746,0.));
#419 = CARTESIAN_POINT('',(6.493595499926E+03,380.936114062,0.));
#420 = CARTESIAN_POINT('',(6.495030218957E+03,380.94869176304,0.));
#421 = CARTESIAN_POINT('',(6.496464810581E+03,380.97167050155,0.));
#422 = CARTESIAN_POINT('',(6.497899180266E+03,381.00585187514,0.));
#423 = CARTESIAN_POINT('',(6.499333182688E+03,381.05320042593,0.));
#424 = CARTESIAN_POINT('',(6.500766534777E+03,381.11754394318,0.));
#425 = CARTESIAN_POINT('',(6.502198783303E+03,381.20342006183,0.));
#426 = CARTESIAN_POINT('',(6.503629168427E+03,381.31638509306,0.));
#427 = CARTESIAN_POINT('',(6.505057055709E+03,381.45743371391,0.));
#428 = CARTESIAN_POINT('',(6.506481890954E+03,381.62654112164,0.));
#429 = CARTESIAN_POINT('',(6.507903144408E+03,381.82350797716,0.));
#430 = CARTESIAN_POINT('',(6.509320241499E+03,382.04842229812,0.));
#431 = CARTESIAN_POINT('',(6.510732862193E+03,382.29987388585,0.));
#432 = CARTESIAN_POINT('',(6.512140811021E+03,382.5762528759,0.));
#433 = CARTESIAN_POINT('',(6.513543949627E+03,382.87607310523,0.));
#434 = CARTESIAN_POINT('',(6.514942167214E+03,383.19803704634,0.));
#435 = CARTESIAN_POINT('',(6.516335477652E+03,383.54059333973,0.));
#436 = CARTESIAN_POINT('',(6.517723773553E+03,383.90293783686,0.));
#437 = CARTESIAN_POINT('',(6.519106890036E+03,384.28455471603,0.));
#438 = CARTESIAN_POINT('',(6.520485127675E+03,384.68341658768,0.));
#439 = CARTESIAN_POINT('',(6.52185830484E+03,385.09937206997,0.));
#440 = CARTESIAN_POINT('',(6.523226404081E+03,385.53171565308,0.));
#441 = CARTESIAN_POINT('',(6.524589852235E+03,385.97850101367,0.));
#442 = CARTESIAN_POINT('',(6.525948372234E+03,386.44006448001,0.));
#443 = CARTESIAN_POINT('',(6.527301710377E+03,386.91660344831,0.));
#444 = CARTESIAN_POINT('',(6.528649884349E+03,387.4075616096,0.));
#445 = CARTESIAN_POINT('',(6.529992624096E+03,387.91319266411,0.));
#446 = CARTESIAN_POINT('',(6.531329855053E+03,388.43322157516,0.));
#447 = CARTESIAN_POINT('',(6.53266116579E+03,388.96822331661,0.));
#448 = CARTESIAN_POINT('',(6.53398668326E+03,389.51742178378,0.));
#449 = CARTESIAN_POINT('',(6.535306049767E+03,390.08123248381,0.));
#450 = CARTESIAN_POINT('',(6.536619695024E+03,390.65824428309,0.));
#451 = CARTESIAN_POINT('',(6.537927274377E+03,391.24887167419,0.));
#452 = CARTESIAN_POINT('',(6.539229197828E+03,391.85186016113,0.));
#453 = CARTESIAN_POINT('',(6.54052516957E+03,392.46753713077,0.));
#454 = CARTESIAN_POINT('',(6.541815469657E+03,393.09500755576,0.));
#455 = CARTESIAN_POINT('',(6.543100229338E+03,393.73374253317,0.));
#456 = CARTESIAN_POINT('',(6.544379628299E+03,394.38314839751,0.));
#457 = CARTESIAN_POINT('',(6.545653627583E+03,395.04307907967,0.));
#458 = CARTESIAN_POINT('',(6.546922825361E+03,395.71219684949,0.));
#459 = CARTESIAN_POINT('',(6.548186875301E+03,396.39098806745,0.));
#460 = CARTESIAN_POINT('',(6.549446566944E+03,397.0778266314,0.));
#461 = CARTESIAN_POINT('',(6.551120527839E+03,398.00386203168,0.));
#462 = CARTESIAN_POINT('',(6.552369578444E+03,398.70990518256,0.));
#463 = CARTESIAN_POINT('',(6.5532E+03,399.1845712,0.));
#464 = CARTESIAN_POINT('',(6.273802032E+03,374.4167264,0.));
#465 = CARTESIAN_POINT('',(6.5532E+03,399.1845712,0.));
#466 = ( GEOMETRIC_REPRESENTATION_CONTEXT(3) 
GLOBAL_UNCERTAINTY_ASSIGNED_CONTEXT((#470)) GLOBAL_UNIT_ASSIGNED_CONTEXT
((#467,#468,#469)) REPRESENTATION_CONTEXT('Context #1',
  '3D Context with UNIT and UNCERTAINTY') );
#467 = ( LENGTH_UNIT() NAMED_UNIT(*) SI_UNIT(.MILLI.,.METRE.) );
#468 = ( NAMED_UNIT(*) PLANE_ANGLE_UNIT() SI_UNIT($,.RADIAN.) );
#469 = ( NAMED_UNIT(*) SI_UNIT($,.STERADIAN.) SOLID_ANGLE_UNIT() );
#470 = UNCERTAINTY_MEASURE_WITH_UNIT(LENGTH_MEASURE(1.E-07),#467,
  'distance_accuracy_value','confusion accuracy');
#471 = CONTEXT_DEPENDENT_SHAPE_REPRESENTATION(#472,#474);
#472 = ( REPRESENTATION_RELATIONSHIP('','',#260,#10) 
REPRESENTATION_RELATIONSHIP_WITH_TRANSFORMATION(#473) 
SHAPE_REPRESENTATION_RELATIONSHIP() );
#473 = ITEM_DEFINED_TRANSFORMATION('','',#11,#19);
#474 = PRODUCT_DEFINITION_SHAPE('Placement','Placement of an item',#475
  );
#475 = NEXT_ASSEMBLY_USAGE_OCCURRENCE('40','','',#5,#255,$);
#476 = PRODUCT_RELATED_PRODUCT_CATEGORY('part',$,(#257));
ENDSEC;
END-ISO-10303-21;
