EEE-HPT Smoothed Blade Geometry                                         S      1
1H,,1H;,14Hhub_shroud.igs,7Hexport_iges,7Hexport_iges,32,38,6,308,15,14HG      1
hub_shroud.igs,1.0,2,2HMM,1,0.001,15H20260316.000000,0.0001,100000.0,0H,G      2
0H;                                                                     G      3
     126       1       0       0       0       0       0       000000000D      1
     126       0       0     193       0                     Hub       0D      2
     126     194       0       0       0       0       0       000000000D      3
     126       0       0     193       0                  Shroud       0D      4
126,199,203,1,0,1,0,0.0000000000,0.0000000000,0.0000000000,0.000       1P      1
0000000,0.0100503024,0.0150754535,0.0201006047,0.0251257558,0.03       1P      2
01509069,0.0351760579,0.0402012089,0.0452263599,0.0502515109,0.0       1P      3
552766618,0.0603018127,0.0653269636,0.0703521145,0.0753772653,0.       1P      4
0804024161,0.0854275668,0.0904527175,0.0954778682,0.1005030189,0       1P      5
.1055281695,0.1105533201,0.1155784706,0.1206036221,0.1256287722,       1P      6
0.1306539131,0.1356790292,0.1407041098,0.1457291645,0.1507542138       1P      7
,0.1557792748,0.1608043501,0.1658294360,0.1708545268,0.175879617       1P      8
1,0.1809047036,0.1859297870,0.1909548684,0.1959799495,0.20100503       1P      9
15,0.2060301150,0.2110551994,0.2160802834,0.2211053654,0.2261304       1P     10
446,0.2311555224,0.2361806219,0.2412057439,0.2462308911,0.251255       1P     11
8661,0.2562805890,0.2613052999,0.2663299883,0.2713547962,0.27637       1P     12
96103,0.2814045981,0.2864297207,0.2914548470,0.2964799924,0.3015       1P     13
051332,0.3065302713,0.3115554097,0.3165805501,0.3216056919,0.326       1P     14
6308354,0.3316559802,0.3366811265,0.3417062739,0.3467314225,0.35       1P     15
17565720,0.3567817224,0.3618068736,0.3668320254,0.3718571778,0.3       1P     16
768823306,0.3819074838,0.3869326371,0.3919577906,0.3969829442,0.       1P     17
4020080977,0.4070332512,0.4120584047,0.4170835582,0.4221087116,0       1P     18
.4271338648,0.4321590170,0.4371841665,0.4422093086,0.4472344361,       1P     19
0.4522595418,0.4572846270,0.4623097044,0.4673347870,0.4723598828       1P     20
,0.4773849903,0.4824101122,0.4874352486,0.4924603963,0.497485545       1P     21
1,0.5025106910,0.5075358332,0.5125609761,0.5175861194,0.52261126       1P     22
36,0.5276364080,0.5326615524,0.5376866966,0.5427118403,0.5477369       1P     23
837,0.5527621267,0.5577872697,0.5628124125,0.5678375553,0.572862       1P     24
6982,0.5778878415,0.5829129855,0.5879381301,0.5929632753,0.59798       1P     25
84199,0.6030135634,0.6080387047,0.6130638437,0.6180889831,0.6231       1P     26
141265,0.6281392755,0.6331644274,0.6381895783,0.6432147282,0.648       1P     27
2398786,0.6532650309,0.6582901840,0.6633153367,0.6683404878,0.67       1P     28
33656359,0.6783907799,0.6834159195,0.6884410569,0.6934661944,0.6       1P     29
984913339,0.7035164754,0.7085416186,0.7135667635,0.7185919098,0.       1P     30
7236170575,0.7286422063,0.7336673563,0.7386925071,0.7437176587,0       1P     31
.7487428110,0.7537679638,0.7587931169,0.7638182703,0.7688434238,       1P     32
0.7738685773,0.7788937306,0.7839188836,0.7889440362,0.7939691882       1P     33
,0.7989943396,0.8040194907,0.8090446420,0.8140697940,0.819094946       1P     34
6,0.8241200997,0.8291452526,0.8341704032,0.8391955488,0.84422068       1P     35
87,0.8492458246,0.8542709582,0.8592960900,0.8643212204,0.8693463       1P     36
503,0.8743714806,0.8793966119,0.8844217439,0.8894468767,0.894472       1P     37
0103,0.8994971449,0.9045222804,0.9095474169,0.9145725541,0.91959       1P     38
76924,0.9246228314,0.9296479712,0.9346731119,0.9396982534,0.9447       1P     39
233956,0.9497485385,0.9547736822,0.9597988265,0.9648239713,0.969       1P     40
8491167,0.9748742627,0.9798994092,0.9849245563,0.9899497038,1.00       1P     41
00000000,1.0000000000,1.0000000000,1.0000000000,1.0,1.0,1.0,1.0,       1P     42
1.0,1.0,1.0,1.0,1.0,1.0,1.0,1.0,1.0,1.0,1.0,1.0,1.0,1.0,1.0,1.0,       1P     43
1.0,1.0,1.0,1.0,1.0,1.0,1.0,1.0,1.0,1.0,1.0,1.0,1.0,1.0,1.0,1.0,       1P     44
1.0,1.0,1.0,1.0,1.0,1.0,1.0,1.0,1.0,1.0,1.0,1.0,1.0,1.0,1.0,1.0,       1P     45
1.0,1.0,1.0,1.0,1.0,1.0,1.0,1.0,1.0,1.0,1.0,1.0,1.0,1.0,1.0,1.0,       1P     46
1.0,1.0,1.0,1.0,1.0,1.0,1.0,1.0,1.0,1.0,1.0,1.0,1.0,1.0,1.0,1.0,       1P     47
1.0,1.0,1.0,1.0,1.0,1.0,1.0,1.0,1.0,1.0,1.0,1.0,1.0,1.0,1.0,1.0,       1P     48
1.0,1.0,1.0,1.0,1.0,1.0,1.0,1.0,1.0,1.0,1.0,1.0,1.0,1.0,1.0,1.0,       1P     49
1.0,1.0,1.0,1.0,1.0,1.0,1.0,1.0,1.0,1.0,1.0,1.0,1.0,1.0,1.0,1.0,       1P     50
1.0,1.0,1.0,1.0,1.0,1.0,1.0,1.0,1.0,1.0,1.0,1.0,1.0,1.0,1.0,1.0,       1P     51
1.0,1.0,1.0,1.0,1.0,1.0,1.0,1.0,1.0,1.0,1.0,1.0,1.0,1.0,1.0,1.0,       1P     52
1.0,1.0,1.0,1.0,1.0,1.0,1.0,1.0,1.0,1.0,1.0,1.0,1.0,1.0,1.0,1.0,       1P     53
1.0,1.0,1.0,1.0,1.0,1.0,1.0,1.0,1.0,1.0,1.0,1.0,1.0,1.0,1.0,1.0,       1P     54
1.0,1.0,1.0,1.0,6273.8007620000,306.1648944000,0.0000000000,6274       1P     55
.7043996208,306.4688111814,0.0000000000,6276.0583506723,306.9291       1P     56
685753,0.0000000000,6277.8602932442,307.5526439711,0.0000000000,       1P     57
6279.2102201221,308.0246500390,0.0000000000,6280.5583923268,308.       1P     58
5016448009,0.0000000000,6281.9049717042,308.9831180786,0.0000000       1P     59
000,6283.2497477279,309.4696047734,0.0000000000,6284.5929458014,       1P     60
309.9604325089,0.0000000000,6285.9341909082,310.4565718807,0.000       1P     61
0000000,6287.2738417862,310.9569991849,0.0000000000,6288.6115492       1P     62
768,311.4626001050,0.0000000000,6289.9474822583,311.9728694236,0       1P     63
.0000000000,6291.2815644487,312.4879601647,0.0000000000,6292.613       1P     64
6674471,313.0081465127,0.0000000000,6293.9440061417,313.53282898       1P     65
99,0.0000000000,6295.2722522625,314.0627880114,0.0000000000,6296       1P     66
.5985284519,314.5976557982,0.0000000000,6297.9228921309,315.1372       1P     67
425682,0.0000000000,6299.2451340470,315.6820094298,0.0000000000,       1P     68
6300.5652361674,316.2319393759,0.0000000000,6301.8834073785,316.       1P     69
7864818635,0.0000000000,6303.1993646582,317.3462598925,0.0000000       1P     70
000,6304.5130827665,317.9112712840,0.0000000000,6305.8246559703,       1P     71
318.4812464553,0.0000000000,6307.1340745768,319.0561403852,0.000       1P     72
0000000,6308.4449445977,319.6277265764,0.0000000000,6309.7610484       1P     73
562,320.1872061581,0.0000000000,6311.0857191892,320.7262171835,0       1P     74
.0000000000,6312.4223703565,321.2349321639,0.0000000000,6313.771       1P     75
1180066,321.7106027496,0.0000000000,6315.1299786684,322.15648404       1P     76
54,0.0000000000,6316.4976918340,322.5743953973,0.0000000000,6317       1P     77
.8730512221,322.9663575750,0.0000000000,6319.2549492630,323.3345       1P     78
781151,0.0000000000,6320.6429970597,323.6789208287,0.0000000000,       1P     79
6322.0370755868,323.9979883218,0.0000000000,6323.4367798571,324.       1P     80
2914106529,0.0000000000,6324.8418386530,324.5580331664,0.0000000       1P     81
000,6326.2517099274,324.7978997716,0.0000000000,6327.6658838367,       1P     82
325.0109356026,0.0000000000,6329.0838100314,325.1973545565,0.000       1P     83
0000000,6330.5049506498,325.3574165562,0.0000000000,6331.9287870       1P     84
995,325.4913891069,0.0000000000,6333.3548784576,325.5988039420,0       1P     85
.0000000000,6334.7827612305,325.6789129811,0.0000000000,6336.211       1P     86
9302136,325.7317396493,0.0000000000,6337.6418870643,325.75468512       1P     87
96,0.0000000000,6339.0719462780,325.7562443669,0.0000000000,6340       1P     88
.5020313711,325.7534172734,0.0000000000,6341.9318541538,325.7453       1P     89
892772,0.0000000000,6343.3623231745,325.7231036237,0.0000000000,       1P     90
6344.7873216305,325.5893467302,0.0000000000,6346.2030437808,325.       1P     91
3894660561,0.0000000000,6347.6245908839,325.2271136124,0.0000000       1P     92
000,6349.0540015068,325.1660551018,0.0000000000,6350.4835509403,       1P     93
325.1350122525,0.0000000000,6351.9134943857,325.1117805102,0.000       1P     94
0000000,6353.3435860200,325.1161891652,0.0000000000,6354.7735913       1P     95
796,325.1016213307,0.0000000000,6356.2035221258,325.0815905890,0       1P     96
.0000000000,6357.6331803807,325.0465397678,0.0000000000,6359.062       1P     97
4673411,324.9990305205,0.0000000000,6360.4913034816,324.93945720       1P     98
89,0.0000000000,6361.9196307501,324.8687754687,0.0000000000,6363       1P     99
.3473959428,324.7875363394,0.0000000000,6364.7745650201,324.6964       1P    100
569154,0.0000000000,6366.2011514199,324.5966784739,0.0000000000,       1P    101
6367.6271187918,324.4884209502,0.0000000000,6369.0525029524,324.       1P    102
3727594860,0.0000000000,6370.4773401166,324.2505502610,0.0000000       1P    103
000,6371.9016410702,324.1222490258,0.0000000000,6373.3254546107,       1P    104
323.9886576064,0.0000000000,6374.7488483419,323.8506708020,0.000       1P    105
0000000,6376.1718674428,323.7088767247,0.0000000000,6377.5945821       1P    106
312,323.5640651126,0.0000000000,6379.0170713950,323.4170581831,0       1P    107
.0000000000,6380.4393911534,323.2684217076,0.0000000000,6381.861       1P    108
6092619,323.1188168487,0.0000000000,6383.2837837955,322.96879852       1P    109
15,0.0000000000,6384.7059386438,322.8185936599,0.0000000000,6386       1P    110
.1281329527,322.6687628399,0.0000000000,6387.5504021174,322.5196       1P    111
430095,0.0000000000,6388.9728028032,322.3717836340,0.0000000000,       1P    112
6390.3952468055,322.2243423169,0.0000000000,6391.8175343011,322.       1P    113
0753969169,0.0000000000,6393.2396070050,321.9244144342,0.0000000       1P    114
000,6394.6612771243,321.7696766014,0.0000000000,6396.0821756156,       1P    115
321.6079729621,0.0000000000,6397.5016944448,321.4344704896,0.000       1P    116
0000000,6398.9188605896,321.2425207964,0.0000000000,6400.3324884       1P    117
378,321.0258410576,0.0000000000,6401.7413498125,320.7800106013,0       1P    118
.0000000000,6403.1450160722,320.5061613090,0.0000000000,6404.543       1P    119
5854446,320.2074417954,0.0000000000,6405.9372021714,319.88644461       1P    120
58,0.0000000000,6407.3260577621,319.5454749393,0.0000000000,6408       1P    121
.7108914756,319.1886041381,0.0000000000,6410.0936866564,318.8239       1P    122
711908,0.0000000000,6411.4761698139,318.4581514966,0.0000000000,       1P    123
6412.8606631169,318.0999680949,0.0000000000,6414.2480292600,317.       1P    124
7530737189,0.0000000000,6415.6378850512,317.4163036885,0.0000000       1P    125
000,6417.0302010219,317.0898552655,0.0000000000,6418.4246860374,       1P    126
316.7728055838,0.0000000000,6419.8213150921,316.4653368189,0.000       1P    127
0000000,6421.2199451522,316.1671056066,0.0000000000,6422.6205395       1P    128
706,315.8782369031,0.0000000000,6424.0231050619,315.5990918743,0       1P    129
.0000000000,6425.4276223160,315.3299385962,0.0000000000,6426.834       1P    130
0252100,315.0708172410,0.0000000000,6428.2422852061,314.82198443       1P    131
21,0.0000000000,6429.6523217343,314.5834266437,0.0000000000,6431       1P    132
.0640517472,314.3551009959,0.0000000000,6432.4774456343,314.1373       1P    133
109493,0.0000000000,6433.8923804849,313.9297744743,0.0000000000,       1P    134
6435.3087296768,313.7321247330,0.0000000000,6436.7263908285,313.       1P    135
5441186495,0.0000000000,6438.1452516711,313.3654021710,0.0000000       1P    136
000,6439.5651880384,313.1954421075,0.0000000000,6440.9862402958,       1P    137
313.0350587972,0.0000000000,6442.4084470197,312.8852487041,0.000       1P    138
0000000,6443.8318046976,312.7467609582,0.0000000000,6445.2563925       1P    139
275,312.6215135031,0.0000000000,6446.6820241735,312.5088646882,0       1P    140
.0000000000,6448.1082489173,312.4041160704,0.0000000000,6449.534       1P    141
6761396,312.3021998228,0.0000000000,6450.9609558888,312.19818867       1P    142
22,0.0000000000,6452.3866851363,312.0868263818,0.0000000000,6453       1P    143
.8118250429,311.9682077924,0.0000000000,6455.2366435706,311.8458       1P    144
218131,0.0000000000,6456.6613124924,311.7217102686,0.0000000000,       1P    145
6458.0860556755,311.5984506866,0.0000000000,6459.5110869535,311.       1P    146
4785515898,0.0000000000,6460.9365934188,311.3644051209,0.0000000       1P    147
000,6462.3627574147,311.2587422077,0.0000000000,6463.7896882430,       1P    148
311.1639029177,0.0000000000,6465.2174539055,311.0825216412,0.000       1P    149
0000000,6466.6459164004,311.0145371740,0.0000000000,6468.0749003       1P    150
401,310.9586237402,0.0000000000,6469.5042930566,310.9144156275,0       1P    151
.0000000000,6470.9339709303,310.8807608544,0.0000000000,6472.363       1P    152
8446869,310.8569007098,0.0000000000,6473.7938387803,310.84201976       1P    153
01,0.0000000000,6475.2238932089,310.8353102518,0.0000000000,6476       1P    154
.6539622982,310.8358250419,0.0000000000,6478.0840130693,310.8428       1P    155
821906,0.0000000000,6479.5140251225,310.8554554010,0.0000000000,       1P    156
6480.9439853442,310.8729088779,0.0000000000,6482.3738914251,310.       1P    157
8942979606,0.0000000000,6483.8037468492,310.9188155979,0.0000000       1P    158
000,6485.2335612810,310.9456001002,0.0000000000,6486.6633459080,       1P    159
310.9739205183,0.0000000000,6488.0931176552,311.0028784463,0.000       1P    160
0000000,6489.5228936834,311.0316254281,0.0000000000,6490.9526890       1P    161
153,311.0594039255,0.0000000000,6492.3825196280,311.0853166576,0       1P    162
.0000000000,6493.8123958457,311.1086035760,0.0000000000,6495.242       1P    163
3252042,311.1283857609,0.0000000000,6496.6723078368,311.14394373       1P    164
94,0.0000000000,6498.1023403191,311.1540182706,0.0000000000,6499       1P    165
.5323991812,311.1588747857,0.0000000000,6500.9624654560,311.1593       1P    166
457893,0.0000000000,6502.3925280403,311.1563451775,0.0000000000,       1P    167
6503.8225827251,311.1508130084,0.0000000000,6505.2526288802,311.       1P    168
1435624099,0.0000000000,6506.6826831307,311.1380150511,0.0000000       1P    169
000,6508.1127545696,311.1386638581,0.0000000000,6509.5427858807,       1P    170
311.1504741495,0.0000000000,6510.9726456424,311.1756946555,0.000       1P    171
0000000,6512.4021936089,311.2148015182,0.0000000000,6513.8312721       1P    172
489,311.2684302552,0.0000000000,6515.2597039053,311.3372161482,0       1P    173
.0000000000,6516.6872847802,311.4218484257,0.0000000000,6518.113       1P    174
8654068,311.5219130539,0.0000000000,6519.5393007343,311.63713925       1P    175
99,0.0000000000,6520.9634596603,311.7671904212,0.0000000000,6522       1P    176
.3861972320,311.9119566525,0.0000000000,6523.8074147525,312.0709       1P    177
485330,0.0000000000,6525.2269864378,312.2440089258,0.0000000000,       1P    178
6526.6448583415,312.4304845925,0.0000000000,6528.0608716770,312.       1P    179
6305742718,0.0000000000,6529.4750677610,312.8431200231,0.0000000       1P    180
000,6530.8872771773,313.0684929863,0.0000000000,6532.2974921023,       1P    181
313.3060097880,0.0000000000,6533.7057237761,313.5550191413,0.000       1P    182
0000000,6535.1118082397,313.8158778482,0.0000000000,6536.5158310       1P    183
283,314.0876027894,0.0000000000,6537.9177665596,314.3699023815,0       1P    184
.0000000000,6539.3175166665,314.6628430658,0.0000000000,6540.715       1P    185
1641828,314.9656464711,0.0000000000,6542.1107552689,315.27779572       1P    186
22,0.0000000000,6543.5041067625,315.5997896242,0.0000000000,6544       1P    187
.8954523342,315.9303405205,0.0000000000,6546.2846278997,316.2698       1P    188
930420,0.0000000000,6547.6718440940,316.6173649539,0.0000000000,       1P    189
6549.0568316817,316.9736123788,0.0000000000,6550.9010807519,317.       1P    190
4578413765,0.0000000000,6552.2811754588,317.8326605634,0.0000000       1P    191
000,6553.2000000000,318.0869940000,0.0000000000,0.0000000000,1.0       1P    192
000000000,0.0,0.0,0.0;                                                 1P    193
126,199,203,1,0,1,0,0.0000000000,0.0000000000,0.0000000000,0.000       3P    194
0000000,0.0100502962,0.0150754438,0.0201005912,0.0251257382,0.03       3P    195
01508850,0.0351760314,0.0402011775,0.0452263233,0.0502514689,0.0       3P    196
552766142,0.0603017593,0.0653269042,0.0703520488,0.0753771933,0.       3P    197
0804023374,0.0854274815,0.0904526255,0.0954777694,0.1005029131,0       3P    198
.1055280569,0.1105531990,0.1155783295,0.1206034328,0.1256284877,       3P    199
0.1306534911,0.1356784923,0.1407035443,0.1457286656,0.1507538036       3P    200
,0.1557789073,0.1608039748,0.1658290311,0.1708541026,0.175879190       3P    201
1,0.1809042886,0.1859293919,0.1909544944,0.1959795940,0.20100469       3P    202
06,0.2060297837,0.2110548733,0.2160799566,0.2211050413,0.2261301       3P    203
246,0.2311552323,0.2361803532,0.2412054807,0.2462306103,0.251255       3P    204
7507,0.2562809046,0.2613060464,0.2663311877,0.2713563366,0.27638       3P    205
15007,0.2814066653,0.2864318300,0.2914569948,0.2964821595,0.3015       3P    206
073239,0.3065324880,0.3115576514,0.3165828141,0.3216079759,0.326       3P    207
6331366,0.3316582960,0.3366834541,0.3417086106,0.3467337656,0.35       3P    208
17589181,0.3567840677,0.3618091387,0.3668339365,0.3718583726,0.3       3P    209
768828687,0.3819075954,0.3869326806,0.3919577870,0.3969829187,0.       3P    210
4020080154,0.4070330776,0.4120581417,0.4170832377,0.4221083620,0       3P    211
.4271334997,0.4321586394,0.4371837734,0.4422088971,0.4472340147,       3P    212
0.4522591334,0.4572842623,0.4623094046,0.4673345571,0.4723597165       3P    213
,0.4773848796,0.4824100442,0.4874352087,0.4924603730,0.497485537       3P    214
4,0.5025107010,0.5075358614,0.5125610157,0.5175861627,0.52261130       3P    215
46,0.5276364448,0.5326615852,0.5376867260,0.5427118669,0.5477370       3P    216
077,0.5527621486,0.5577872894,0.5628124301,0.5678375706,0.572862       3P    217
7106,0.5778878499,0.5829129889,0.5879381279,0.5929632678,0.59798       3P    218
84094,0.6030135528,0.6080386989,0.6130638492,0.6180890049,0.6231       3P    219
141655,0.6281393289,0.6331644930,0.6381896563,0.6432148194,0.648       3P    220
2399827,0.6532651458,0.6582903051,0.6633154574,0.6683406041,0.67       3P    221
33657488,0.6783908957,0.6834160455,0.6884411979,0.6934663526,0.6       3P    222
984915094,0.7035166680,0.7085418283,0.7135669899,0.7185921526,0.       3P    223
7236173162,0.7286424804,0.7336676450,0.7386928097,0.7437179744,0       3P    224
.7487431388,0.7537683025,0.7587934655,0.7638186275,0.7688437881,       3P    225
0.7738689473,0.7788941047,0.7839192601,0.7889444132,0.7939695620       3P    226
,0.7989947025,0.8040198287,0.8090449370,0.8140700316,0.819095119       3P    227
5,0.8241202069,0.8291452952,0.8341703872,0.8391954852,0.84422059       3P    228
04,0.8492457021,0.8542708195,0.8592959414,0.8643210672,0.8693461       3P    229
967,0.8743713295,0.8793964654,0.8844216041,0.8894467447,0.894471       3P    230
8859,0.8994970270,0.9045221683,0.9095473094,0.9145724502,0.91959       3P    231
75911,0.9246227324,0.9296478750,0.9346730187,0.9396981638,0.9447       3P    232
233098,0.9497484572,0.9547736058,0.9597987558,0.9648239071,0.969       3P    233
8490597,0.9748742135,0.9798993687,0.9849245251,0.9899496826,1.00       3P    234
00000000,1.0000000000,1.0000000000,1.0000000000,1.0,1.0,1.0,1.0,       3P    235
1.0,1.0,1.0,1.0,1.0,1.0,1.0,1.0,1.0,1.0,1.0,1.0,1.0,1.0,1.0,1.0,       3P    236
1.0,1.0,1.0,1.0,1.0,1.0,1.0,1.0,1.0,1.0,1.0,1.0,1.0,1.0,1.0,1.0,       3P    237
1.0,1.0,1.0,1.0,1.0,1.0,1.0,1.0,1.0,1.0,1.0,1.0,1.0,1.0,1.0,1.0,       3P    238
1.0,1.0,1.0,1.0,1.0,1.0,1.0,1.0,1.0,1.0,1.0,1.0,1.0,1.0,1.0,1.0,       3P    239
1.0,1.0,1.0,1.0,1.0,1.0,1.0,1.0,1.0,1.0,1.0,1.0,1.0,1.0,1.0,1.0,       3P    240
1.0,1.0,1.0,1.0,1.0,1.0,1.0,1.0,1.0,1.0,1.0,1.0,1.0,1.0,1.0,1.0,       3P    241
1.0,1.0,1.0,1.0,1.0,1.0,1.0,1.0,1.0,1.0,1.0,1.0,1.0,1.0,1.0,1.0,       3P    242
1.0,1.0,1.0,1.0,1.0,1.0,1.0,1.0,1.0,1.0,1.0,1.0,1.0,1.0,1.0,1.0,       3P    243
1.0,1.0,1.0,1.0,1.0,1.0,1.0,1.0,1.0,1.0,1.0,1.0,1.0,1.0,1.0,1.0,       3P    244
1.0,1.0,1.0,1.0,1.0,1.0,1.0,1.0,1.0,1.0,1.0,1.0,1.0,1.0,1.0,1.0,       3P    245
1.0,1.0,1.0,1.0,1.0,1.0,1.0,1.0,1.0,1.0,1.0,1.0,1.0,1.0,1.0,1.0,       3P    246
1.0,1.0,1.0,1.0,1.0,1.0,1.0,1.0,1.0,1.0,1.0,1.0,1.0,1.0,1.0,1.0,       3P    247
1.0,1.0,1.0,1.0,6273.8020320000,374.4167264000,0.0000000000,6274       3P    248
.7578192290,374.4538964095,0.0000000000,6276.1920045079,374.4967       3P    249
945854,0.0000000000,6278.1048009625,374.5274354482,0.0000000000,       3P    250
6279.5395495067,374.5371317671,0.0000000000,6280.9743264603,374.       3P    251
5334066129,0.0000000000,6282.4090042555,374.5161066812,0.0000000       3P    252
000,6283.8434520691,374.4851271652,0.0000000000,6285.2775364016,       3P    253
374.4403693141,0.0000000000,6286.7111193508,374.3816999428,0.000       3P    254
0000000,6288.1440608476,374.3090298962,0.0000000000,6289.5762223       3P    255
311,374.2223310490,0.0000000000,6291.0074550409,374.1214521889,0       3P    256
.0000000000,6292.4376168187,374.0063762499,0.0000000000,6293.866       3P    257
5478825,373.8769163795,0.0000000000,6295.2941269119,373.73330543       3P    258
84,0.0000000000,6296.7201565897,373.5750477803,0.0000000000,6298       3P    259
.1445315596,373.4025297699,0.0000000000,6299.5670464697,373.2152       3P    260
902810,0.0000000000,6300.9876055048,373.0137524895,0.0000000000,       3P    261
6302.4060230069,372.7976510493,0.0000000000,6303.8221425604,372.       3P    262
5669700579,0.0000000000,6305.2358075993,372.3217107999,0.0000000       3P    263
000,6306.6469424808,372.0623053992,0.0000000000,6308.0546354731,       3P    264
371.7846646786,0.0000000000,6309.4564817972,371.4786750720,0.000       3P    265
0000000,6310.8502310633,371.1373747813,0.0000000000,6312.2321089       3P    266
607,370.7505189727,0.0000000000,6313.6010647822,370.3206025530,0       3P    267
.0000000000,6314.9629803140,369.8692581929,0.0000000000,6316.323       3P    268
3718381,369.4133688012,0.0000000000,6317.6882700148,368.97091952       3P    269
20,0.0000000000,6319.0633146918,368.5607902355,0.0000000000,6320       3P    270
.4483536622,368.1859252824,0.0000000000,6321.8412348937,367.8414       3P    271
488003,0.0000000000,6323.2409700115,367.5260201359,0.0000000000,       3P    272
6324.6462190679,367.2362292984,0.0000000000,6326.0562360574,366.       3P    273
9706116269,0.0000000000,6327.4706233575,366.7293230942,0.0000000       3P    274
000,6328.8891033379,366.5133608178,0.0000000000,6330.3112934763,       3P    275
366.3233550630,0.0000000000,6331.7367559923,366.1596684315,0.000       3P    276
0000000,6333.1650974632,366.0233304824,0.0000000000,6334.5958386       3P    277
657,365.9149767483,0.0000000000,6336.0285065006,365.8359199783,0       3P    278
.0000000000,6337.4624921604,365.7864960644,0.0000000000,6338.897       3P    279
1665195,365.7645022328,0.0000000000,6340.3319376264,365.76832949       3P    280
76,0.0000000000,6341.7666912238,365.7779826197,0.0000000000,6343       3P    281
.2010679332,365.8148273730,0.0000000000,6344.6346481411,365.8733       3P    282
321427,0.0000000000,6346.0681448360,365.9332686665,0.0000000000,       3P    283
6347.5018526040,365.9890962613,0.0000000000,6348.9363316972,366.       3P    284
0205403298,0.0000000000,6350.3710109890,366.0360715588,0.0000000       3P    285
000,6351.8056405317,366.0557820767,0.0000000000,6353.2403036686,       3P    286
366.0729834896,0.0000000000,6354.6749209999,366.0936636415,0.000       3P    287
0000000,6356.1095413586,366.1140663829,0.0000000000,6357.5441637       3P    288
625,366.1343480361,0.0000000000,6358.9788066774,366.1531321524,0       3P    289
.0000000000,6360.4134764685,366.1697754557,0.0000000000,6361.848       3P    290
1820151,366.1830384696,0.0000000000,6363.2829196446,366.19228184       3P    291
25,0.0000000000,6364.7176822265,366.1963987530,0.0000000000,6366       3P    292
.1524501916,366.1944316226,0.0000000000,6367.5871933520,366.1855       3P    293
891101,0.0000000000,6369.0218681529,366.1689385840,0.0000000000,       3P    294
6370.4564168283,366.1434904125,0.0000000000,6371.8907539752,366.       3P    295
1081883859,0.0000000000,6373.3248292446,366.0631237699,0.0000000       3P    296
000,6374.7583838900,366.0043439667,0.0000000000,6376.1916521315,       3P    297
365.9390077188,0.0000000000,6377.6260372834,365.9052928055,0.000       3P    298
0000000,6379.0615631653,365.9398843817,0.0000000000,6380.4887309       3P    299
124,366.0968879525,0.0000000000,6381.9074389632,366.3104556646,0       3P    300
.0000000000,6383.3347752774,366.4596049791,0.0000000000,6384.763       3P    301
9992040,366.5847998533,0.0000000000,6386.1938773236,366.70311469       3P    302
47,0.0000000000,6387.6223276586,366.8382115224,0.0000000000,6389       3P    303
.0471656950,367.0079753932,0.0000000000,6390.4670286118,367.2149       3P    304
734180,0.0000000000,6391.8823952433,367.4504143428,0.0000000000,       3P    305
6393.2939676075,367.7075202738,0.0000000000,6394.7023801622,367.       3P    306
9813285214,0.0000000000,6396.1081344683,368.2684751759,0.0000000       3P    307
000,6397.5105331693,368.5716448410,0.0000000000,6398.9087538580,       3P    308
368.8935677561,0.0000000000,6400.3020096877,369.2364004711,0.000       3P    309
0000000,6401.6893254308,369.6025352938,0.0000000000,6403.0710328       3P    310
498,369.9892257712,0.0000000000,6404.4480694924,370.3921826658,0       3P    311
.0000000000,6405.8215103028,370.8071991393,0.0000000000,6407.192       3P    312
3817484,371.2306061067,0.0000000000,6408.5618406704,371.65854748       3P    313
83,0.0000000000,6409.9313458759,372.0863407365,0.0000000000,6411       3P    314
.3010245246,372.5135798382,0.0000000000,6412.6698958329,372.9434       3P    315
022577,0.0000000000,6414.0378349546,373.3761789281,0.0000000000,       3P    316
6415.4057268373,373.8091021268,0.0000000000,6416.7746629827,374.       3P    317
2387197069,0.0000000000,6418.1459432584,374.6608187901,0.0000000       3P    318
000,6419.5207862612,375.0711969203,0.0000000000,6420.8999164997,       3P    319
375.4669516670,0.0000000000,6422.2834900032,375.8468794318,0.000       3P    320
0000000,6423.6711513620,376.2115826145,0.0000000000,6425.0626799       3P    321
929,376.5612441367,0.0000000000,6426.4579863552,376.8955137263,0       3P    322
.0000000000,6427.8568471718,377.2145771900,0.0000000000,6429.259       3P    323
0882159,377.5184443694,0.0000000000,6430.6645933669,377.80683820       3P    324
35,0.0000000000,6432.0731599247,378.0798841274,0.0000000000,6433       3P    325
.4846224148,378.3375446895,0.0000000000,6434.8988495696,378.5795       3P    326
745626,0.0000000000,6436.3156915484,378.8057987026,0.0000000000,       3P    327
6437.7350097477,379.0159341399,0.0000000000,6439.1566374357,379.       3P    328
2098290038,0.0000000000,6440.5803691245,379.3876159055,0.0000000       3P    329
000,6442.0059913516,379.5495243669,0.0000000000,6443.4332150180,       3P    330
379.6966267346,0.0000000000,6444.8618588847,379.8292304228,0.000       3P    331
0000000,6446.2917081459,379.9480824109,0.0000000000,6447.7224257       3P    332
983,380.0558781550,0.0000000000,6449.1536833888,380.1561858195,0       3P    333
.0000000000,6450.5852543222,380.2518834485,0.0000000000,6452.016       3P    334
8938843,380.3465313427,0.0000000000,6453.4484271941,380.44281052       3P    335
75,0.0000000000,6454.8795521534,380.5450137640,0.0000000000,6456       3P    336
.3103157826,380.6521032105,0.0000000000,6457.7410774365,380.7592       3P    337
115619,0.0000000000,6459.1721712291,380.8618237598,0.0000000000,       3P    338
6460.6038536755,380.9560043528,0.0000000000,6462.0363871656,381.       3P    339
0364056319,0.0000000000,6463.4696988886,381.1014308615,0.0000000       3P    340
000,6464.9035714842,381.1524916386,0.0000000000,6466.3378456142,       3P    341
381.1905610797,0.0000000000,6467.7723809388,381.2168719805,0.000       3P    342
0000000,6469.2070708977,381.2324848199,0.0000000000,6470.6418311       3P    343
750,381.2384371078,0.0000000000,6472.0766004207,381.2360707616,0       3P    344
.0000000000,6473.5113359061,381.2261527230,0.0000000000,6474.946       3P    345
0150081,381.2101500733,0.0000000000,6476.3806253823,381.18891390       3P    346
67,0.0000000000,6477.8151705040,381.1637032126,0.0000000000,6479       3P    347
.2496599068,381.1355246243,0.0000000000,6480.6841117708,381.1055       3P    348
153307,0.0000000000,6482.1185499436,381.0748646301,0.0000000000,       3P    349
6483.5529952345,381.0445447461,0.0000000000,6484.9874722088,381.       3P    350
0157490024,0.0000000000,6486.4219988497,380.9895155496,0.0000000       3P    351
000,6487.8565894128,380.9670042902,0.0000000000,6489.2912478680,       3P    352
380.9492599772,0.0000000000,6490.7259689950,380.9375020591,0.000       3P    353
0000000,6492.1607317167,380.9327212475,0.0000000000,6493.5954999       3P    354
263,380.9361140620,0.0000000000,6495.0302189567,380.9486917630,0       3P    355
.0000000000,6496.4648105806,380.9716705016,0.0000000000,6497.899       3P    356
1802658,381.0058518751,0.0000000000,6499.3331826882,381.05320042       3P    357
59,0.0000000000,6500.7665347772,381.1175439432,0.0000000000,6502       3P    358
.1987833032,381.2034200618,0.0000000000,6503.6291684267,381.3163       3P    359
850931,0.0000000000,6505.0570557089,381.4574337139,0.0000000000,       3P    360
6506.4818909540,381.6265411216,0.0000000000,6507.9031444082,381.       3P    361
8235079772,0.0000000000,6509.3202414992,382.0484222981,0.0000000       3P    362
000,6510.7328621934,382.2998738859,0.0000000000,6512.1408110213,       3P    363
382.5762528759,0.0000000000,6513.5439496274,382.8760731052,0.000       3P    364
0000000,6514.9421672137,383.1980370463,0.0000000000,6516.3354776       3P    365
517,383.5405933397,0.0000000000,6517.7237735527,383.9029378369,0       3P    366
.0000000000,6519.1068900360,384.2845547160,0.0000000000,6520.485       3P    367
1276746,384.6834165877,0.0000000000,6521.8583048401,385.09937207       3P    368
00,0.0000000000,6523.2264040812,385.5317156531,0.0000000000,6524       3P    369
.5898522347,385.9785010137,0.0000000000,6525.9483722344,386.4400       3P    370
644800,0.0000000000,6527.3017103769,386.9166034483,0.0000000000,       3P    371
6528.6498843489,387.4075616096,0.0000000000,6529.9926240962,387.       3P    372
9131926641,0.0000000000,6531.3298550526,388.4332215752,0.0000000       3P    373
000,6532.6611657897,388.9682233166,0.0000000000,6533.9866832602,       3P    374
389.5174217838,0.0000000000,6535.3060497668,390.0812324838,0.000       3P    375
0000000,6536.6196950236,390.6582442831,0.0000000000,6537.9272743       3P    376
772,391.2488716742,0.0000000000,6539.2291978280,391.8518601611,0       3P    377
.0000000000,6540.5251695704,392.4675371308,0.0000000000,6541.815       3P    378
4696568,393.0950075558,0.0000000000,6543.1002293382,393.73374253       3P    379
32,0.0000000000,6544.3796282989,394.3831483975,0.0000000000,6545       3P    380
.6536275834,395.0430790797,0.0000000000,6546.9228253610,395.7121       3P    381
968495,0.0000000000,6548.1868753007,396.3909880675,0.0000000000,       3P    382
6549.4465669444,397.0778266314,0.0000000000,6551.1205278390,398.       3P    383
0038620317,0.0000000000,6552.3695784436,398.7099051826,0.0000000       3P    384
000,6553.2000000000,399.1845712000,0.0000000000,0.0000000000,1.0       3P    385
000000000,0.0,0.0,0.0;                                                 3P    386
S      1G      3D      4P    386                                        T      1
